%FSLAX34Y34*%
%MOMM*%
%LNCOPPER_TOP*%
G71*
G01*
%ADD10C, 1.60*%
%ADD11C, 1.30*%
%ADD12C, 0.25*%
%ADD13C, 1.00*%
%ADD14C, 0.22*%
%ADD15C, 0.40*%
%ADD16R, 1.50X6.50*%
%ADD17C, 3.50*%
%ADD18R, 1.50X1.00*%
%ADD19R, 2.80X1.50*%
%ADD20R, 1.50X0.70*%
%ADD21R, 1.30X1.50*%
%LPD*%
X82550Y838200D02*
G54D10*
D03*
X82550Y863600D02*
G54D10*
D03*
X57150Y838200D02*
G54D10*
D03*
X57150Y812800D02*
G54D10*
D03*
X82550Y812800D02*
G54D10*
D03*
X82550Y787400D02*
G54D10*
D03*
X57150Y787400D02*
G54D10*
D03*
X57150Y762000D02*
G54D10*
D03*
X82550Y762000D02*
G54D10*
D03*
X82550Y736600D02*
G54D10*
D03*
X57150Y736600D02*
G54D10*
D03*
X57150Y711200D02*
G54D10*
D03*
X82550Y711200D02*
G54D10*
D03*
X82550Y685800D02*
G54D10*
D03*
X57150Y685800D02*
G54D10*
D03*
X57150Y660400D02*
G54D10*
D03*
X82550Y660400D02*
G54D10*
D03*
X82550Y635000D02*
G54D10*
D03*
X57150Y635000D02*
G54D10*
D03*
X184150Y711200D02*
G54D10*
D03*
X209550Y711200D02*
G54D10*
D03*
X209550Y736600D02*
G54D10*
D03*
X184150Y736600D02*
G54D10*
D03*
X184150Y762000D02*
G54D10*
D03*
X209550Y762000D02*
G54D10*
D03*
X209550Y787400D02*
G54D10*
D03*
X184150Y787400D02*
G54D10*
D03*
X209550Y812800D02*
G54D10*
D03*
X298450Y933450D02*
G54D10*
D03*
X298450Y958850D02*
G54D10*
D03*
X374650Y958850D02*
G54D10*
D03*
X400050Y958850D02*
G54D10*
D03*
X400050Y933450D02*
G54D10*
D03*
X425450Y933450D02*
G54D10*
D03*
X425450Y958850D02*
G54D10*
D03*
X450850Y958850D02*
G54D10*
D03*
X450850Y933450D02*
G54D10*
D03*
X476250Y933450D02*
G54D10*
D03*
X476250Y958850D02*
G54D10*
D03*
X501650Y958850D02*
G54D10*
D03*
X501650Y933450D02*
G54D10*
D03*
X527050Y933450D02*
G54D10*
D03*
X527050Y958850D02*
G54D10*
D03*
X552450Y958850D02*
G54D10*
D03*
X552450Y933450D02*
G54D10*
D03*
X577850Y933450D02*
G54D10*
D03*
X577850Y958850D02*
G54D10*
D03*
X603250Y958850D02*
G54D10*
D03*
X603250Y933450D02*
G54D10*
D03*
X628650Y933450D02*
G54D10*
D03*
X628650Y958850D02*
G54D10*
D03*
X654050Y958850D02*
G54D10*
D03*
X654050Y933450D02*
G54D10*
D03*
X679450Y933450D02*
G54D10*
D03*
X679450Y958850D02*
G54D10*
D03*
X704850Y958850D02*
G54D10*
D03*
X704850Y933450D02*
G54D10*
D03*
X730250Y933450D02*
G54D10*
D03*
X730250Y958850D02*
G54D10*
D03*
X755650Y958850D02*
G54D10*
D03*
X755650Y933450D02*
G54D10*
D03*
X781050Y933450D02*
G54D10*
D03*
X781050Y958850D02*
G54D10*
D03*
X806450Y958850D02*
G54D10*
D03*
X806450Y933450D02*
G54D10*
D03*
X831850Y933450D02*
G54D10*
D03*
X831850Y958850D02*
G54D10*
D03*
X857250Y958850D02*
G54D10*
D03*
X857250Y933450D02*
G54D10*
D03*
X323850Y876300D02*
G54D10*
D03*
X349250Y876300D02*
G54D10*
D03*
X374650Y876300D02*
G54D10*
D03*
X400050Y876300D02*
G54D10*
D03*
X425450Y876300D02*
G54D10*
D03*
X450850Y876300D02*
G54D10*
D03*
X476250Y876300D02*
G54D10*
D03*
X501650Y876300D02*
G54D10*
D03*
X527050Y876300D02*
G54D10*
D03*
X552450Y876300D02*
G54D10*
D03*
X552450Y800100D02*
G54D10*
D03*
X527050Y800100D02*
G54D10*
D03*
X501650Y800100D02*
G54D10*
D03*
X476250Y800100D02*
G54D10*
D03*
X450850Y800100D02*
G54D10*
D03*
X425450Y800100D02*
G54D10*
D03*
X400050Y800100D02*
G54D10*
D03*
X374650Y800100D02*
G54D10*
D03*
X349250Y800100D02*
G54D10*
D03*
G36*
X176150Y820800D02*
X192150Y820800D01*
X192150Y804800D01*
X176150Y804800D01*
X176150Y820800D01*
G37*
G36*
X49150Y871600D02*
X65150Y871600D01*
X65150Y855600D01*
X49150Y855600D01*
X49150Y871600D01*
G37*
G36*
X315850Y808100D02*
X331850Y808100D01*
X331850Y792100D01*
X315850Y792100D01*
X315850Y808100D01*
G37*
G36*
X315850Y700150D02*
X331850Y700150D01*
X331850Y684150D01*
X315850Y684150D01*
X315850Y700150D01*
G37*
G36*
X366650Y941450D02*
X382650Y941450D01*
X382650Y925450D01*
X366650Y925450D01*
X366650Y941450D01*
G37*
G36*
X315850Y598550D02*
X331850Y598550D01*
X331850Y582550D01*
X315850Y582550D01*
X315850Y598550D01*
G37*
G36*
X296800Y249300D02*
X312800Y249300D01*
X312800Y233300D01*
X296800Y233300D01*
X296800Y249300D01*
G37*
G36*
X538100Y217550D02*
X554100Y217550D01*
X554100Y201550D01*
X538100Y201550D01*
X538100Y217550D01*
G37*
G36*
X811150Y204850D02*
X827150Y204850D01*
X827150Y188850D01*
X811150Y188850D01*
X811150Y204850D01*
G37*
G36*
X817500Y363600D02*
X833500Y363600D01*
X833500Y347600D01*
X817500Y347600D01*
X817500Y363600D01*
G37*
G36*
X709550Y331850D02*
X725550Y331850D01*
X725550Y315850D01*
X709550Y315850D01*
X709550Y331850D01*
G37*
G36*
X538100Y452500D02*
X554100Y452500D01*
X554100Y436500D01*
X538100Y436500D01*
X538100Y452500D01*
G37*
G36*
X620650Y808100D02*
X636650Y808100D01*
X636650Y792100D01*
X620650Y792100D01*
X620650Y808100D01*
G37*
G36*
X588900Y871600D02*
X604900Y871600D01*
X604900Y855600D01*
X588900Y855600D01*
X588900Y871600D01*
G37*
G36*
X874650Y617600D02*
X890650Y617600D01*
X890650Y601600D01*
X874650Y601600D01*
X874650Y617600D01*
G37*
G36*
X944500Y687450D02*
X960500Y687450D01*
X960500Y671450D01*
X944500Y671450D01*
X944500Y687450D01*
G37*
G36*
X957200Y560450D02*
X973200Y560450D01*
X973200Y544450D01*
X957200Y544450D01*
X957200Y560450D01*
G37*
G36*
X277750Y763650D02*
X293750Y763650D01*
X293750Y747650D01*
X277750Y747650D01*
X277750Y763650D01*
G37*
G36*
X277750Y865250D02*
X293750Y865250D01*
X293750Y849250D01*
X277750Y849250D01*
X277750Y865250D01*
G37*
G36*
X944500Y947800D02*
X960500Y947800D01*
X960500Y931800D01*
X944500Y931800D01*
X944500Y947800D01*
G37*
X323850Y768350D02*
G54D10*
D03*
X349250Y768350D02*
G54D10*
D03*
X374650Y768350D02*
G54D10*
D03*
X400050Y768350D02*
G54D10*
D03*
X425450Y768350D02*
G54D10*
D03*
X450850Y768350D02*
G54D10*
D03*
X476250Y768350D02*
G54D10*
D03*
X501650Y768350D02*
G54D10*
D03*
X527050Y768350D02*
G54D10*
D03*
X552450Y768350D02*
G54D10*
D03*
X552450Y692150D02*
G54D10*
D03*
X527050Y692150D02*
G54D10*
D03*
X501650Y692150D02*
G54D10*
D03*
X476250Y692150D02*
G54D10*
D03*
X450850Y692150D02*
G54D10*
D03*
X425450Y692150D02*
G54D10*
D03*
X400050Y692150D02*
G54D10*
D03*
X374650Y692150D02*
G54D10*
D03*
X349250Y692150D02*
G54D10*
D03*
X323850Y666750D02*
G54D10*
D03*
X349250Y666750D02*
G54D10*
D03*
X374650Y666750D02*
G54D10*
D03*
X400050Y666750D02*
G54D10*
D03*
X425450Y666750D02*
G54D10*
D03*
X450850Y666750D02*
G54D10*
D03*
X476250Y666750D02*
G54D10*
D03*
X501650Y666750D02*
G54D10*
D03*
X527050Y666750D02*
G54D10*
D03*
X552450Y666750D02*
G54D10*
D03*
X552450Y590550D02*
G54D10*
D03*
X527050Y590550D02*
G54D10*
D03*
X501650Y590550D02*
G54D10*
D03*
X476250Y590550D02*
G54D10*
D03*
X450850Y590550D02*
G54D10*
D03*
X425450Y590550D02*
G54D10*
D03*
X400050Y590550D02*
G54D10*
D03*
X374650Y590550D02*
G54D10*
D03*
X349250Y590550D02*
G54D10*
D03*
X654050Y800100D02*
G54D10*
D03*
X679450Y800100D02*
G54D10*
D03*
X704850Y800100D02*
G54D10*
D03*
X730250Y800100D02*
G54D10*
D03*
X755650Y800100D02*
G54D10*
D03*
X781050Y800100D02*
G54D10*
D03*
X806450Y800100D02*
G54D10*
D03*
X831850Y800100D02*
G54D10*
D03*
X857250Y800100D02*
G54D10*
D03*
X857250Y876300D02*
G54D10*
D03*
X831850Y876300D02*
G54D10*
D03*
X806450Y876300D02*
G54D10*
D03*
X781050Y876300D02*
G54D10*
D03*
X755650Y876300D02*
G54D10*
D03*
X730250Y876300D02*
G54D10*
D03*
X704850Y876300D02*
G54D10*
D03*
X679450Y876300D02*
G54D10*
D03*
X654050Y876300D02*
G54D10*
D03*
X628650Y876300D02*
G54D10*
D03*
X1028700Y850900D02*
G54D10*
D03*
X1054100Y850900D02*
G54D10*
D03*
X1054100Y825500D02*
G54D10*
D03*
X1054100Y800100D02*
G54D10*
D03*
X1054100Y774700D02*
G54D10*
D03*
X1028700Y774700D02*
G54D10*
D03*
X1028700Y590550D02*
G54D10*
D03*
X1054100Y590550D02*
G54D10*
D03*
X1054100Y615950D02*
G54D10*
D03*
X1054100Y641350D02*
G54D10*
D03*
X1054100Y666750D02*
G54D10*
D03*
X1028700Y666750D02*
G54D10*
D03*
X939800Y552450D02*
G54D10*
D03*
X914400Y552450D02*
G54D10*
D03*
X889000Y552450D02*
G54D10*
D03*
X863600Y552450D02*
G54D10*
D03*
X952500Y704850D02*
G54D10*
D03*
X952500Y730250D02*
G54D10*
D03*
X952500Y755650D02*
G54D10*
D03*
X952500Y781050D02*
G54D10*
D03*
X882650Y635000D02*
G54D10*
D03*
X882650Y660400D02*
G54D10*
D03*
X882650Y685800D02*
G54D10*
D03*
X882650Y711200D02*
G54D10*
D03*
X882650Y736600D02*
G54D10*
D03*
X882650Y762000D02*
G54D10*
D03*
X806450Y609600D02*
G54D10*
D03*
X806450Y635000D02*
G54D10*
D03*
X806450Y660400D02*
G54D10*
D03*
X806450Y685800D02*
G54D10*
D03*
X806450Y711200D02*
G54D10*
D03*
X806450Y736600D02*
G54D10*
D03*
X806450Y762000D02*
G54D10*
D03*
X241300Y879475D02*
G54D10*
D03*
X241300Y904875D02*
G54D10*
D03*
X155575Y904875D02*
G54D10*
D03*
X155575Y879475D02*
G54D10*
D03*
X247650Y647700D02*
G54D10*
D03*
X247650Y622300D02*
G54D10*
D03*
X247650Y596900D02*
G54D10*
D03*
X161925Y596900D02*
G54D10*
D03*
X161925Y622300D02*
G54D10*
D03*
X161925Y647700D02*
G54D10*
D03*
X285750Y704850D02*
G54D10*
D03*
X285750Y804862D02*
G54D10*
D03*
X152400Y317500D02*
G54D10*
D03*
X177800Y317500D02*
G54D10*
D03*
X165100Y304800D02*
G54D11*
D03*
X177800Y292100D02*
G54D10*
D03*
X152400Y292100D02*
G54D10*
D03*
X152400Y266700D02*
G54D10*
D03*
X177800Y266700D02*
G54D10*
D03*
X190500Y279400D02*
G54D11*
D03*
X203200Y266700D02*
G54D10*
D03*
X203200Y241300D02*
G54D10*
D03*
X177800Y241300D02*
G54D10*
D03*
X165100Y254000D02*
G54D11*
D03*
X228600Y241300D02*
G54D10*
D03*
X228600Y266700D02*
G54D10*
D03*
X254000Y241300D02*
G54D10*
D03*
X254000Y266700D02*
G54D10*
D03*
X279400Y266700D02*
G54D10*
D03*
X279400Y241300D02*
G54D10*
D03*
X304800Y266700D02*
G54D10*
D03*
X330200Y266700D02*
G54D10*
D03*
X330200Y241300D02*
G54D10*
D03*
X355600Y241300D02*
G54D10*
D03*
X355600Y266700D02*
G54D10*
D03*
X368300Y279400D02*
G54D11*
D03*
X381000Y266700D02*
G54D10*
D03*
X381000Y241300D02*
G54D10*
D03*
X406400Y241300D02*
G54D10*
D03*
X406400Y266700D02*
G54D10*
D03*
X431800Y266700D02*
G54D10*
D03*
X431800Y241300D02*
G54D10*
D03*
X457200Y266700D02*
G54D10*
D03*
X457200Y292100D02*
G54D10*
D03*
X431800Y292100D02*
G54D10*
D03*
X419100Y279400D02*
G54D11*
D03*
X457200Y317500D02*
G54D10*
D03*
X431800Y317500D02*
G54D10*
D03*
X431800Y342900D02*
G54D10*
D03*
X457200Y342900D02*
G54D10*
D03*
X457200Y368300D02*
G54D10*
D03*
X431800Y368300D02*
G54D10*
D03*
X431800Y393700D02*
G54D10*
D03*
X457200Y393700D02*
G54D10*
D03*
X457200Y419100D02*
G54D10*
D03*
X431800Y419100D02*
G54D10*
D03*
X457200Y444500D02*
G54D10*
D03*
X431800Y444500D02*
G54D10*
D03*
X431800Y469900D02*
G54D10*
D03*
X457200Y469900D02*
G54D10*
D03*
X431800Y495300D02*
G54D10*
D03*
X406400Y495300D02*
G54D11*
D03*
X457200Y495300D02*
G54D10*
D03*
X457200Y520700D02*
G54D10*
D03*
X398462Y477838D02*
G54D11*
D03*
X431800Y520700D02*
G54D10*
D03*
X431800Y546100D02*
G54D10*
D03*
X406400Y546100D02*
G54D10*
D03*
X406400Y520700D02*
G54D10*
D03*
X381000Y520700D02*
G54D10*
D03*
X381000Y546100D02*
G54D10*
D03*
X355600Y546100D02*
G54D10*
D03*
X355600Y520700D02*
G54D10*
D03*
X330200Y520700D02*
G54D10*
D03*
X330200Y546100D02*
G54D10*
D03*
X304800Y546100D02*
G54D10*
D03*
X304800Y520700D02*
G54D10*
D03*
X596900Y209550D02*
G54D10*
D03*
X533400Y241300D02*
G54D10*
D03*
X533400Y266700D02*
G54D10*
D03*
X533400Y292100D02*
G54D10*
D03*
X533400Y317500D02*
G54D10*
D03*
X533400Y342900D02*
G54D10*
D03*
X533400Y368300D02*
G54D10*
D03*
X533400Y393700D02*
G54D10*
D03*
X609600Y393700D02*
G54D10*
D03*
X609600Y368300D02*
G54D10*
D03*
X609600Y342900D02*
G54D10*
D03*
X609600Y317500D02*
G54D10*
D03*
X609600Y292100D02*
G54D10*
D03*
X609600Y266700D02*
G54D10*
D03*
G36*
X601600Y249300D02*
X617600Y249300D01*
X617600Y233300D01*
X601600Y233300D01*
X601600Y249300D01*
G37*
X177800Y342900D02*
G54D10*
D03*
X152400Y342900D02*
G54D10*
D03*
X152400Y368300D02*
G54D10*
D03*
X177800Y368300D02*
G54D10*
D03*
X177800Y393700D02*
G54D10*
D03*
X152400Y393700D02*
G54D10*
D03*
X152400Y419100D02*
G54D10*
D03*
X177800Y419100D02*
G54D10*
D03*
X177800Y444500D02*
G54D10*
D03*
X152400Y444500D02*
G54D10*
D03*
X152400Y469900D02*
G54D10*
D03*
X177800Y469900D02*
G54D10*
D03*
X177800Y495300D02*
G54D10*
D03*
X190500Y508000D02*
G54D11*
D03*
X203200Y520700D02*
G54D10*
D03*
X228600Y520700D02*
G54D10*
D03*
X254000Y520700D02*
G54D10*
D03*
X241300Y508000D02*
G54D11*
D03*
X279400Y520700D02*
G54D10*
D03*
X177800Y520700D02*
G54D10*
D03*
X152400Y520700D02*
G54D10*
D03*
X152400Y495300D02*
G54D10*
D03*
X177800Y546100D02*
G54D10*
D03*
X203200Y546100D02*
G54D10*
D03*
X228600Y546100D02*
G54D10*
D03*
X254000Y546100D02*
G54D10*
D03*
X279400Y546100D02*
G54D10*
D03*
X654050Y546100D02*
G54D10*
D03*
X622300Y546100D02*
G54D10*
D03*
X654050Y631825D02*
G54D10*
D03*
X622300Y631825D02*
G54D10*
D03*
X596900Y625475D02*
G54D10*
D03*
G36*
X588900Y563625D02*
X604900Y563625D01*
X604900Y547625D01*
X588900Y547625D01*
X588900Y563625D01*
G37*
X596900Y812800D02*
G54D10*
D03*
X876300Y355600D02*
G54D10*
D03*
X1047750Y196850D02*
G54D10*
D03*
G36*
X1014350Y204850D02*
X1030350Y204850D01*
X1030350Y188850D01*
X1014350Y188850D01*
X1014350Y204850D01*
G37*
X901700Y196850D02*
G54D10*
D03*
X850900Y228600D02*
G54D10*
D03*
X825500Y228600D02*
G54D10*
D03*
X876300Y228600D02*
G54D10*
D03*
X889000Y260350D02*
G54D10*
D03*
X889000Y323850D02*
G54D10*
D03*
X889000Y288925D02*
G54D10*
D03*
X803275Y288925D02*
G54D10*
D03*
X803275Y260350D02*
G54D10*
D03*
X803275Y323850D02*
G54D10*
D03*
X781050Y260350D02*
G54D10*
D03*
X781050Y346075D02*
G54D10*
D03*
X749300Y273050D02*
G54D10*
D03*
X749300Y298450D02*
G54D10*
D03*
X749300Y323850D02*
G54D10*
D03*
X717550Y273050D02*
G54D10*
D03*
X673100Y206375D02*
G54D10*
D03*
X685800Y225425D02*
G54D10*
D03*
X660400Y225425D02*
G54D10*
D03*
X685800Y250825D02*
G54D10*
D03*
X660400Y250825D02*
G54D10*
D03*
X635000Y250825D02*
G54D10*
D03*
X685800Y336550D02*
G54D10*
D03*
X660400Y336550D02*
G54D10*
D03*
X635000Y336550D02*
G54D10*
D03*
X638175Y358775D02*
G54D10*
D03*
X666750Y358775D02*
G54D10*
D03*
X695325Y358775D02*
G54D10*
D03*
X777875Y368300D02*
G54D10*
D03*
X752475Y368300D02*
G54D10*
D03*
X803275Y393700D02*
G54D10*
D03*
X889000Y393700D02*
G54D10*
D03*
X889000Y419100D02*
G54D10*
D03*
X803275Y419100D02*
G54D10*
D03*
X803275Y444500D02*
G54D10*
D03*
X889000Y444500D02*
G54D10*
D03*
X885825Y469900D02*
G54D10*
D03*
X800100Y469900D02*
G54D10*
D03*
X777875Y454025D02*
G54D10*
D03*
X752475Y454025D02*
G54D10*
D03*
X752475Y479425D02*
G54D10*
D03*
X727075Y479425D02*
G54D10*
D03*
X701675Y479425D02*
G54D10*
D03*
X695325Y444500D02*
G54D10*
D03*
X666750Y444500D02*
G54D10*
D03*
X638175Y444500D02*
G54D10*
D03*
X720725Y428625D02*
G54D10*
D03*
X720725Y403225D02*
G54D10*
D03*
X720725Y377825D02*
G54D10*
D03*
X596900Y444500D02*
G54D10*
D03*
X987425Y196850D02*
G54D10*
D03*
X869950Y196850D02*
G54D10*
D03*
X800100Y234950D02*
G54D10*
D03*
X714375Y234950D02*
G54D10*
D03*
X996950Y606425D02*
G54D10*
D03*
X996950Y635000D02*
G54D10*
D03*
X911225Y635000D02*
G54D10*
D03*
X911225Y606425D02*
G54D10*
D03*
X911220Y590550D02*
G54D11*
D03*
X863600Y590550D02*
G54D11*
D03*
X781050Y574675D02*
G54D10*
D03*
X781050Y660400D02*
G54D10*
D03*
X749300Y517525D02*
G54D10*
D03*
G36*
X690500Y525525D02*
X706500Y525525D01*
X706500Y509525D01*
X690500Y509525D01*
X690500Y525525D01*
G37*
G36*
X671450Y760475D02*
X687450Y760475D01*
X687450Y744475D01*
X671450Y744475D01*
X671450Y760475D01*
G37*
X679450Y727075D02*
G54D10*
D03*
X679450Y701675D02*
G54D10*
D03*
X679450Y676275D02*
G54D10*
D03*
X679450Y650875D02*
G54D10*
D03*
X679450Y625475D02*
G54D10*
D03*
X679450Y600075D02*
G54D10*
D03*
X679450Y574675D02*
G54D10*
D03*
X679450Y549275D02*
G54D10*
D03*
X755650Y549275D02*
G54D10*
D03*
X755650Y574675D02*
G54D10*
D03*
X755650Y600075D02*
G54D10*
D03*
X755650Y625475D02*
G54D10*
D03*
X755650Y650875D02*
G54D10*
D03*
X755650Y676275D02*
G54D10*
D03*
X755650Y701675D02*
G54D10*
D03*
X755650Y727075D02*
G54D10*
D03*
X755650Y752475D02*
G54D10*
D03*
X781050Y736600D02*
G54D10*
D03*
X781050Y714375D02*
G54D10*
D03*
X781050Y688975D02*
G54D10*
D03*
X654050Y669925D02*
G54D10*
D03*
X628650Y669925D02*
G54D10*
D03*
X628650Y755650D02*
G54D10*
D03*
X654050Y755650D02*
G54D10*
D03*
X698500Y774700D02*
G54D10*
D03*
X784225Y774700D02*
G54D10*
D03*
X838200Y612780D02*
G54D11*
D03*
X781050Y609600D02*
G54D11*
D03*
X857250Y698500D02*
G54D11*
D03*
X857250Y762000D02*
G54D11*
D03*
X835030Y781050D02*
G54D11*
D03*
X1009650Y730250D02*
G54D11*
D03*
X933450Y730250D02*
G54D11*
D03*
X993780Y781050D02*
G54D11*
D03*
X911220Y781050D02*
G54D11*
D03*
X911225Y825500D02*
G54D10*
D03*
X911225Y850900D02*
G54D10*
D03*
X889000Y885825D02*
G54D10*
D03*
X889000Y800100D02*
G54D10*
D03*
X996950Y825500D02*
G54D10*
D03*
X996950Y850900D02*
G54D10*
D03*
X996950Y879475D02*
G54D10*
D03*
X911225Y879475D02*
G54D10*
D03*
X923925Y908050D02*
G54D10*
D03*
X1009650Y908050D02*
G54D10*
D03*
X977900Y939800D02*
G54D10*
D03*
X923925Y971550D02*
G54D10*
D03*
X1009650Y971550D02*
G54D10*
D03*
X596900Y682625D02*
G54D10*
D03*
G36*
X588900Y741425D02*
X604900Y741425D01*
X604900Y725425D01*
X588900Y725425D01*
X588900Y741425D01*
G37*
G36*
X65025Y274700D02*
X81025Y274700D01*
X81025Y258700D01*
X65025Y258700D01*
X65025Y274700D01*
G37*
G36*
X103125Y322325D02*
X119125Y322325D01*
X119125Y306325D01*
X103125Y306325D01*
X103125Y322325D01*
G37*
X111125Y365125D02*
G54D10*
D03*
X73025Y292100D02*
G54D10*
D03*
X63500Y339725D02*
G54D10*
D03*
X63500Y365125D02*
G54D10*
D03*
X63500Y390525D02*
G54D10*
D03*
X63500Y415925D02*
G54D10*
D03*
X63500Y441325D02*
G54D10*
D03*
X63500Y466725D02*
G54D10*
D03*
X63500Y492125D02*
G54D10*
D03*
X63500Y517525D02*
G54D10*
D03*
G36*
X55500Y550925D02*
X71500Y550925D01*
X71500Y534925D01*
X55500Y534925D01*
X55500Y550925D01*
G37*
X565150Y412750D02*
G54D11*
D03*
X552450Y520700D02*
G54D11*
D03*
X571500Y650880D02*
G54D11*
D03*
X914400Y508000D02*
G54D11*
D03*
X936622Y304011D02*
G54D11*
D03*
X936622Y379412D02*
G54D11*
D03*
G54D12*
X41275Y219075D02*
X60400Y219000D01*
X47625Y193675D01*
X66675Y193675D01*
G54D12*
X41275Y193675D02*
X53975Y219075D01*
X63500Y193675D01*
G54D12*
X44450Y200025D02*
X60325Y200025D01*
G54D12*
G75*
G01X76200Y206375D02*
G03X76200Y206375I-22225J0D01*
G01*
G54D12*
X47625Y193675D02*
X66675Y193675D01*
X123825Y736600D02*
G54D13*
D03*
X114300Y762000D02*
G54D13*
D03*
X139700Y762000D02*
G54D13*
D03*
X136525Y800100D02*
G54D13*
D03*
X42862Y752475D02*
G54D13*
D03*
X139700Y854075D02*
G54D13*
D03*
X211138Y838200D02*
G54D13*
D03*
X233362Y846138D02*
G54D13*
D03*
X195262Y685800D02*
G54D13*
D03*
X163512Y669925D02*
G54D13*
D03*
X138112Y604838D02*
G54D13*
D03*
X98425Y598488D02*
G54D13*
D03*
X76200Y617538D02*
G54D13*
D03*
X36512Y611188D02*
G54D13*
D03*
X31750Y585788D02*
G54D13*
D03*
X93662Y568325D02*
G54D13*
D03*
X92075Y500062D02*
G54D13*
D03*
X98425Y466725D02*
G54D13*
D03*
X103188Y347662D02*
G54D13*
D03*
X117475Y381000D02*
G54D13*
D03*
X133350Y355600D02*
G54D13*
D03*
X209550Y355600D02*
G54D13*
D03*
X219075Y385762D02*
G54D13*
D03*
X320675Y304800D02*
G54D13*
D03*
X303212Y328612D02*
G54D13*
D03*
X303212Y347662D02*
G54D13*
D03*
X295275Y390525D02*
G54D13*
D03*
X301625Y420688D02*
G54D13*
D03*
X309562Y436562D02*
G54D13*
D03*
X57150Y314325D02*
G54D13*
D03*
X36512Y242888D02*
G54D13*
D03*
X93662Y254000D02*
G54D13*
D03*
X117475Y279400D02*
G54D13*
D03*
X93662Y325438D02*
G54D13*
D03*
X96838Y214312D02*
G54D13*
D03*
X128588Y207962D02*
G54D13*
D03*
X128588Y192088D02*
G54D13*
D03*
X144462Y187325D02*
G54D13*
D03*
X158750Y180975D02*
G54D13*
D03*
X214312Y185738D02*
G54D13*
D03*
X214312Y212725D02*
G54D13*
D03*
X193675Y182562D02*
G54D13*
D03*
X247650Y180970D02*
G54D11*
D03*
X255588Y223838D02*
G54D13*
D03*
X273050Y177800D02*
G54D13*
D03*
X276225Y203200D02*
G54D13*
D03*
X295275Y187325D02*
G54D13*
D03*
X315912Y182562D02*
G54D13*
D03*
X334962Y180975D02*
G54D13*
D03*
X352425Y177800D02*
G54D13*
D03*
X377825Y177800D02*
G54D13*
D03*
X450850Y184145D02*
G54D11*
D03*
X458788Y206375D02*
G54D13*
D03*
X400050Y219075D02*
G54D13*
D03*
X484188Y238125D02*
G54D13*
D03*
X485775Y266700D02*
G54D13*
D03*
X479425Y292100D02*
G54D13*
D03*
X509588Y215900D02*
G54D13*
D03*
X519112Y192088D02*
G54D13*
D03*
X515938Y238125D02*
G54D13*
D03*
X498475Y304800D02*
G54D13*
D03*
X581025Y207962D02*
G54D13*
D03*
X569912Y238125D02*
G54D13*
D03*
X576262Y263525D02*
G54D13*
D03*
X555625Y273050D02*
G54D13*
D03*
X628650Y179388D02*
G54D13*
D03*
X658812Y196850D02*
G54D13*
D03*
X698500Y180975D02*
G54D13*
D03*
X712788Y187325D02*
G54D13*
D03*
X693738Y295275D02*
G54D13*
D03*
X641350Y304800D02*
G54D13*
D03*
X725488Y300038D02*
G54D13*
D03*
X692150Y207962D02*
G54D13*
D03*
X738188Y182562D02*
G54D13*
D03*
X717550Y212725D02*
G54D13*
D03*
X738188Y223838D02*
G54D13*
D03*
X757238Y223838D02*
G54D13*
D03*
X757238Y192088D02*
G54D13*
D03*
X952500Y271462D02*
G54D13*
D03*
X839788Y242888D02*
G54D13*
D03*
X877888Y304800D02*
G54D13*
D03*
X819150Y273050D02*
G54D13*
D03*
X782638Y327025D02*
G54D13*
D03*
X631825Y381000D02*
G54D13*
D03*
X569912Y355600D02*
G54D13*
D03*
X477838Y385762D02*
G54D13*
D03*
X476250Y371475D02*
G54D13*
D03*
X485775Y344488D02*
G54D13*
D03*
X504825Y323850D02*
G54D13*
D03*
X511175Y344488D02*
G54D13*
D03*
X407988Y317500D02*
G54D13*
D03*
X398462Y369888D02*
G54D13*
D03*
X290512Y293688D02*
G54D13*
D03*
X241300Y303212D02*
G54D13*
D03*
X204788Y315912D02*
G54D13*
D03*
X569912Y334962D02*
G54D13*
D03*
X963612Y479425D02*
G54D13*
D03*
X830262Y374650D02*
G54D13*
D03*
X839788Y401638D02*
G54D13*
D03*
X839788Y431800D02*
G54D13*
D03*
X819150Y482600D02*
G54D13*
D03*
X874712Y482600D02*
G54D13*
D03*
X830262Y517525D02*
G54D13*
D03*
X650875Y415925D02*
G54D13*
D03*
X749300Y400050D02*
G54D13*
D03*
X692150Y407988D02*
G54D13*
D03*
X631825Y404812D02*
G54D13*
D03*
X509588Y412750D02*
G54D13*
D03*
X509588Y436562D02*
G54D13*
D03*
X504825Y457200D02*
G54D13*
D03*
X477838Y442912D02*
G54D13*
D03*
X473075Y487362D02*
G54D13*
D03*
X406400Y441325D02*
G54D13*
D03*
X403225Y460375D02*
G54D13*
D03*
X407988Y415925D02*
G54D13*
D03*
X398462Y403225D02*
G54D13*
D03*
X285750Y479425D02*
G54D13*
D03*
X279400Y493712D02*
G54D13*
D03*
X150812Y568325D02*
G54D13*
D03*
X184150Y579438D02*
G54D13*
D03*
X258762Y568325D02*
G54D13*
D03*
X285750Y579438D02*
G54D13*
D03*
X285750Y603250D02*
G54D13*
D03*
X290512Y619125D02*
G54D13*
D03*
X315912Y568325D02*
G54D13*
D03*
X355600Y561975D02*
G54D13*
D03*
X336550Y609600D02*
G54D13*
D03*
X398462Y650875D02*
G54D13*
D03*
X438150Y639762D02*
G54D13*
D03*
X488950Y577850D02*
G54D13*
D03*
X479425Y644525D02*
G54D13*
D03*
X454025Y649288D02*
G54D13*
D03*
X509588Y614362D02*
G54D13*
D03*
X534988Y619125D02*
G54D13*
D03*
X530225Y568325D02*
G54D13*
D03*
X530225Y530225D02*
G54D13*
D03*
X519112Y496888D02*
G54D13*
D03*
X503238Y496888D02*
G54D13*
D03*
X530225Y549275D02*
G54D13*
D03*
X209550Y644525D02*
G54D13*
D03*
X236538Y685800D02*
G54D13*
D03*
X260350Y669925D02*
G54D13*
D03*
X290512Y681038D02*
G54D13*
D03*
X377830Y711200D02*
G54D13*
D03*
X438150Y736600D02*
G54D13*
D03*
X450850Y746125D02*
G54D13*
D03*
X433388Y750888D02*
G54D13*
D03*
X523875Y750888D02*
G54D13*
D03*
X550862Y492125D02*
G54D13*
D03*
X579438Y484188D02*
G54D13*
D03*
X623888Y492125D02*
G54D13*
D03*
X598488Y533400D02*
G54D13*
D03*
X565150Y549275D02*
G54D13*
D03*
X569912Y588962D02*
G54D13*
D03*
X581025Y620712D02*
G54D13*
D03*
X646112Y581025D02*
G54D13*
D03*
X723900Y588962D02*
G54D13*
D03*
X793750Y590550D02*
G54D13*
D03*
X731838Y663575D02*
G54D13*
D03*
X701675Y677862D02*
G54D13*
D03*
X614362Y661988D02*
G54D13*
D03*
X620712Y695325D02*
G54D13*
D03*
X565150Y727075D02*
G54D13*
D03*
X565150Y757238D02*
G54D13*
D03*
X590550Y766762D02*
G54D13*
D03*
X606425Y749300D02*
G54D13*
D03*
X611188Y593725D02*
G54D13*
D03*
X1011238Y549275D02*
G54D13*
D03*
X901700Y565150D02*
G54D13*
D03*
X911225Y655638D02*
G54D13*
D03*
X250825Y817562D02*
G54D13*
D03*
X276225Y833438D02*
G54D13*
D03*
X339725Y814388D02*
G54D13*
D03*
X471488Y854075D02*
G54D13*
D03*
X501650Y842962D02*
G54D13*
D03*
X539750Y842962D02*
G54D13*
D03*
X654050Y838200D02*
G54D13*
D03*
X717550Y842962D02*
G54D13*
D03*
X844550Y854075D02*
G54D13*
D03*
X768350Y909638D02*
G54D13*
D03*
X674688Y914400D02*
G54D13*
D03*
X717550Y944562D02*
G54D13*
D03*
X352425Y923925D02*
G54D13*
D03*
X879475Y842962D02*
G54D13*
D03*
X850900Y469900D02*
G54D11*
D03*
X846138Y182560D02*
G54D11*
D03*
X800100Y184150D02*
G54D11*
D03*
G54D12*
X374650Y876300D02*
X374650Y908050D01*
X400050Y933450D01*
G54D12*
X400050Y876300D02*
X400050Y898525D01*
X425450Y923925D01*
X425450Y933450D01*
G54D12*
X425450Y876300D02*
X425450Y898525D01*
X450850Y923925D01*
X450850Y933450D01*
G54D12*
X450850Y876300D02*
X450850Y898525D01*
X476250Y923925D01*
X476250Y933450D01*
G54D12*
X476250Y876300D02*
X476250Y885825D01*
X501650Y911225D01*
X501650Y933450D01*
G54D12*
X501650Y876300D02*
X527050Y901700D01*
X527050Y933450D01*
G54D12*
X527050Y876300D02*
X533400Y882650D01*
X533400Y914400D01*
X552450Y933450D01*
G54D12*
X501650Y768350D02*
X514350Y781050D01*
X533400Y781050D01*
X539750Y774700D01*
G54D12*
X514350Y781050D02*
X514350Y841375D01*
X539750Y866775D01*
X539750Y898525D01*
X565150Y923925D01*
X565150Y939800D01*
X558800Y946150D01*
X520700Y946150D01*
X508000Y958850D01*
X501650Y958850D01*
G54D12*
X501650Y800100D02*
X501650Y842962D01*
G54D12*
X552450Y768350D02*
X552450Y774700D01*
X539750Y787400D01*
X539750Y842962D01*
G54D12*
X476250Y800100D02*
X476250Y849312D01*
X471488Y854075D01*
G54D12*
X476250Y768350D02*
X476250Y781050D01*
X463550Y793750D01*
X463550Y841375D01*
X457200Y847725D01*
X457200Y857250D01*
X463550Y863600D01*
X463550Y889000D01*
X488950Y914400D01*
X488950Y939800D01*
X482600Y946150D01*
X468312Y946150D01*
X463550Y950912D01*
X463550Y965200D01*
X469900Y971550D01*
X514350Y971550D01*
X527050Y958850D01*
G54D12*
X476250Y958850D02*
X482600Y958850D01*
X495300Y946150D01*
X509588Y946150D01*
X514350Y941388D01*
X514350Y911225D01*
X488950Y885825D01*
X488950Y704850D01*
X501650Y692150D01*
X488950Y679450D01*
X488950Y577850D01*
G54D12*
X349250Y768350D02*
X349250Y800100D01*
G54D12*
X315912Y568325D02*
X314325Y568325D01*
X311150Y571500D01*
X311150Y628650D01*
X336550Y654050D01*
X336550Y787400D01*
X323850Y800100D01*
G54D12*
X374650Y666750D02*
X361950Y679450D01*
X361950Y742950D01*
X349250Y755650D01*
X349250Y768350D01*
G54D12*
X374650Y692150D02*
X368300Y698500D01*
X368300Y755650D01*
X361950Y762000D01*
X361950Y965200D01*
X368300Y971550D01*
X387350Y971550D01*
X400050Y958850D01*
G54D12*
X412750Y752475D02*
X412750Y774700D01*
X401638Y785812D01*
X395288Y785812D01*
X387350Y793750D01*
X387350Y898525D01*
X412750Y923925D01*
X412750Y946150D01*
X425450Y958850D01*
G54D12*
X433388Y750888D02*
X438150Y755650D01*
X438150Y774700D01*
X427038Y785812D01*
X420688Y785812D01*
X412750Y793750D01*
X412750Y895350D01*
X438150Y920750D01*
X438150Y968375D01*
X447675Y977900D01*
X533400Y977900D01*
X552450Y958850D01*
G54D12*
X438150Y806450D02*
X438150Y898525D01*
X463550Y923925D01*
G54D12*
X463550Y923925D02*
X463550Y939800D01*
X450850Y952500D01*
X450850Y958850D01*
G54D12*
X552450Y876300D02*
X577850Y901700D01*
X577850Y933450D01*
G54D12*
X590550Y766762D02*
X585788Y771525D01*
X585788Y784225D01*
X582612Y787400D01*
X582612Y892175D01*
X585788Y895350D01*
X585788Y919162D01*
X590550Y923925D01*
X590550Y946150D01*
X577850Y958850D01*
G54D12*
X476250Y666750D02*
X463550Y679450D01*
X463550Y749300D01*
X450850Y762000D01*
X450850Y768350D01*
G54D12*
X476250Y692150D02*
X476250Y747712D01*
X463550Y760412D01*
X463550Y777875D01*
X455612Y785812D01*
X446088Y785812D01*
X438150Y793750D01*
X438150Y806450D01*
G54D12*
X400050Y666750D02*
X400050Y673100D01*
X387350Y685800D01*
X387350Y781050D01*
X374650Y793750D01*
X374650Y800100D01*
G54D12*
X374650Y768350D02*
X374650Y714375D01*
X377825Y711200D01*
G54D12*
X349250Y590550D02*
X349250Y615950D01*
X387350Y654050D01*
X387350Y676275D01*
X374650Y688975D01*
X374650Y692150D01*
G54D12*
X425450Y590550D02*
X412750Y577850D01*
X393700Y577850D01*
X387350Y584200D01*
X387350Y623888D01*
X412750Y649288D01*
X412750Y674688D01*
X400050Y687388D01*
X400050Y692150D01*
G54D12*
X400050Y590550D02*
X400050Y622300D01*
X438150Y660400D01*
X438150Y674688D01*
X425450Y687388D01*
X425450Y692150D01*
G54D12*
X450850Y666750D02*
X450850Y673100D01*
X438150Y685800D01*
X438150Y736600D01*
G54D12*
X450850Y692150D02*
X450850Y746125D01*
G54D12*
X425450Y666750D02*
X425450Y673100D01*
X412750Y685800D01*
X412750Y730250D01*
X433388Y750888D01*
G54D12*
X400050Y692150D02*
X400050Y739775D01*
X412750Y752475D01*
G54D14*
X41275Y978215D02*
X51942Y978215D01*
X41275Y960438D01*
X51942Y960438D01*
G54D14*
X56831Y968215D02*
X67498Y968215D01*
G54D14*
X83054Y963771D02*
X81720Y961549D01*
X79054Y960438D01*
X76387Y960438D01*
X73720Y961549D01*
X72387Y963771D01*
X72387Y974882D01*
X73720Y977104D01*
X76387Y978215D01*
X79054Y978215D01*
X81720Y977104D01*
X83054Y974882D01*
G54D14*
X95943Y963104D02*
X95943Y967549D01*
X94610Y969771D01*
X91943Y970438D01*
X89276Y969771D01*
X87943Y967549D01*
X87943Y963104D01*
X89276Y960882D01*
X91943Y960438D01*
X94610Y960882D01*
X95943Y963104D01*
G54D14*
X100832Y960438D02*
X100832Y970438D01*
G54D14*
X100832Y968215D02*
X102165Y969771D01*
X104832Y970438D01*
X107499Y969771D01*
X108832Y968215D01*
X108832Y960438D01*
G54D14*
X116388Y978215D02*
X116388Y961549D01*
X117721Y960438D01*
X119054Y960882D01*
G54D14*
X113721Y970438D02*
X119054Y970438D01*
G54D14*
X123943Y960438D02*
X123943Y970438D01*
G54D14*
X123943Y968215D02*
X126610Y970438D01*
X129276Y970438D01*
G54D14*
X142165Y963104D02*
X142165Y967549D01*
X140832Y969771D01*
X138165Y970438D01*
X135498Y969771D01*
X134165Y967549D01*
X134165Y963104D01*
X135498Y960882D01*
X138165Y960438D01*
X140832Y960882D01*
X142165Y963104D01*
G54D14*
X147054Y960438D02*
X147054Y978215D01*
G54D14*
X151943Y960438D02*
X151943Y978215D01*
G54D14*
X164832Y961549D02*
X162699Y960438D01*
X160032Y960438D01*
X157365Y961549D01*
X156832Y963771D01*
X156832Y967549D01*
X158165Y969771D01*
X160832Y970438D01*
X163499Y969771D01*
X164832Y968215D01*
X164832Y965993D01*
X156832Y965993D01*
G54D14*
X169721Y960438D02*
X169721Y970438D01*
G54D14*
X169721Y968215D02*
X172388Y970438D01*
X175054Y970438D01*
G54D14*
X185099Y960438D02*
X185099Y978215D01*
G54D14*
X185099Y967549D02*
X186432Y969771D01*
X189099Y970438D01*
X191766Y969771D01*
X193099Y967549D01*
X193099Y963104D01*
X191766Y960882D01*
X189099Y960438D01*
X186432Y960882D01*
X185099Y963104D01*
G54D14*
X197988Y970438D02*
X203321Y960438D01*
X208655Y970438D01*
G54D14*
X203321Y960438D02*
X201988Y957104D01*
X200655Y955993D01*
X199321Y955993D01*
G54D14*
X218700Y960438D02*
X218700Y978215D01*
G54D14*
X218700Y965993D02*
X229367Y978215D01*
G54D14*
X222700Y969326D02*
X229367Y960438D01*
G54D14*
X244923Y974882D02*
X244923Y963771D01*
X243589Y961549D01*
X240923Y960438D01*
X238256Y960438D01*
X235589Y961549D01*
X234256Y963771D01*
X234256Y974882D01*
X235589Y977104D01*
X238256Y978215D01*
X240923Y978215D01*
X243589Y977104D01*
X244923Y974882D01*
G54D14*
X259145Y960438D02*
X249812Y960438D01*
X249812Y978215D01*
X259145Y978215D01*
G54D14*
X249812Y969326D02*
X259145Y969326D01*
G54D14*
X31750Y946465D02*
X31750Y928688D01*
X41083Y928688D01*
G54D14*
X45972Y928688D02*
X45972Y938688D01*
G54D14*
X45972Y942021D02*
X45972Y942021D01*
G54D14*
X50861Y928688D02*
X50861Y946465D01*
G54D14*
X50861Y935799D02*
X52194Y938021D01*
X54861Y938688D01*
X57528Y938021D01*
X58861Y935799D01*
X58861Y931354D01*
X57528Y929132D01*
X54861Y928688D01*
X52194Y929132D01*
X50861Y931354D01*
G54D14*
X71750Y929799D02*
X69617Y928688D01*
X66950Y928688D01*
X64283Y929799D01*
X63750Y932021D01*
X63750Y935799D01*
X65083Y938021D01*
X67750Y938688D01*
X70417Y938021D01*
X71750Y936465D01*
X71750Y934243D01*
X63750Y934243D01*
G54D14*
X76639Y928688D02*
X76639Y938688D01*
G54D14*
X76639Y936465D02*
X79306Y938688D01*
X81972Y938688D01*
G54D14*
X86861Y937576D02*
X89528Y938688D01*
X92728Y938688D01*
X94861Y936465D01*
X94861Y928688D01*
G54D14*
X94861Y932021D02*
X93528Y934243D01*
X90861Y934688D01*
X88194Y934243D01*
X86861Y932021D01*
X87394Y929799D01*
X89528Y928688D01*
X90861Y928688D01*
X91394Y928688D01*
X93528Y929799D01*
X94861Y932021D01*
G54D14*
X102417Y946465D02*
X102417Y929799D01*
X103750Y928688D01*
X105083Y929132D01*
G54D14*
X99750Y938688D02*
X105083Y938688D01*
G54D14*
X117972Y929799D02*
X115839Y928688D01*
X113172Y928688D01*
X110505Y929799D01*
X109972Y932021D01*
X109972Y935799D01*
X111305Y938021D01*
X113972Y938688D01*
X116639Y938021D01*
X117972Y936465D01*
X117972Y934243D01*
X109972Y934243D01*
G54D14*
X130861Y928688D02*
X130861Y946465D01*
G54D14*
X130861Y935799D02*
X129528Y938021D01*
X126861Y938688D01*
X124194Y938021D01*
X122861Y935799D01*
X122861Y931354D01*
X124194Y929132D01*
X126861Y928688D01*
X129528Y929132D01*
X130861Y931354D01*
G54D14*
X140906Y928688D02*
X140906Y946465D01*
G54D14*
X140906Y935799D02*
X142239Y938021D01*
X144906Y938688D01*
X147573Y938021D01*
X148906Y935799D01*
X148906Y931354D01*
X147573Y929132D01*
X144906Y928688D01*
X142239Y929132D01*
X140906Y931354D01*
G54D14*
X153795Y938688D02*
X159128Y928688D01*
X164462Y938688D01*
G54D14*
X159128Y928688D02*
X157795Y925354D01*
X156462Y924243D01*
X155128Y924243D01*
G54D14*
X174507Y929799D02*
X177174Y928688D01*
X179840Y928688D01*
X182507Y929799D01*
X182507Y932021D01*
X181174Y933132D01*
X175840Y934243D01*
X174507Y935354D01*
X174507Y937576D01*
X177174Y938688D01*
X179840Y938688D01*
X182507Y937576D01*
G54D14*
X187396Y928688D02*
X187396Y946465D01*
G54D14*
X187396Y935799D02*
X188729Y938021D01*
X191396Y938688D01*
X194063Y938021D01*
X195396Y935799D01*
X195396Y928688D01*
G54D14*
X208285Y931354D02*
X208285Y935799D01*
X206952Y938021D01*
X204285Y938688D01*
X201618Y938021D01*
X200285Y935799D01*
X200285Y931354D01*
X201618Y929132D01*
X204285Y928688D01*
X206952Y929132D01*
X208285Y931354D01*
G54D14*
X219841Y938021D02*
X217174Y938688D01*
X214507Y938021D01*
X213174Y935799D01*
X213174Y931354D01*
X214507Y929132D01*
X217174Y928688D01*
X219841Y929132D01*
G54D14*
X224730Y928688D02*
X224730Y946465D01*
G54D14*
X228730Y935354D02*
X232730Y928688D01*
G54D14*
X224730Y933132D02*
X232730Y938688D01*
G54D14*
X237619Y928688D02*
X250952Y928688D01*
G54D14*
X255841Y928688D02*
X269174Y928688D01*
G54D12*
X236538Y685800D02*
X250825Y700088D01*
X250825Y817562D01*
G54D12*
X211138Y838200D02*
X211138Y836612D01*
X225425Y822325D01*
X225425Y708025D01*
X209550Y692150D01*
X209550Y666750D01*
G54D12*
X225425Y661988D02*
X225425Y695325D01*
X244475Y714375D01*
X244475Y752475D01*
X234950Y762000D01*
X234950Y822325D01*
X255588Y842962D01*
X255588Y858838D01*
X311150Y914400D01*
X342900Y914400D01*
X352425Y923925D01*
G54D12*
X233362Y846138D02*
X371475Y984250D01*
X673100Y984250D01*
X692150Y965200D01*
X692150Y928688D01*
X717550Y903288D01*
X717550Y842962D01*
G54D12*
X698500Y774700D02*
X720725Y774700D01*
X730250Y784225D01*
X730250Y800100D01*
G54D12*
X730250Y800100D02*
X730250Y812800D01*
X692150Y850900D01*
X692150Y920750D01*
X679450Y933450D01*
G54D12*
X679450Y876300D02*
X679450Y909638D01*
X674688Y914400D01*
G54D12*
X606425Y749300D02*
X611188Y754062D01*
X611188Y788988D01*
G54D12*
X641350Y744538D02*
X641350Y839788D01*
X666750Y865188D01*
X666750Y893762D01*
X654050Y906462D01*
X654050Y933450D01*
G54D12*
X654050Y800100D02*
X654050Y838200D01*
G54D12*
X611188Y788988D02*
X611188Y806450D01*
X630238Y825500D01*
X630238Y838200D01*
X636588Y844550D01*
X636588Y858838D01*
X654050Y876300D01*
G54D12*
X806450Y958850D02*
X801688Y958850D01*
X788988Y946150D01*
X749300Y946150D01*
X742950Y939800D01*
X742950Y889000D01*
X730250Y876300D01*
G54D12*
X781050Y933450D02*
X781050Y876300D01*
G54D12*
X831850Y876300D02*
X831850Y908050D01*
X806450Y933450D01*
G54D12*
X831850Y800100D02*
X819150Y812800D01*
X819150Y852488D01*
X830262Y863600D01*
X839788Y863600D01*
X844550Y868362D01*
X844550Y920750D01*
X831850Y933450D01*
G54D12*
X844550Y920750D02*
X889000Y920750D01*
X911225Y898525D01*
X911225Y879475D01*
G54D12*
X781050Y800100D02*
X793750Y812800D01*
X793750Y939800D01*
X800100Y946150D01*
X819150Y946150D01*
X831850Y958850D01*
G54D12*
X952500Y679450D02*
X979488Y706438D01*
X979488Y808038D01*
X996950Y825500D01*
G54D12*
X952500Y704850D02*
X962025Y704850D01*
X971550Y714375D01*
X971550Y825500D01*
X996950Y850900D01*
G54D12*
X939800Y668338D02*
X939800Y714375D01*
X942975Y717550D01*
X960438Y717550D01*
X965200Y722312D01*
X965200Y792162D01*
X936625Y820738D01*
X936625Y939800D01*
X915988Y960438D01*
X876300Y960438D01*
X865188Y971550D01*
X723900Y971550D01*
X717550Y965200D01*
X717550Y944562D01*
G54D12*
X879475Y842962D02*
X879475Y833438D01*
X901700Y811212D01*
X901700Y790575D01*
X895350Y784225D01*
X895350Y746125D01*
X925512Y715962D01*
X925512Y585788D01*
X904875Y565150D01*
G54D12*
X939800Y552450D02*
X939800Y577850D01*
X996950Y635000D01*
G54D12*
X996950Y606425D02*
X996950Y584200D01*
X965200Y552450D01*
G54D12*
X1011238Y549275D02*
X1011238Y641350D01*
X993775Y658812D01*
X949325Y658812D01*
X939800Y668338D01*
G54D12*
X882650Y635000D02*
X882650Y639762D01*
X895350Y652462D01*
X895350Y673100D01*
X882650Y685800D01*
G54D12*
X882650Y736600D02*
X882650Y711200D01*
G54D12*
X850900Y506412D02*
X850900Y596900D01*
X857250Y603250D01*
X857250Y635000D01*
X869950Y647700D01*
G54D12*
X839788Y433388D02*
X839788Y401638D01*
G54D12*
X839788Y304800D02*
X839788Y384175D01*
X830262Y393700D01*
X830262Y442912D01*
X835025Y447675D01*
X835025Y490538D01*
X850900Y506412D01*
G54D12*
X830262Y374650D02*
X828675Y374650D01*
X823912Y379412D01*
X823912Y454025D01*
X828675Y458788D01*
X828675Y515938D01*
X830262Y517525D01*
G54D12*
X777875Y454025D02*
X781050Y457200D01*
X812800Y457200D01*
X819150Y463550D01*
X819150Y482600D01*
G54D12*
X752475Y368300D02*
X752475Y384175D01*
X777875Y409575D01*
X777875Y454025D01*
G54D12*
X725488Y300038D02*
X749300Y323850D01*
G54D12*
X717550Y273050D02*
X736600Y292100D01*
X736600Y303212D01*
X744538Y311150D01*
X757238Y311150D01*
X762000Y315912D01*
X762000Y333375D01*
X739775Y355600D01*
X739775Y390525D01*
X749300Y400050D01*
G54D12*
X609600Y292100D02*
X641350Y323850D01*
X666750Y323850D01*
X673100Y330200D01*
X673100Y344488D01*
X681038Y352425D01*
X681038Y430212D01*
X666750Y444500D01*
G54D12*
X692150Y407988D02*
X695325Y404812D01*
X695325Y361950D01*
X695325Y358775D01*
G54D12*
X793750Y590550D02*
X793750Y723900D01*
X781050Y736600D01*
G54D12*
X806450Y711200D02*
X806450Y736600D01*
G54D12*
X806450Y635000D02*
X806450Y660400D01*
G54D12*
X781050Y660400D02*
X768350Y673100D01*
X768350Y701675D01*
X781050Y714375D01*
G54D12*
X781050Y714375D02*
X779462Y714375D01*
X773112Y720725D01*
X762000Y720725D01*
X755650Y727075D01*
G54D12*
X733425Y596900D02*
X733425Y641350D01*
X742950Y650875D01*
X742950Y688975D01*
X755650Y701675D01*
G54D12*
X723900Y588962D02*
X723900Y652462D01*
X720725Y655638D01*
X720725Y765175D01*
X755650Y800100D01*
G54D12*
X842962Y658812D02*
X842962Y768350D01*
X849312Y774700D01*
X849312Y787400D01*
X844550Y792162D01*
X844550Y854075D01*
G54D12*
X869950Y781050D02*
X869950Y798512D01*
G54D15*
X863600Y552450D02*
X863600Y590550D01*
G54D15*
X911225Y590550D02*
X911225Y606425D01*
X911225Y635000D01*
G54D15*
X911225Y655638D02*
X896938Y641350D01*
X896938Y595312D01*
X876300Y574675D01*
X876300Y528638D01*
X863600Y515938D01*
G54D15*
X914400Y508000D02*
X914400Y552450D01*
X914400Y565150D01*
X933450Y584200D01*
X933450Y730250D01*
G54D15*
X1054100Y666750D02*
X1054100Y685800D01*
X1009650Y730250D01*
G54D15*
X1054100Y590550D02*
X1031875Y612775D01*
X1031875Y631825D01*
X993775Y669925D01*
X993775Y781050D01*
G54D15*
X1009650Y730250D02*
X1009650Y806450D01*
X1054100Y850900D01*
G54D15*
X996950Y879475D02*
X981075Y895350D01*
X981075Y911225D01*
X1009650Y939800D01*
X1009650Y971550D01*
G54D15*
X911225Y781050D02*
X911225Y825500D01*
X911225Y850900D01*
G54D15*
X889000Y885825D02*
X889000Y873125D01*
X911225Y850900D01*
G54D15*
X857250Y800100D02*
X857250Y762000D01*
X857250Y698500D01*
G54D15*
X835025Y781050D02*
X833438Y625475D01*
X838200Y620712D01*
X838200Y609600D01*
G54D15*
X731838Y663575D02*
X731838Y750888D01*
X768350Y787400D01*
X768350Y909638D01*
G54D15*
X781050Y574675D02*
X781050Y609600D01*
X781050Y625475D01*
X755650Y650875D01*
G54D15*
X749300Y517525D02*
X741362Y525462D01*
X741362Y636588D01*
X755650Y650875D01*
G54D15*
X698500Y517525D02*
X698500Y631825D01*
X679450Y650875D01*
G54D15*
X622300Y546100D02*
X622300Y600075D01*
X596900Y625475D01*
G54D12*
X666750Y627062D02*
X666750Y657225D01*
X673100Y663575D01*
X687388Y663575D01*
X692150Y668338D01*
X692150Y739775D01*
X679450Y752475D01*
G54D12*
X611188Y490538D02*
X611188Y496888D01*
X625475Y511175D01*
X661988Y511175D01*
X692150Y541338D01*
X692150Y581025D01*
X685800Y587375D01*
X674688Y587375D01*
X666750Y595312D01*
X666750Y627062D01*
G54D12*
X654050Y631825D02*
X654050Y652462D01*
X666750Y665162D01*
X666750Y671512D01*
X669925Y674688D01*
G54D12*
X679450Y676275D02*
X671512Y676275D01*
X669925Y674688D01*
G54D12*
X628650Y669925D02*
X628650Y682625D01*
X647700Y701675D01*
X679450Y701675D01*
G54D12*
X620712Y695325D02*
X627062Y695325D01*
X666750Y735012D01*
X666750Y768350D01*
X698500Y800100D01*
X704850Y800100D01*
G54D12*
X622300Y631825D02*
X622300Y654050D01*
X614362Y661988D01*
G54D12*
X679450Y574675D02*
X650875Y574675D01*
X646112Y579438D01*
G54D12*
X569912Y588962D02*
X565150Y593725D01*
X565150Y631825D01*
X569912Y636588D01*
X577850Y636588D01*
X584200Y642938D01*
X584200Y703262D01*
X592138Y711200D01*
X615950Y711200D01*
X641350Y736600D01*
X641350Y744538D01*
G54D12*
X819150Y566738D02*
X819150Y622300D01*
X806450Y635000D01*
G54D12*
X825500Y561975D02*
X825500Y766762D01*
X806450Y785812D01*
X806450Y800100D01*
G54D12*
X636588Y544512D02*
X636588Y596900D01*
X609600Y623888D01*
X609600Y650875D01*
X603250Y657225D01*
X603250Y668338D01*
X620712Y685800D01*
X620712Y695325D01*
G54D12*
X579438Y482600D02*
X579438Y563562D01*
X585788Y569912D01*
X585788Y614362D01*
X581025Y619125D01*
G54D12*
X611188Y593725D02*
X609600Y592138D01*
X609600Y544512D01*
X598488Y533400D01*
G54D12*
X596900Y682625D02*
X596900Y646112D01*
X581025Y630238D01*
X576262Y630238D01*
X571500Y625475D01*
X571500Y612775D01*
X579438Y604838D01*
X579438Y577850D01*
X565150Y563562D01*
X565150Y549275D01*
G54D12*
X623888Y492125D02*
X636588Y504825D01*
X709612Y504825D01*
X712788Y508000D01*
X712788Y568325D01*
X706438Y574675D01*
X706438Y660400D01*
X701675Y665162D01*
X701675Y677862D01*
G54D12*
X631825Y404812D02*
X631825Y438150D01*
X638175Y444500D01*
G54D12*
X733425Y596900D02*
X733425Y512762D01*
X719138Y498475D01*
X649288Y498475D01*
X641350Y490538D01*
X641350Y447675D01*
X638175Y444500D01*
G54D12*
X650875Y415925D02*
X652462Y417512D01*
X652462Y477838D01*
X666750Y492125D01*
X728662Y492125D01*
X735012Y498475D01*
X754062Y498475D01*
X819150Y563562D01*
X819150Y566738D01*
G54D12*
X752475Y454025D02*
X752475Y479425D01*
G54D12*
X765175Y454025D02*
X765175Y481012D01*
X841375Y557212D01*
X841375Y595312D01*
G54D12*
X725488Y452438D02*
X739775Y466725D01*
X739775Y485775D01*
X746125Y492125D01*
X760412Y492125D01*
X825500Y557212D01*
X825500Y561975D01*
G54D12*
X708025Y354012D02*
X708025Y434975D01*
X725488Y452438D01*
G54D12*
X704850Y290512D02*
X704850Y334962D01*
X733425Y363538D01*
X733425Y414338D01*
X765175Y446088D01*
X765175Y454025D01*
G54D12*
X641350Y304800D02*
X652462Y293688D01*
X692150Y293688D01*
X693738Y295275D01*
G54D12*
X708025Y354012D02*
X708025Y347662D01*
X698500Y338138D01*
X698500Y300038D01*
X693738Y295275D01*
G54D12*
X717550Y273050D02*
X717550Y257175D01*
X685800Y225425D01*
G54D12*
X660400Y250825D02*
X685800Y250825D01*
X685800Y260350D01*
X714375Y288925D01*
X714375Y304800D01*
X717550Y307975D01*
X717550Y323850D01*
G54D12*
X647700Y239712D02*
X647700Y265112D01*
X661988Y279400D01*
X693738Y279400D01*
X704850Y290512D01*
G54D12*
X660400Y225425D02*
X660400Y250825D01*
G54D12*
X658812Y196850D02*
X663575Y192088D01*
X681038Y192088D01*
X692150Y203200D01*
X692150Y207962D01*
G54D12*
X647700Y239712D02*
X647700Y193675D01*
X655638Y185738D01*
X685800Y185738D01*
X692150Y192088D01*
X708025Y192088D01*
X712788Y187325D01*
G54D12*
X571500Y238125D02*
X571500Y200025D01*
X576262Y195262D01*
X646112Y195262D01*
G54D12*
X738188Y182562D02*
X738188Y192088D01*
X717550Y212725D01*
G54D12*
X698500Y180975D02*
X703262Y176212D01*
X717550Y176212D01*
X722312Y180975D01*
X722312Y192088D01*
X704850Y209550D01*
X704850Y215900D01*
X711200Y222250D01*
X736600Y222250D01*
X738188Y223838D01*
G54D12*
X768350Y171450D02*
X768350Y212725D01*
X757238Y223838D01*
G54D12*
X742950Y166688D02*
X742950Y171450D01*
X757238Y185738D01*
X757238Y192088D01*
G54D12*
X921544Y238522D02*
X929878Y238522D01*
X935831Y244475D01*
X935831Y254794D01*
X952500Y271462D01*
G54D12*
X987425Y196850D02*
X1022350Y196850D01*
G54D12*
X839788Y242888D02*
X839788Y304800D01*
G54D12*
X819150Y273050D02*
X819150Y319088D01*
X814388Y323850D01*
X803275Y323850D01*
G54D12*
X877888Y304800D02*
X894556Y304800D01*
X906462Y292100D01*
X942975Y292100D01*
X949325Y298450D01*
G54D12*
X949325Y298450D02*
X949325Y310356D01*
X945356Y314325D01*
X945356Y372269D01*
X949325Y376238D01*
X949325Y428625D01*
X963612Y442912D01*
X963612Y479425D01*
G54D12*
X889000Y419100D02*
X899319Y429419D01*
X914400Y429419D01*
G54D12*
X889000Y444500D02*
X898525Y454025D01*
X912812Y454025D01*
G54D12*
X885825Y469900D02*
X906462Y490538D01*
X949325Y490538D01*
G54D12*
X913606Y404019D02*
X908050Y404019D01*
X905669Y406400D01*
X881062Y406400D01*
X871538Y415925D01*
X871538Y479425D01*
X874712Y482600D01*
G54D12*
X869950Y647700D02*
X869950Y863600D01*
X857250Y876300D01*
G54D15*
X901700Y196850D02*
X869950Y196850D01*
G54D15*
X876300Y228600D02*
X876300Y203200D01*
X869950Y196850D01*
G54D15*
X876300Y355600D02*
X866775Y346075D01*
X866775Y258762D01*
X876300Y249238D01*
X876300Y228600D01*
G54D15*
X863600Y212725D02*
X863600Y247650D01*
X857250Y254000D01*
X857250Y361950D01*
X863600Y368300D01*
X863600Y515938D01*
G54D15*
X850900Y228600D02*
X850900Y247650D01*
X847725Y250825D01*
X847725Y365125D01*
X852488Y369888D01*
X850900Y469900D01*
G54D15*
X714375Y234950D02*
X777875Y234950D01*
X800100Y212725D01*
X800100Y184150D01*
G54D15*
X850900Y228600D02*
X835025Y212725D01*
X800100Y212725D01*
G54D15*
X749300Y298450D02*
X768350Y279400D01*
X768350Y234950D01*
G54D15*
X863600Y212725D02*
X849312Y198438D01*
X841375Y198438D01*
X833438Y190500D01*
X833438Y182562D01*
X819150Y168275D01*
X819150Y158750D01*
G54D15*
X803275Y260350D02*
X803275Y288925D01*
G54D15*
X782638Y327025D02*
X782638Y309562D01*
X803275Y288925D01*
G54D15*
X777875Y368300D02*
X777875Y393700D01*
X803275Y419100D01*
G54D15*
X781050Y260350D02*
X781050Y285750D01*
X768350Y298450D01*
X768350Y358775D01*
X777875Y368300D01*
G54D15*
X782638Y327025D02*
X793750Y338138D01*
X793750Y352425D01*
X817562Y376238D01*
X817562Y430212D01*
X803275Y444500D01*
G54D15*
X914400Y508000D02*
X1050925Y508000D01*
X1062038Y496888D01*
X1073150Y496888D01*
G54D15*
X285750Y755650D02*
X285750Y781050D01*
X303212Y798512D01*
X303212Y855662D01*
X323850Y876300D01*
G54D15*
X323850Y666750D02*
X306388Y684212D01*
X306388Y750888D01*
X323850Y768350D01*
G54D15*
X285750Y806450D02*
X273050Y793750D01*
X273050Y717550D01*
X285750Y704850D01*
G54D15*
X241300Y508000D02*
X241300Y528638D01*
X254000Y541338D01*
X254000Y546100D01*
G54D15*
X254000Y546100D02*
X254000Y547688D01*
X273050Y566738D01*
X273050Y692150D01*
X285750Y704850D01*
G54D15*
X304800Y546100D02*
X303212Y547688D01*
X303212Y646112D01*
X323850Y666750D01*
G54D15*
X247650Y596900D02*
X247650Y622300D01*
X247650Y647700D01*
G54D15*
X565150Y412750D02*
X568325Y415925D01*
X568325Y504825D01*
X552450Y520700D01*
X552450Y590550D01*
X552450Y631825D01*
X571500Y650875D01*
X571500Y673100D01*
X552450Y692150D01*
X576262Y715962D01*
X576262Y776288D01*
X552450Y800100D01*
G54D15*
X596900Y733425D02*
X576262Y733425D01*
G54D15*
X596900Y209550D02*
X590550Y215900D01*
X590550Y374650D01*
X609600Y393700D01*
X642938Y393700D01*
X654050Y382588D01*
X654050Y342900D01*
X660400Y336550D01*
G54D15*
X450850Y184150D02*
X450850Y200025D01*
X447675Y203200D01*
X447675Y219075D01*
X439738Y227012D01*
X423862Y227012D01*
X419100Y231775D01*
X419100Y279400D01*
G54D15*
X368300Y279400D02*
X368300Y257175D01*
X381000Y244475D01*
X381000Y241300D01*
G54D15*
X247650Y180975D02*
X247650Y195262D01*
X241300Y201612D01*
X241300Y247650D01*
X254000Y260350D01*
X254000Y266700D01*
G54D15*
X158750Y180975D02*
X158750Y247650D01*
X165100Y254000D01*
G54D15*
X165100Y304800D02*
X165100Y355600D01*
X152400Y368300D01*
G54D15*
X177800Y546100D02*
X165100Y533400D01*
X165100Y381000D01*
X152400Y368300D01*
G54D15*
X398462Y477838D02*
X393700Y482600D01*
X393700Y498475D01*
X403225Y508000D01*
X439738Y508000D01*
X444500Y503238D01*
X444500Y457200D01*
X457200Y444500D01*
X444500Y431800D01*
X444500Y279400D01*
X431800Y266700D01*
G54D15*
X419100Y279400D02*
X419100Y330200D01*
X431800Y342900D01*
G54D15*
X406400Y495300D02*
X419100Y482600D01*
X419100Y355600D01*
X431800Y342900D01*
G54D15*
X190500Y508000D02*
X190500Y482600D01*
X177800Y469900D01*
G54D15*
X190500Y279400D02*
X190500Y457200D01*
X177800Y469900D01*
G54D15*
X936625Y379412D02*
X936625Y304800D01*
G54D15*
X876300Y355600D02*
X905669Y355600D01*
X907256Y354012D01*
X914400Y354012D01*
G54D12*
X692150Y160338D02*
X692150Y168275D01*
X681038Y179388D01*
X644525Y179388D01*
X635000Y188912D01*
X569912Y188912D01*
X565150Y193675D01*
X565150Y228600D01*
X560388Y233362D01*
X560388Y268288D01*
X555625Y273050D01*
G54D12*
X581025Y207962D02*
X581025Y242888D01*
X566738Y257175D01*
X566738Y331788D01*
X569912Y334962D01*
G54D12*
X576262Y263525D02*
X581025Y268288D01*
X581025Y374650D01*
X596900Y390525D01*
X596900Y407988D01*
X611188Y422275D01*
X611188Y490538D01*
G54D12*
X533400Y266700D02*
X533400Y268288D01*
X558800Y293688D01*
X558800Y344488D01*
X569912Y355600D01*
G54D12*
X628650Y177800D02*
X623888Y182562D01*
X565150Y182562D01*
X558800Y188912D01*
X558800Y220662D01*
X554038Y225425D01*
X554038Y244475D01*
X544512Y254000D01*
X527050Y254000D01*
X520700Y260350D01*
X520700Y325438D01*
X525462Y330200D01*
X541338Y330200D01*
X546100Y334962D01*
X546100Y361950D01*
X584200Y400050D01*
X584200Y442912D01*
G54D15*
X546100Y209550D02*
X546100Y228600D01*
X533400Y241300D01*
G54D12*
X565150Y152400D02*
X565150Y169862D01*
X552450Y182562D01*
X511175Y182562D01*
X498475Y195262D01*
X498475Y217488D01*
X493712Y222250D01*
X493712Y260350D01*
X495300Y261938D01*
X495300Y277812D01*
X488950Y284162D01*
X488950Y304800D01*
X485775Y307975D01*
X485775Y344488D01*
G54D12*
X498475Y304800D02*
X501650Y301625D01*
X501650Y261938D01*
X500062Y260350D01*
X500062Y225425D01*
X509588Y215900D01*
X509588Y212725D01*
G54D12*
X519112Y192088D02*
X519112Y220662D01*
X506412Y233362D01*
X506412Y260350D01*
X508000Y261938D01*
X508000Y311150D01*
X504825Y314325D01*
X500062Y314325D01*
X495300Y319088D01*
X495300Y355600D01*
X500062Y360362D01*
X500062Y452438D01*
X504825Y457200D01*
G54D12*
X504825Y323850D02*
X501650Y327025D01*
X501650Y352425D01*
X506412Y357188D01*
X506412Y409575D01*
X509588Y412750D01*
G54D12*
X509588Y344488D02*
X512762Y347662D01*
X512762Y400050D01*
X519112Y406400D01*
X519112Y427038D01*
X509588Y436562D01*
G54D12*
X457200Y342900D02*
X458788Y342900D01*
X469900Y354012D01*
X484188Y354012D01*
X493712Y363538D01*
X493712Y466725D01*
X500062Y473075D01*
X515938Y473075D01*
X530225Y487362D01*
X530225Y533400D01*
G54D12*
X503238Y496888D02*
X520700Y514350D01*
X520700Y539750D01*
X530225Y549275D01*
G54D12*
X514350Y238125D02*
X514350Y333375D01*
X520700Y339725D01*
X520700Y398462D01*
X531812Y409575D01*
X531812Y454025D01*
X539750Y461962D01*
X539750Y600075D01*
X501650Y638175D01*
X501650Y666750D01*
G54D12*
X527050Y666750D02*
X539750Y679450D01*
X539750Y774700D01*
G54D12*
X527050Y692150D02*
X527050Y747712D01*
X523875Y750888D01*
G54D12*
X534988Y620712D02*
X514350Y641350D01*
G54D12*
X514350Y641350D02*
X514350Y676275D01*
X527050Y688975D01*
X527050Y692150D01*
G54D12*
X501650Y666750D02*
X501650Y674688D01*
X514350Y687388D01*
X514350Y755650D01*
X527050Y768350D01*
G54D12*
X533400Y368300D02*
X550862Y385762D01*
X550862Y420688D01*
X560388Y430212D01*
X560388Y482600D01*
X550862Y492125D01*
G54D12*
X533400Y319088D02*
X544512Y319088D01*
X552450Y327025D01*
X552450Y358775D01*
X590550Y395288D01*
X590550Y439738D01*
X596900Y446088D01*
G54D12*
X584200Y442912D02*
X584200Y469900D01*
X601662Y487362D01*
X601662Y520700D01*
X611188Y530225D01*
X623888Y530225D01*
X636588Y542925D01*
X636588Y544512D01*
G54D12*
X609600Y317500D02*
X609600Y342900D01*
X627062Y360362D01*
X636588Y360362D01*
X638175Y358775D01*
G54D12*
X609600Y368300D02*
X619125Y368300D01*
X631825Y381000D01*
G54D12*
X539750Y160338D02*
X539750Y173038D01*
X536575Y176212D01*
X508000Y176212D01*
X504825Y179388D01*
X490538Y179388D01*
X487362Y182562D01*
X487362Y209550D01*
G54D12*
X514350Y165100D02*
X514350Y169862D01*
X504825Y169862D01*
X501650Y173038D01*
X482600Y173038D01*
X474662Y180975D01*
X474662Y246062D01*
X485775Y257175D01*
X485775Y266700D01*
G54D12*
X477838Y385762D02*
X477838Y398462D01*
X457200Y419100D01*
G54D12*
X457200Y469900D02*
X473075Y487362D01*
G54D12*
X476250Y369888D02*
X476250Y371475D01*
X473075Y374650D01*
X457200Y390525D01*
X457200Y393700D01*
G54D12*
X457200Y368300D02*
X465138Y360362D01*
X481012Y360362D01*
X487362Y368300D01*
X487362Y468312D01*
X503238Y484188D01*
X511175Y484188D01*
X519112Y492125D01*
X519112Y496888D01*
G54D12*
X477838Y442912D02*
X477838Y471488D01*
X485775Y479425D01*
X485775Y493712D01*
X481012Y498475D01*
G54D12*
X481012Y498475D02*
X460375Y498475D01*
X457200Y495300D01*
G54D12*
X406400Y444500D02*
X406400Y457200D01*
X403225Y460375D01*
G54D12*
X377825Y177800D02*
X379412Y176212D01*
X377825Y177800D01*
X425450Y177800D01*
X433388Y185738D01*
X433388Y211138D01*
X430212Y214312D01*
X411162Y214312D01*
X406400Y219075D01*
X400050Y219075D01*
X400050Y225425D01*
X393700Y231775D01*
X393700Y254000D01*
X381000Y266700D01*
G54D12*
X438150Y152400D02*
X438150Y168275D01*
X442912Y173038D01*
X455612Y173038D01*
X468312Y185738D01*
X468312Y249238D01*
X476250Y257175D01*
X476250Y290512D01*
X477838Y292100D01*
G54D12*
X458788Y203200D02*
X458788Y249238D01*
X469900Y260350D01*
X469900Y330200D01*
X457200Y342900D01*
G54D12*
X431800Y546100D02*
X438150Y552450D01*
X514350Y552450D01*
X530225Y568325D01*
G54D12*
X431800Y520700D02*
X419100Y533400D01*
X419100Y552450D01*
X425450Y558800D01*
X500062Y558800D01*
X514350Y573088D01*
X514350Y609600D01*
X509588Y614362D01*
G54D12*
X388938Y511175D02*
X393700Y515938D01*
X393700Y565150D01*
X488950Y565150D01*
X501650Y577850D01*
X501650Y590550D01*
G54D12*
X398462Y403225D02*
X393700Y407988D01*
X393700Y465138D01*
X382588Y476250D01*
X382588Y485775D01*
X387350Y490538D01*
X387350Y501650D01*
X406400Y520700D01*
G54D12*
X355600Y266700D02*
X355600Y284162D01*
X392112Y320675D01*
X392112Y360362D01*
X387350Y365125D01*
X387350Y460375D01*
X376238Y471488D01*
X376238Y487362D01*
X381000Y492125D01*
X381000Y503238D01*
X388938Y511175D01*
G54D12*
X407988Y317500D02*
X407988Y415925D01*
G54D12*
X398462Y369888D02*
X398462Y274638D01*
X406400Y266700D01*
G54D12*
X406400Y241300D02*
X406400Y228600D01*
X414338Y220662D01*
X434975Y220662D01*
X439738Y215900D01*
X439738Y184150D01*
X427038Y171450D01*
X390525Y171450D01*
X387350Y168275D01*
G54D12*
X355600Y266700D02*
X355600Y258762D01*
X368300Y246062D01*
X368300Y222250D01*
X358775Y212725D01*
X358775Y190500D01*
X361950Y187325D01*
X361950Y168275D01*
G54D12*
X355600Y241300D02*
X355600Y223838D01*
X346075Y214312D01*
X346075Y200025D01*
X352425Y193675D01*
X352425Y179388D01*
G54D12*
X330200Y266700D02*
X342900Y254000D01*
X342900Y231775D01*
X333375Y222250D01*
X333375Y182562D01*
X334962Y180975D01*
G54D12*
X479425Y644525D02*
X479425Y593725D01*
X476250Y590550D01*
G54D12*
X450850Y590550D02*
X450850Y646112D01*
X454025Y649288D01*
G54D12*
X438150Y639762D02*
X438150Y577850D01*
X431800Y571500D01*
X376238Y571500D01*
X368300Y563562D01*
X368300Y511175D01*
X320675Y463550D01*
X320675Y384175D01*
X293688Y357188D01*
X293688Y320675D01*
X274638Y301625D01*
X274638Y285750D01*
X280988Y279400D01*
X284162Y279400D01*
X292100Y271462D01*
G54D12*
X292100Y271462D02*
X292100Y254000D01*
X304800Y241300D01*
G54D12*
X279400Y266700D02*
X279400Y258762D01*
X292100Y246062D01*
X292100Y217488D01*
X295275Y214312D01*
X295275Y203200D01*
G54D12*
X320675Y304800D02*
X317500Y301625D01*
X317500Y231775D01*
X327025Y222250D01*
X327025Y193675D01*
X325438Y192088D01*
X325438Y174625D01*
X328612Y171450D01*
X333375Y171450D01*
X336550Y168275D01*
G54D12*
X311150Y157162D02*
X311150Y173038D01*
X296862Y187325D01*
G54D12*
X285750Y163512D02*
X285750Y180975D01*
X276225Y190500D01*
X276225Y203200D01*
G54D12*
X273050Y177800D02*
X266700Y184150D01*
X266700Y303212D01*
X287338Y323850D01*
X287338Y361950D01*
X311150Y385762D01*
X311150Y431800D01*
X306388Y436562D01*
G54D12*
X304800Y266700D02*
X304800Y276225D01*
X296862Y284162D01*
X285750Y284162D01*
X280988Y288925D01*
X280988Y300038D01*
X303212Y322262D01*
X303212Y328612D01*
G54D12*
X290512Y293688D02*
X312738Y315912D01*
X312738Y338138D01*
X303212Y347662D01*
G54D12*
X214312Y212725D02*
X214312Y187325D01*
G54D12*
X260350Y163512D02*
X260350Y219075D01*
X255588Y223838D01*
G54D12*
X228600Y241300D02*
X228600Y176212D01*
X234950Y169862D01*
X234950Y141288D01*
X236538Y139700D01*
G54D12*
X203200Y241300D02*
X203200Y192088D01*
X193675Y182562D01*
G54D12*
X239712Y304800D02*
X241300Y303212D01*
X241300Y260350D01*
X228600Y247650D01*
X228600Y241300D01*
G54D12*
X228600Y266700D02*
X228600Y315912D01*
X219075Y325438D01*
X219075Y346075D01*
X209550Y355600D01*
G54D12*
X214312Y212725D02*
X215900Y214312D01*
X215900Y304800D01*
X204788Y315912D01*
G54D12*
X152400Y266700D02*
X150812Y265112D01*
X150812Y193675D01*
X144462Y187325D01*
G54D12*
X301625Y422275D02*
X300038Y423862D01*
G54D12*
X295275Y390525D02*
X295275Y412750D01*
X292100Y415925D01*
X292100Y425450D01*
X293688Y427038D01*
X293688Y458788D01*
X298450Y463550D01*
G54D12*
X300038Y452438D02*
X355600Y508000D01*
X355600Y520700D01*
G54D12*
X298450Y463550D02*
X342900Y508000D01*
X342900Y571500D01*
X336550Y577850D01*
X336550Y609600D01*
G54D12*
X355600Y561975D02*
X361950Y568325D01*
X361950Y614362D01*
X398462Y650875D01*
G54D12*
X304800Y520700D02*
X317500Y533400D01*
X317500Y550862D01*
X327025Y560388D01*
X327025Y574675D01*
X323850Y577850D01*
X323850Y590550D01*
G54D12*
X219075Y385762D02*
X220662Y385762D01*
X241300Y406400D01*
X265112Y406400D01*
X287338Y428625D01*
X287338Y463550D01*
X296862Y473075D01*
X296862Y488950D01*
X292100Y493712D01*
X292100Y557212D01*
X295275Y560388D01*
X295275Y614362D01*
X290512Y619125D01*
G54D12*
X254000Y520700D02*
X266700Y533400D01*
X266700Y550862D01*
X285750Y569912D01*
X285750Y579438D01*
G54D12*
X279400Y493712D02*
X279400Y520700D01*
G54D12*
X285750Y477838D02*
X280988Y482600D01*
X219075Y482600D01*
X215900Y485775D01*
X215900Y555625D01*
X209550Y561975D01*
G54D12*
X260350Y568325D02*
X266700Y574675D01*
X266700Y663575D01*
X260350Y669925D01*
G54D12*
X290512Y681038D02*
X290512Y619125D01*
G54D12*
X285750Y603250D02*
X280988Y608012D01*
X280988Y685800D01*
X285750Y690562D01*
X293688Y690562D01*
X298450Y695325D01*
X298450Y760412D01*
X311150Y773112D01*
X311150Y809625D01*
X315912Y814388D01*
X339725Y814388D01*
G54D12*
X276225Y833438D02*
X276225Y812800D01*
X257175Y793750D01*
X257175Y682625D01*
X249238Y674688D01*
X249238Y665162D01*
X260350Y654050D01*
X260350Y590550D01*
X241300Y571500D01*
X241300Y539750D01*
X228600Y527050D01*
X228600Y520700D01*
G54D12*
X152400Y520700D02*
X152400Y547688D01*
X184150Y579438D01*
G54D12*
X152400Y495300D02*
X139700Y508000D01*
X139700Y557212D01*
X150812Y568325D01*
G54D12*
X161925Y647700D02*
X169862Y647700D01*
X184150Y661988D01*
X184150Y711200D01*
G54D12*
X163512Y669925D02*
X163512Y711200D01*
X176212Y723900D01*
X190500Y723900D01*
X196850Y730250D01*
X196850Y766762D01*
X188912Y774700D01*
X160338Y774700D01*
X152400Y782638D01*
X138112Y782638D01*
X82550Y838200D01*
G54D12*
X184150Y812800D02*
X184150Y868362D01*
X173038Y879475D01*
X155575Y879475D01*
G54D12*
X184150Y787400D02*
X169862Y801688D01*
X169862Y838200D01*
X141288Y866775D01*
X141288Y890588D01*
X155575Y904875D01*
G54D12*
X141288Y879475D02*
X38100Y879475D01*
X19050Y860425D01*
X19050Y260350D01*
X36512Y242888D01*
G54D12*
X42862Y590550D02*
X25400Y608012D01*
X25400Y781050D01*
X57150Y812800D01*
G54D12*
X36512Y611188D02*
X31750Y615950D01*
X31750Y757238D01*
X36512Y762000D01*
X57150Y762000D01*
G54D12*
X49212Y573088D02*
X49212Y622300D01*
X38100Y633412D01*
X38100Y747712D01*
X42862Y752475D01*
G54D15*
X139700Y854075D02*
X139700Y803275D01*
X136525Y800100D01*
G54D15*
X82550Y863600D02*
X69850Y850900D01*
X69850Y723900D01*
X82550Y711200D01*
G54D15*
X63500Y542925D02*
X63500Y628650D01*
X57150Y635000D01*
X44450Y647700D01*
X44450Y698500D01*
X57150Y711200D01*
G54D15*
X241300Y904875D02*
X241300Y882650D01*
G54D12*
X31750Y585788D02*
X31750Y396875D01*
X63500Y365125D01*
G54D12*
X63500Y365125D02*
X63500Y363538D01*
X38100Y338138D01*
X38100Y277812D01*
X61912Y254000D01*
X93662Y254000D01*
G54D12*
X96838Y214312D02*
X96838Y220662D01*
X103188Y227012D01*
X103188Y263525D01*
X87312Y279400D01*
X57150Y279400D01*
X47625Y288925D01*
X47625Y320675D01*
X52388Y325438D01*
X68262Y325438D01*
X77788Y334962D01*
X77788Y342900D01*
X88900Y354012D01*
X88900Y496888D01*
X92075Y500062D01*
G54D12*
X63500Y339725D02*
X82550Y358775D01*
X82550Y603250D01*
X95250Y615950D01*
X95250Y749300D01*
X82550Y762000D01*
G54D12*
X82550Y787400D02*
X101600Y768350D01*
X101600Y601662D01*
X98425Y598488D01*
G54D12*
X76200Y617538D02*
X76200Y504825D01*
X63500Y492125D01*
G54D12*
X42862Y590550D02*
X42862Y477838D01*
X53975Y466725D01*
X63500Y466725D01*
G54D12*
X49212Y573088D02*
X49212Y487362D01*
X57150Y479425D01*
X68262Y479425D01*
X76200Y471488D01*
X76200Y428625D01*
X63500Y415925D01*
G54D12*
X98425Y466725D02*
X98425Y490538D01*
X101600Y493712D01*
X101600Y506412D01*
X93662Y514350D01*
X93662Y568325D01*
G54D12*
X57150Y314325D02*
X73025Y314325D01*
X84138Y325438D01*
X84138Y336550D01*
X95250Y347662D01*
X103188Y347662D01*
G54D12*
X93662Y325438D02*
X93662Y282575D01*
X111125Y265112D01*
X111125Y223838D01*
X106362Y219075D01*
X106362Y174625D01*
X107950Y173038D01*
X107950Y160338D01*
G54D12*
X117475Y381000D02*
X123825Y374650D01*
X123825Y336550D01*
X127000Y333375D01*
X127000Y268288D01*
X123825Y265112D01*
X123825Y217488D01*
X119062Y212725D01*
X119062Y187325D01*
X127000Y179388D01*
X136525Y179388D01*
X142875Y173038D01*
X153988Y173038D01*
X158750Y168275D01*
G54D12*
X117475Y279400D02*
X117475Y220662D01*
X112712Y215900D01*
X112712Y182562D01*
X122238Y173038D01*
X128588Y173038D01*
X133350Y168275D01*
G54D12*
X133350Y355600D02*
X133350Y212725D01*
X128588Y207962D01*
G54D12*
X177800Y292100D02*
X165100Y279400D01*
X146050Y279400D01*
X139700Y273050D01*
X139700Y203200D01*
X128588Y192088D01*
G54D12*
X117475Y381000D02*
X114300Y384175D01*
X114300Y727075D01*
X123825Y736600D01*
G54D12*
X138112Y604838D02*
X133350Y600075D01*
X133350Y488950D01*
X152400Y469900D01*
G54D12*
X152400Y444500D02*
X127000Y469900D01*
X127000Y619125D01*
X142875Y635000D01*
X142875Y744538D01*
X149225Y750888D01*
X149225Y766762D01*
X144462Y771525D01*
X123825Y771525D01*
X82550Y812800D01*
G54D12*
X114300Y762000D02*
X107950Y755650D01*
X107950Y400050D01*
X98425Y390525D01*
G54D12*
X152400Y419100D02*
X120650Y450850D01*
X120650Y620712D01*
X136525Y636588D01*
X136525Y758825D01*
X139700Y762000D01*
G54D12*
X161925Y622300D02*
X149225Y635000D01*
X149225Y727075D01*
X184150Y762000D01*
G54D12*
X195262Y685800D02*
X195262Y661988D01*
X192088Y658812D01*
X192088Y588962D01*
X195262Y585788D01*
X195262Y561975D01*
X190500Y557212D01*
X190500Y533400D01*
X177800Y520700D01*
G54D12*
X203200Y546100D02*
X203200Y625475D01*
G54D12*
X209550Y561975D02*
X209550Y625475D01*
G54D12*
X209550Y625475D02*
X209550Y644525D01*
G54D12*
X225425Y661988D02*
X225425Y660400D01*
X209550Y644525D01*
G54D12*
X203200Y625475D02*
X203200Y633412D01*
X198438Y638175D01*
X198438Y654050D01*
X209550Y665162D01*
X209550Y666750D01*
G54D12*
X98425Y390525D02*
X98425Y352425D01*
X103188Y347662D01*
G54D12*
X889000Y288925D02*
X898525Y279400D01*
X912812Y279400D01*
G54D12*
X889000Y323850D02*
X894556Y329406D01*
X913606Y329406D01*
G54D12*
X916781Y263525D02*
X892175Y263525D01*
X889000Y260350D01*
G54D15*
X603250Y933450D02*
X615950Y920750D01*
X615950Y831850D01*
X596900Y812800D01*
X285750Y133350D02*
G54D16*
D03*
X260350Y133350D02*
G54D16*
D03*
X234950Y133350D02*
G54D16*
D03*
X209550Y133350D02*
G54D16*
D03*
X184150Y133350D02*
G54D16*
D03*
X158750Y133350D02*
G54D16*
D03*
X133350Y133350D02*
G54D16*
D03*
X107950Y133350D02*
G54D16*
D03*
X311150Y133350D02*
G54D16*
D03*
X336550Y133350D02*
G54D16*
D03*
X361950Y133350D02*
G54D16*
D03*
X387350Y133350D02*
G54D16*
D03*
X412750Y133350D02*
G54D16*
D03*
X438150Y133350D02*
G54D16*
D03*
X463550Y133350D02*
G54D16*
D03*
X488950Y133350D02*
G54D16*
D03*
X514350Y133350D02*
G54D16*
D03*
X539750Y133350D02*
G54D16*
D03*
X565150Y133350D02*
G54D16*
D03*
X590550Y133350D02*
G54D16*
D03*
X615950Y133350D02*
G54D16*
D03*
X641350Y133350D02*
G54D16*
D03*
X666750Y133350D02*
G54D16*
D03*
X692150Y133350D02*
G54D16*
D03*
X717550Y133350D02*
G54D16*
D03*
X742950Y133350D02*
G54D16*
D03*
X768350Y133350D02*
G54D16*
D03*
X793750Y133350D02*
G54D16*
D03*
X819150Y133350D02*
G54D16*
D03*
X844550Y133350D02*
G54D16*
D03*
X869950Y133350D02*
G54D16*
D03*
G54D15*
X939800Y379412D02*
X915988Y379412D01*
G54D15*
X800100Y182562D02*
X793750Y176212D01*
X793750Y149225D01*
G54D12*
X768350Y171450D02*
X768350Y152400D01*
G54D12*
X742950Y166688D02*
X742950Y153988D01*
X744538Y152400D01*
G54D12*
X387350Y166688D02*
X387350Y150812D01*
X388938Y149225D01*
G54D12*
X361950Y168275D02*
X361950Y144462D01*
G54D12*
X387350Y168275D02*
X387350Y165100D01*
G54D12*
X336550Y168275D02*
X336550Y158750D01*
G54D12*
X133350Y168275D02*
X133350Y152400D01*
G54D12*
X158750Y168275D02*
X158750Y149225D01*
X1077912Y555625D02*
G54D17*
D03*
X1084262Y628650D02*
G54D17*
D03*
X1077912Y701675D02*
G54D17*
D03*
X1077912Y739775D02*
G54D17*
D03*
X1077912Y885825D02*
G54D17*
D03*
X1084262Y812800D02*
G54D17*
D03*
G54D15*
X1047750Y196850D02*
X1047750Y223838D01*
X938212Y223838D01*
X1071562Y223838D01*
G54D12*
X300038Y425450D02*
X300038Y452438D01*
G54D12*
X841375Y595312D02*
X850900Y604838D01*
X850900Y622300D01*
X842962Y630238D01*
X842962Y658812D01*
G54D15*
X919956Y304800D02*
X920750Y304006D01*
X939800Y304006D01*
G54D12*
X565150Y727075D02*
X565150Y757238D01*
G54D12*
X314325Y203200D02*
X314325Y184150D01*
X315912Y182562D01*
G54D14*
X1088516Y272204D02*
X1070739Y272204D01*
X1070739Y276649D01*
X1071850Y278427D01*
X1074072Y279316D01*
X1085183Y279316D01*
X1087405Y278427D01*
X1088516Y276649D01*
X1088516Y272204D01*
G54D14*
X1087405Y289538D02*
X1088516Y288116D01*
X1088516Y286338D01*
X1087405Y284560D01*
X1085183Y284204D01*
X1081405Y284204D01*
X1079183Y285093D01*
X1078516Y286871D01*
X1079183Y288649D01*
X1080739Y289538D01*
X1082961Y289538D01*
X1082961Y284204D01*
G54D14*
X1079628Y294426D02*
X1078516Y296204D01*
X1078516Y298338D01*
X1080739Y299760D01*
X1088516Y299760D01*
G54D14*
X1085183Y299760D02*
X1082961Y298871D01*
X1082516Y297093D01*
X1082961Y295315D01*
X1085183Y294426D01*
X1087405Y294782D01*
X1088516Y296204D01*
X1088516Y297093D01*
X1088516Y297449D01*
X1087405Y298871D01*
X1085183Y299760D01*
G54D14*
X1070739Y306426D02*
X1087405Y306426D01*
X1088516Y307315D01*
X1088072Y308204D01*
G54D14*
X1078516Y304648D02*
X1078516Y308204D01*
G54D14*
X1088516Y313094D02*
X1070739Y313094D01*
G54D14*
X1081405Y313094D02*
X1079183Y313982D01*
X1078516Y315760D01*
X1079183Y317538D01*
X1081405Y318427D01*
X1088516Y318427D01*
G54D14*
X1070739Y330160D02*
X1087405Y330160D01*
X1088516Y331049D01*
X1088072Y331938D01*
G54D14*
X1078516Y328382D02*
X1078516Y331938D01*
G54D14*
X1085850Y342161D02*
X1081405Y342161D01*
X1079183Y341272D01*
X1078516Y339494D01*
X1079183Y337716D01*
X1081405Y336828D01*
X1085850Y336828D01*
X1088072Y337716D01*
X1088516Y339494D01*
X1088072Y341272D01*
X1085850Y342161D01*
G54D14*
X1079628Y352116D02*
X1078516Y353894D01*
X1078516Y356028D01*
X1080739Y357450D01*
X1088516Y357450D01*
G54D14*
X1085183Y357450D02*
X1082961Y356561D01*
X1082516Y354783D01*
X1082961Y353005D01*
X1085183Y352116D01*
X1087405Y352472D01*
X1088516Y353894D01*
X1088516Y354783D01*
X1088516Y355139D01*
X1087405Y356561D01*
X1085183Y357450D01*
G54D14*
X1088516Y362338D02*
X1070739Y362338D01*
G54D14*
X1088516Y367228D02*
X1070739Y367228D01*
G54D14*
X1088516Y378961D02*
X1071850Y378961D01*
X1070739Y379850D01*
X1071405Y380739D01*
G54D14*
X1078516Y377184D02*
X1078516Y380739D01*
G54D14*
X1079628Y385628D02*
X1078516Y387406D01*
X1078516Y389540D01*
X1080739Y390962D01*
X1088516Y390962D01*
G54D14*
X1085183Y390962D02*
X1082961Y390073D01*
X1082516Y388295D01*
X1082961Y386517D01*
X1085183Y385628D01*
X1087405Y385984D01*
X1088516Y387406D01*
X1088516Y388295D01*
X1088516Y388651D01*
X1087405Y390073D01*
X1085183Y390962D01*
G54D14*
X1087405Y395850D02*
X1088516Y397628D01*
X1088516Y399406D01*
X1087405Y401184D01*
X1085183Y401184D01*
X1084072Y400295D01*
X1082961Y396739D01*
X1081850Y395850D01*
X1079628Y395850D01*
X1078516Y397628D01*
X1078516Y399406D01*
X1079628Y401184D01*
G54D14*
X1079183Y410517D02*
X1078516Y408739D01*
X1079183Y406961D01*
X1081405Y406072D01*
X1085850Y406072D01*
X1088072Y406961D01*
X1088516Y408739D01*
X1088072Y410517D01*
G54D14*
X1088516Y415406D02*
X1078516Y415406D01*
G54D14*
X1075183Y415406D02*
X1075183Y415406D01*
G54D14*
X1087405Y420294D02*
X1088516Y422072D01*
X1088516Y423850D01*
X1087405Y425628D01*
X1085183Y425628D01*
X1084072Y424739D01*
X1082961Y421183D01*
X1081850Y420294D01*
X1079628Y420294D01*
X1078516Y422072D01*
X1078516Y423850D01*
X1079628Y425628D01*
G54D14*
X1070739Y432294D02*
X1087405Y432294D01*
X1088516Y433183D01*
X1088072Y434072D01*
G54D14*
X1078516Y430516D02*
X1078516Y434072D01*
G54D14*
X1087405Y438962D02*
X1088516Y440739D01*
X1088516Y442517D01*
X1087405Y444295D01*
X1085183Y444295D01*
X1084072Y443406D01*
X1082961Y439850D01*
X1081850Y438962D01*
X1079628Y438962D01*
X1078516Y440739D01*
X1078516Y442517D01*
X1079628Y444295D01*
G54D14*
X1070739Y449184D02*
X1084072Y449184D01*
G54D14*
X1088516Y449184D02*
X1088516Y449184D01*
G54D15*
X846138Y182562D02*
X844550Y180975D01*
X844550Y139700D01*
G54D12*
X484188Y238125D02*
X487362Y234950D01*
X487362Y209550D01*
X918596Y454351D02*
G54D18*
D03*
X918596Y429351D02*
G54D18*
D03*
X918596Y404351D02*
G54D18*
D03*
X918596Y379351D02*
G54D18*
D03*
X918596Y354351D02*
G54D18*
D03*
X918596Y329351D02*
G54D18*
D03*
X918596Y304351D02*
G54D18*
D03*
X918596Y279351D02*
G54D18*
D03*
X1082596Y497101D02*
G54D19*
D03*
X1082596Y224101D02*
G54D19*
D03*
X936596Y224101D02*
G54D19*
D03*
X936596Y473101D02*
G54D19*
D03*
X918596Y238351D02*
G54D20*
D03*
X918596Y250351D02*
G54D20*
D03*
X918596Y263351D02*
G54D18*
D03*
X965991Y223842D02*
G54D11*
D03*
G54D12*
X949325Y490538D02*
X969962Y490538D01*
X974725Y485775D01*
X974725Y454025D01*
G54D15*
X935038Y473075D02*
X911225Y473075D01*
X911225Y473075D02*
G54D11*
D03*
X1077912Y939798D02*
G54D10*
D03*
G54D12*
X920750Y250428D02*
X930275Y250428D01*
X930275Y258762D01*
X935038Y263525D01*
X935038Y270669D01*
X955675Y291306D01*
X955675Y361950D01*
X955675Y363538D01*
X955678Y366715D02*
G54D13*
D03*
X974728Y454022D02*
G54D13*
D03*
X346074Y200025D02*
G54D10*
D03*
X371474Y200025D02*
G54D10*
D03*
X295275Y203200D02*
G54D21*
D03*
X314325Y203200D02*
G54D21*
D03*
X403225Y201499D02*
G54D21*
D03*
X422275Y201612D02*
G54D21*
D03*
X292100Y219075D02*
G54D13*
D03*
X384175Y219075D02*
G54D13*
D03*
G54D12*
X396875Y201612D02*
X387350Y201612D01*
X384175Y204788D01*
X384175Y219075D01*
G54D12*
X422275Y201612D02*
X422275Y190500D01*
X419100Y187325D01*
X398462Y187325D01*
G54D12*
X398462Y187325D02*
X384175Y187325D01*
X371475Y200025D01*
X368300Y495300D02*
G54D11*
D03*
G54D15*
X368300Y495300D02*
X368300Y500062D01*
X381000Y512762D01*
X381000Y520700D01*
G54D12*
X679450Y800100D02*
X679450Y809625D01*
X682625Y812800D01*
X714375Y812800D01*
X717550Y809625D01*
X717550Y790575D01*
X714375Y787400D01*
X693738Y787400D01*
X685800Y779462D01*
X685800Y768350D01*
X712788Y741362D01*
X712788Y701675D01*
G54D12*
X712788Y701675D02*
X712788Y579438D01*
X719138Y573088D01*
X615950Y519112D02*
G54D13*
D03*
G54D12*
X615950Y519112D02*
X654050Y519112D01*
X663575Y528638D01*
X663575Y528638D02*
G54D13*
D03*
G54D12*
X719138Y573088D02*
X719138Y541338D01*
X723900Y536575D01*
X723900Y538162D02*
G54D13*
D03*
M02*
