%FSLAX34Y34*%
%MOMM*%
%LNSOLDERMASK_TOP*%
G71*
G01*
%ADD10C, 1.80*%
%ADD11C, 0.45*%
%ADD12C, 0.42*%
%ADD13R, 1.70X6.70*%
%ADD14C, 3.70*%
%ADD15R, 1.70X1.20*%
%ADD16R, 3.00X1.70*%
%ADD17R, 1.70X0.90*%
%ADD18R, 1.50X1.70*%
%LPD*%
X82550Y838200D02*
G54D10*
D03*
X82550Y863600D02*
G54D10*
D03*
X57150Y838200D02*
G54D10*
D03*
X57150Y812800D02*
G54D10*
D03*
X82550Y812800D02*
G54D10*
D03*
X82550Y787400D02*
G54D10*
D03*
X57150Y787400D02*
G54D10*
D03*
X57150Y762000D02*
G54D10*
D03*
X82550Y762000D02*
G54D10*
D03*
X82550Y736600D02*
G54D10*
D03*
X57150Y736600D02*
G54D10*
D03*
X57150Y711200D02*
G54D10*
D03*
X82550Y711200D02*
G54D10*
D03*
X82550Y685800D02*
G54D10*
D03*
X57150Y685800D02*
G54D10*
D03*
X57150Y660400D02*
G54D10*
D03*
X82550Y660400D02*
G54D10*
D03*
X82550Y635000D02*
G54D10*
D03*
X57150Y635000D02*
G54D10*
D03*
X184150Y711200D02*
G54D10*
D03*
X209550Y711200D02*
G54D10*
D03*
X209550Y736600D02*
G54D10*
D03*
X184150Y736600D02*
G54D10*
D03*
X184150Y762000D02*
G54D10*
D03*
X209550Y762000D02*
G54D10*
D03*
X209550Y787400D02*
G54D10*
D03*
X184150Y787400D02*
G54D10*
D03*
X209550Y812800D02*
G54D10*
D03*
X298450Y933450D02*
G54D10*
D03*
X298450Y958850D02*
G54D10*
D03*
X374650Y958850D02*
G54D10*
D03*
X400050Y958850D02*
G54D10*
D03*
X400050Y933450D02*
G54D10*
D03*
X425450Y933450D02*
G54D10*
D03*
X425450Y958850D02*
G54D10*
D03*
X450850Y958850D02*
G54D10*
D03*
X450850Y933450D02*
G54D10*
D03*
X476250Y933450D02*
G54D10*
D03*
X476250Y958850D02*
G54D10*
D03*
X501650Y958850D02*
G54D10*
D03*
X501650Y933450D02*
G54D10*
D03*
X527050Y933450D02*
G54D10*
D03*
X527050Y958850D02*
G54D10*
D03*
X552450Y958850D02*
G54D10*
D03*
X552450Y933450D02*
G54D10*
D03*
X577850Y933450D02*
G54D10*
D03*
X577850Y958850D02*
G54D10*
D03*
X603250Y958850D02*
G54D10*
D03*
X603250Y933450D02*
G54D10*
D03*
X628650Y933450D02*
G54D10*
D03*
X628650Y958850D02*
G54D10*
D03*
X654050Y958850D02*
G54D10*
D03*
X654050Y933450D02*
G54D10*
D03*
X679450Y933450D02*
G54D10*
D03*
X679450Y958850D02*
G54D10*
D03*
X704850Y958850D02*
G54D10*
D03*
X704850Y933450D02*
G54D10*
D03*
X730250Y933450D02*
G54D10*
D03*
X730250Y958850D02*
G54D10*
D03*
X755650Y958850D02*
G54D10*
D03*
X755650Y933450D02*
G54D10*
D03*
X781050Y933450D02*
G54D10*
D03*
X781050Y958850D02*
G54D10*
D03*
X806450Y958850D02*
G54D10*
D03*
X806450Y933450D02*
G54D10*
D03*
X831850Y933450D02*
G54D10*
D03*
X831850Y958850D02*
G54D10*
D03*
X857250Y958850D02*
G54D10*
D03*
X857250Y933450D02*
G54D10*
D03*
X323850Y876300D02*
G54D10*
D03*
X349250Y876300D02*
G54D10*
D03*
X374650Y876300D02*
G54D10*
D03*
X400050Y876300D02*
G54D10*
D03*
X425450Y876300D02*
G54D10*
D03*
X450850Y876300D02*
G54D10*
D03*
X476250Y876300D02*
G54D10*
D03*
X501650Y876300D02*
G54D10*
D03*
X527050Y876300D02*
G54D10*
D03*
X552450Y876300D02*
G54D10*
D03*
X552450Y800100D02*
G54D10*
D03*
X527050Y800100D02*
G54D10*
D03*
X501650Y800100D02*
G54D10*
D03*
X476250Y800100D02*
G54D10*
D03*
X450850Y800100D02*
G54D10*
D03*
X425450Y800100D02*
G54D10*
D03*
X400050Y800100D02*
G54D10*
D03*
X374650Y800100D02*
G54D10*
D03*
X349250Y800100D02*
G54D10*
D03*
G36*
X175150Y821800D02*
X193150Y821800D01*
X193150Y803800D01*
X175150Y803800D01*
X175150Y821800D01*
G37*
G36*
X48150Y872600D02*
X66150Y872600D01*
X66150Y854600D01*
X48150Y854600D01*
X48150Y872600D01*
G37*
G36*
X314850Y809100D02*
X332850Y809100D01*
X332850Y791100D01*
X314850Y791100D01*
X314850Y809100D01*
G37*
G36*
X314850Y701150D02*
X332850Y701150D01*
X332850Y683150D01*
X314850Y683150D01*
X314850Y701150D01*
G37*
G36*
X365650Y942450D02*
X383650Y942450D01*
X383650Y924450D01*
X365650Y924450D01*
X365650Y942450D01*
G37*
G36*
X314850Y599550D02*
X332850Y599550D01*
X332850Y581550D01*
X314850Y581550D01*
X314850Y599550D01*
G37*
G36*
X295800Y250300D02*
X313800Y250300D01*
X313800Y232300D01*
X295800Y232300D01*
X295800Y250300D01*
G37*
G36*
X537100Y218550D02*
X555100Y218550D01*
X555100Y200550D01*
X537100Y200550D01*
X537100Y218550D01*
G37*
G36*
X810150Y205850D02*
X828150Y205850D01*
X828150Y187850D01*
X810150Y187850D01*
X810150Y205850D01*
G37*
G36*
X816500Y364600D02*
X834500Y364600D01*
X834500Y346600D01*
X816500Y346600D01*
X816500Y364600D01*
G37*
G36*
X708550Y332850D02*
X726550Y332850D01*
X726550Y314850D01*
X708550Y314850D01*
X708550Y332850D01*
G37*
G36*
X537100Y453500D02*
X555100Y453500D01*
X555100Y435500D01*
X537100Y435500D01*
X537100Y453500D01*
G37*
G36*
X619650Y809100D02*
X637650Y809100D01*
X637650Y791100D01*
X619650Y791100D01*
X619650Y809100D01*
G37*
G36*
X587900Y872600D02*
X605900Y872600D01*
X605900Y854600D01*
X587900Y854600D01*
X587900Y872600D01*
G37*
G36*
X873650Y618600D02*
X891650Y618600D01*
X891650Y600600D01*
X873650Y600600D01*
X873650Y618600D01*
G37*
G36*
X943500Y688450D02*
X961500Y688450D01*
X961500Y670450D01*
X943500Y670450D01*
X943500Y688450D01*
G37*
G36*
X956200Y561450D02*
X974200Y561450D01*
X974200Y543450D01*
X956200Y543450D01*
X956200Y561450D01*
G37*
G36*
X276750Y764650D02*
X294750Y764650D01*
X294750Y746650D01*
X276750Y746650D01*
X276750Y764650D01*
G37*
G36*
X276750Y866250D02*
X294750Y866250D01*
X294750Y848250D01*
X276750Y848250D01*
X276750Y866250D01*
G37*
G36*
X943500Y948800D02*
X961500Y948800D01*
X961500Y930800D01*
X943500Y930800D01*
X943500Y948800D01*
G37*
X323850Y768350D02*
G54D10*
D03*
X349250Y768350D02*
G54D10*
D03*
X374650Y768350D02*
G54D10*
D03*
X400050Y768350D02*
G54D10*
D03*
X425450Y768350D02*
G54D10*
D03*
X450850Y768350D02*
G54D10*
D03*
X476250Y768350D02*
G54D10*
D03*
X501650Y768350D02*
G54D10*
D03*
X527050Y768350D02*
G54D10*
D03*
X552450Y768350D02*
G54D10*
D03*
X552450Y692150D02*
G54D10*
D03*
X527050Y692150D02*
G54D10*
D03*
X501650Y692150D02*
G54D10*
D03*
X476250Y692150D02*
G54D10*
D03*
X450850Y692150D02*
G54D10*
D03*
X425450Y692150D02*
G54D10*
D03*
X400050Y692150D02*
G54D10*
D03*
X374650Y692150D02*
G54D10*
D03*
X349250Y692150D02*
G54D10*
D03*
X323850Y666750D02*
G54D10*
D03*
X349250Y666750D02*
G54D10*
D03*
X374650Y666750D02*
G54D10*
D03*
X400050Y666750D02*
G54D10*
D03*
X425450Y666750D02*
G54D10*
D03*
X450850Y666750D02*
G54D10*
D03*
X476250Y666750D02*
G54D10*
D03*
X501650Y666750D02*
G54D10*
D03*
X527050Y666750D02*
G54D10*
D03*
X552450Y666750D02*
G54D10*
D03*
X552450Y590550D02*
G54D10*
D03*
X527050Y590550D02*
G54D10*
D03*
X501650Y590550D02*
G54D10*
D03*
X476250Y590550D02*
G54D10*
D03*
X450850Y590550D02*
G54D10*
D03*
X425450Y590550D02*
G54D10*
D03*
X400050Y590550D02*
G54D10*
D03*
X374650Y590550D02*
G54D10*
D03*
X349250Y590550D02*
G54D10*
D03*
X654050Y800100D02*
G54D10*
D03*
X679450Y800100D02*
G54D10*
D03*
X704850Y800100D02*
G54D10*
D03*
X730250Y800100D02*
G54D10*
D03*
X755650Y800100D02*
G54D10*
D03*
X781050Y800100D02*
G54D10*
D03*
X806450Y800100D02*
G54D10*
D03*
X831850Y800100D02*
G54D10*
D03*
X857250Y800100D02*
G54D10*
D03*
X857250Y876300D02*
G54D10*
D03*
X831850Y876300D02*
G54D10*
D03*
X806450Y876300D02*
G54D10*
D03*
X781050Y876300D02*
G54D10*
D03*
X755650Y876300D02*
G54D10*
D03*
X730250Y876300D02*
G54D10*
D03*
X704850Y876300D02*
G54D10*
D03*
X679450Y876300D02*
G54D10*
D03*
X654050Y876300D02*
G54D10*
D03*
X628650Y876300D02*
G54D10*
D03*
X1028700Y850900D02*
G54D10*
D03*
X1054100Y850900D02*
G54D10*
D03*
X1054100Y825500D02*
G54D10*
D03*
X1054100Y800100D02*
G54D10*
D03*
X1054100Y774700D02*
G54D10*
D03*
X1028700Y774700D02*
G54D10*
D03*
X1028700Y590550D02*
G54D10*
D03*
X1054100Y590550D02*
G54D10*
D03*
X1054100Y615950D02*
G54D10*
D03*
X1054100Y641350D02*
G54D10*
D03*
X1054100Y666750D02*
G54D10*
D03*
X1028700Y666750D02*
G54D10*
D03*
X939800Y552450D02*
G54D10*
D03*
X914400Y552450D02*
G54D10*
D03*
X889000Y552450D02*
G54D10*
D03*
X863600Y552450D02*
G54D10*
D03*
X952500Y704850D02*
G54D10*
D03*
X952500Y730250D02*
G54D10*
D03*
X952500Y755650D02*
G54D10*
D03*
X952500Y781050D02*
G54D10*
D03*
X882650Y635000D02*
G54D10*
D03*
X882650Y660400D02*
G54D10*
D03*
X882650Y685800D02*
G54D10*
D03*
X882650Y711200D02*
G54D10*
D03*
X882650Y736600D02*
G54D10*
D03*
X882650Y762000D02*
G54D10*
D03*
X806450Y609600D02*
G54D10*
D03*
X806450Y635000D02*
G54D10*
D03*
X806450Y660400D02*
G54D10*
D03*
X806450Y685800D02*
G54D10*
D03*
X806450Y711200D02*
G54D10*
D03*
X806450Y736600D02*
G54D10*
D03*
X806450Y762000D02*
G54D10*
D03*
X241300Y879475D02*
G54D10*
D03*
X241300Y904875D02*
G54D10*
D03*
X155575Y904875D02*
G54D10*
D03*
X155575Y879475D02*
G54D10*
D03*
X247650Y647700D02*
G54D10*
D03*
X247650Y622300D02*
G54D10*
D03*
X247650Y596900D02*
G54D10*
D03*
X161925Y596900D02*
G54D10*
D03*
X161925Y622300D02*
G54D10*
D03*
X161925Y647700D02*
G54D10*
D03*
X285750Y704850D02*
G54D10*
D03*
X285750Y804862D02*
G54D10*
D03*
X152400Y317500D02*
G54D10*
D03*
X177800Y317500D02*
G54D10*
D03*
X177800Y292100D02*
G54D10*
D03*
X152400Y292100D02*
G54D10*
D03*
X152400Y266700D02*
G54D10*
D03*
X177800Y266700D02*
G54D10*
D03*
X203200Y266700D02*
G54D10*
D03*
X203200Y241300D02*
G54D10*
D03*
X177800Y241300D02*
G54D10*
D03*
X228600Y241300D02*
G54D10*
D03*
X228600Y266700D02*
G54D10*
D03*
X254000Y241300D02*
G54D10*
D03*
X254000Y266700D02*
G54D10*
D03*
X279400Y266700D02*
G54D10*
D03*
X279400Y241300D02*
G54D10*
D03*
X304800Y266700D02*
G54D10*
D03*
X330200Y266700D02*
G54D10*
D03*
X330200Y241300D02*
G54D10*
D03*
X355600Y241300D02*
G54D10*
D03*
X355600Y266700D02*
G54D10*
D03*
X381000Y266700D02*
G54D10*
D03*
X381000Y241300D02*
G54D10*
D03*
X406400Y241300D02*
G54D10*
D03*
X406400Y266700D02*
G54D10*
D03*
X431800Y266700D02*
G54D10*
D03*
X431800Y241300D02*
G54D10*
D03*
X457200Y266700D02*
G54D10*
D03*
X457200Y292100D02*
G54D10*
D03*
X431800Y292100D02*
G54D10*
D03*
X457200Y317500D02*
G54D10*
D03*
X431800Y317500D02*
G54D10*
D03*
X431800Y342900D02*
G54D10*
D03*
X457200Y342900D02*
G54D10*
D03*
X457200Y368300D02*
G54D10*
D03*
X431800Y368300D02*
G54D10*
D03*
X431800Y393700D02*
G54D10*
D03*
X457200Y393700D02*
G54D10*
D03*
X457200Y419100D02*
G54D10*
D03*
X431800Y419100D02*
G54D10*
D03*
X457200Y444500D02*
G54D10*
D03*
X431800Y444500D02*
G54D10*
D03*
X431800Y469900D02*
G54D10*
D03*
X457200Y469900D02*
G54D10*
D03*
X431800Y495300D02*
G54D10*
D03*
X457200Y495300D02*
G54D10*
D03*
X457200Y520700D02*
G54D10*
D03*
X431800Y520700D02*
G54D10*
D03*
X431800Y546100D02*
G54D10*
D03*
X406400Y546100D02*
G54D10*
D03*
X406400Y520700D02*
G54D10*
D03*
X381000Y520700D02*
G54D10*
D03*
X381000Y546100D02*
G54D10*
D03*
X355600Y546100D02*
G54D10*
D03*
X355600Y520700D02*
G54D10*
D03*
X330200Y520700D02*
G54D10*
D03*
X330200Y546100D02*
G54D10*
D03*
X304800Y546100D02*
G54D10*
D03*
X304800Y520700D02*
G54D10*
D03*
X596900Y209550D02*
G54D10*
D03*
X533400Y241300D02*
G54D10*
D03*
X533400Y266700D02*
G54D10*
D03*
X533400Y292100D02*
G54D10*
D03*
X533400Y317500D02*
G54D10*
D03*
X533400Y342900D02*
G54D10*
D03*
X533400Y368300D02*
G54D10*
D03*
X533400Y393700D02*
G54D10*
D03*
X609600Y393700D02*
G54D10*
D03*
X609600Y368300D02*
G54D10*
D03*
X609600Y342900D02*
G54D10*
D03*
X609600Y317500D02*
G54D10*
D03*
X609600Y292100D02*
G54D10*
D03*
X609600Y266700D02*
G54D10*
D03*
G36*
X600600Y250300D02*
X618600Y250300D01*
X618600Y232300D01*
X600600Y232300D01*
X600600Y250300D01*
G37*
X177800Y342900D02*
G54D10*
D03*
X152400Y342900D02*
G54D10*
D03*
X152400Y368300D02*
G54D10*
D03*
X177800Y368300D02*
G54D10*
D03*
X177800Y393700D02*
G54D10*
D03*
X152400Y393700D02*
G54D10*
D03*
X152400Y419100D02*
G54D10*
D03*
X177800Y419100D02*
G54D10*
D03*
X177800Y444500D02*
G54D10*
D03*
X152400Y444500D02*
G54D10*
D03*
X152400Y469900D02*
G54D10*
D03*
X177800Y469900D02*
G54D10*
D03*
X177800Y495300D02*
G54D10*
D03*
X203200Y520700D02*
G54D10*
D03*
X228600Y520700D02*
G54D10*
D03*
X254000Y520700D02*
G54D10*
D03*
X279400Y520700D02*
G54D10*
D03*
X177800Y520700D02*
G54D10*
D03*
X152400Y520700D02*
G54D10*
D03*
X152400Y495300D02*
G54D10*
D03*
X177800Y546100D02*
G54D10*
D03*
X203200Y546100D02*
G54D10*
D03*
X228600Y546100D02*
G54D10*
D03*
X254000Y546100D02*
G54D10*
D03*
X279400Y546100D02*
G54D10*
D03*
X654050Y546100D02*
G54D10*
D03*
X622300Y546100D02*
G54D10*
D03*
X654050Y631825D02*
G54D10*
D03*
X622300Y631825D02*
G54D10*
D03*
X596900Y625475D02*
G54D10*
D03*
G36*
X587900Y564625D02*
X605900Y564625D01*
X605900Y546625D01*
X587900Y546625D01*
X587900Y564625D01*
G37*
X596900Y812800D02*
G54D10*
D03*
X876300Y355600D02*
G54D10*
D03*
X1047750Y196850D02*
G54D10*
D03*
G36*
X1013350Y205850D02*
X1031350Y205850D01*
X1031350Y187850D01*
X1013350Y187850D01*
X1013350Y205850D01*
G37*
X901700Y196850D02*
G54D10*
D03*
X850900Y228600D02*
G54D10*
D03*
X825500Y228600D02*
G54D10*
D03*
X876300Y228600D02*
G54D10*
D03*
X889000Y260350D02*
G54D10*
D03*
X889000Y323850D02*
G54D10*
D03*
X889000Y288925D02*
G54D10*
D03*
X803275Y288925D02*
G54D10*
D03*
X803275Y260350D02*
G54D10*
D03*
X803275Y323850D02*
G54D10*
D03*
X781050Y260350D02*
G54D10*
D03*
X781050Y346075D02*
G54D10*
D03*
X749300Y273050D02*
G54D10*
D03*
X749300Y298450D02*
G54D10*
D03*
X749300Y323850D02*
G54D10*
D03*
X717550Y273050D02*
G54D10*
D03*
X673100Y206375D02*
G54D10*
D03*
X685800Y225425D02*
G54D10*
D03*
X660400Y225425D02*
G54D10*
D03*
X685800Y250825D02*
G54D10*
D03*
X660400Y250825D02*
G54D10*
D03*
X635000Y250825D02*
G54D10*
D03*
X685800Y336550D02*
G54D10*
D03*
X660400Y336550D02*
G54D10*
D03*
X635000Y336550D02*
G54D10*
D03*
X638175Y358775D02*
G54D10*
D03*
X666750Y358775D02*
G54D10*
D03*
X695325Y358775D02*
G54D10*
D03*
X777875Y368300D02*
G54D10*
D03*
X752475Y368300D02*
G54D10*
D03*
X803275Y393700D02*
G54D10*
D03*
X889000Y393700D02*
G54D10*
D03*
X889000Y419100D02*
G54D10*
D03*
X803275Y419100D02*
G54D10*
D03*
X803275Y444500D02*
G54D10*
D03*
X889000Y444500D02*
G54D10*
D03*
X885825Y469900D02*
G54D10*
D03*
X800100Y469900D02*
G54D10*
D03*
X777875Y454025D02*
G54D10*
D03*
X752475Y454025D02*
G54D10*
D03*
X752475Y479425D02*
G54D10*
D03*
X727075Y479425D02*
G54D10*
D03*
X701675Y479425D02*
G54D10*
D03*
X695325Y444500D02*
G54D10*
D03*
X666750Y444500D02*
G54D10*
D03*
X638175Y444500D02*
G54D10*
D03*
X720725Y428625D02*
G54D10*
D03*
X720725Y403225D02*
G54D10*
D03*
X720725Y377825D02*
G54D10*
D03*
X596900Y444500D02*
G54D10*
D03*
X987425Y196850D02*
G54D10*
D03*
X869950Y196850D02*
G54D10*
D03*
X800100Y234950D02*
G54D10*
D03*
X714375Y234950D02*
G54D10*
D03*
X996950Y606425D02*
G54D10*
D03*
X996950Y635000D02*
G54D10*
D03*
X911225Y635000D02*
G54D10*
D03*
X911225Y606425D02*
G54D10*
D03*
X781050Y574675D02*
G54D10*
D03*
X781050Y660400D02*
G54D10*
D03*
X749300Y517525D02*
G54D10*
D03*
G36*
X689500Y526525D02*
X707500Y526525D01*
X707500Y508525D01*
X689500Y508525D01*
X689500Y526525D01*
G37*
G36*
X670450Y761475D02*
X688450Y761475D01*
X688450Y743475D01*
X670450Y743475D01*
X670450Y761475D01*
G37*
X679450Y727075D02*
G54D10*
D03*
X679450Y701675D02*
G54D10*
D03*
X679450Y676275D02*
G54D10*
D03*
X679450Y650875D02*
G54D10*
D03*
X679450Y625475D02*
G54D10*
D03*
X679450Y600075D02*
G54D10*
D03*
X679450Y574675D02*
G54D10*
D03*
X679450Y549275D02*
G54D10*
D03*
X755650Y549275D02*
G54D10*
D03*
X755650Y574675D02*
G54D10*
D03*
X755650Y600075D02*
G54D10*
D03*
X755650Y625475D02*
G54D10*
D03*
X755650Y650875D02*
G54D10*
D03*
X755650Y676275D02*
G54D10*
D03*
X755650Y701675D02*
G54D10*
D03*
X755650Y727075D02*
G54D10*
D03*
X755650Y752475D02*
G54D10*
D03*
X781050Y736600D02*
G54D10*
D03*
X781050Y714375D02*
G54D10*
D03*
X781050Y688975D02*
G54D10*
D03*
X654050Y669925D02*
G54D10*
D03*
X628650Y669925D02*
G54D10*
D03*
X628650Y755650D02*
G54D10*
D03*
X654050Y755650D02*
G54D10*
D03*
X698500Y774700D02*
G54D10*
D03*
X784225Y774700D02*
G54D10*
D03*
X911225Y825500D02*
G54D10*
D03*
X911225Y850900D02*
G54D10*
D03*
X889000Y885825D02*
G54D10*
D03*
X889000Y800100D02*
G54D10*
D03*
X996950Y825500D02*
G54D10*
D03*
X996950Y850900D02*
G54D10*
D03*
X996950Y879475D02*
G54D10*
D03*
X911225Y879475D02*
G54D10*
D03*
X923925Y908050D02*
G54D10*
D03*
X1009650Y908050D02*
G54D10*
D03*
X977900Y939800D02*
G54D10*
D03*
X923925Y971550D02*
G54D10*
D03*
X1009650Y971550D02*
G54D10*
D03*
X596900Y682625D02*
G54D10*
D03*
G36*
X587900Y742425D02*
X605900Y742425D01*
X605900Y724425D01*
X587900Y724425D01*
X587900Y742425D01*
G37*
G36*
X64025Y275700D02*
X82025Y275700D01*
X82025Y257700D01*
X64025Y257700D01*
X64025Y275700D01*
G37*
G36*
X102125Y323325D02*
X120125Y323325D01*
X120125Y305325D01*
X102125Y305325D01*
X102125Y323325D01*
G37*
X111125Y365125D02*
G54D10*
D03*
X73025Y292100D02*
G54D10*
D03*
X63500Y339725D02*
G54D10*
D03*
X63500Y365125D02*
G54D10*
D03*
X63500Y390525D02*
G54D10*
D03*
X63500Y415925D02*
G54D10*
D03*
X63500Y441325D02*
G54D10*
D03*
X63500Y466725D02*
G54D10*
D03*
X63500Y492125D02*
G54D10*
D03*
X63500Y517525D02*
G54D10*
D03*
G36*
X54500Y551925D02*
X72500Y551925D01*
X72500Y533925D01*
X54500Y533925D01*
X54500Y551925D01*
G37*
G54D11*
X41275Y219075D02*
X60400Y219000D01*
X47625Y193675D01*
X66675Y193675D01*
G54D11*
X41275Y193675D02*
X53975Y219075D01*
X63500Y193675D01*
G54D11*
X44450Y200025D02*
X60325Y200025D01*
G54D11*
G75*
G01X76200Y206375D02*
G03X76200Y206375I-22225J0D01*
G01*
G54D12*
X41275Y978215D02*
X51942Y978215D01*
X41275Y960438D01*
X51942Y960438D01*
G54D12*
X56831Y968215D02*
X67498Y968215D01*
G54D12*
X83054Y963771D02*
X81720Y961549D01*
X79054Y960438D01*
X76387Y960438D01*
X73720Y961549D01*
X72387Y963771D01*
X72387Y974882D01*
X73720Y977104D01*
X76387Y978215D01*
X79054Y978215D01*
X81720Y977104D01*
X83054Y974882D01*
G54D12*
X95943Y963104D02*
X95943Y967549D01*
X94610Y969771D01*
X91943Y970438D01*
X89276Y969771D01*
X87943Y967549D01*
X87943Y963104D01*
X89276Y960882D01*
X91943Y960438D01*
X94610Y960882D01*
X95943Y963104D01*
G54D12*
X100832Y960438D02*
X100832Y970438D01*
G54D12*
X100832Y968215D02*
X102165Y969771D01*
X104832Y970438D01*
X107499Y969771D01*
X108832Y968215D01*
X108832Y960438D01*
G54D12*
X116388Y978215D02*
X116388Y961549D01*
X117721Y960438D01*
X119054Y960882D01*
G54D12*
X113721Y970438D02*
X119054Y970438D01*
G54D12*
X123943Y960438D02*
X123943Y970438D01*
G54D12*
X123943Y968215D02*
X126610Y970438D01*
X129276Y970438D01*
G54D12*
X142165Y963104D02*
X142165Y967549D01*
X140832Y969771D01*
X138165Y970438D01*
X135498Y969771D01*
X134165Y967549D01*
X134165Y963104D01*
X135498Y960882D01*
X138165Y960438D01*
X140832Y960882D01*
X142165Y963104D01*
G54D12*
X147054Y960438D02*
X147054Y978215D01*
G54D12*
X151943Y960438D02*
X151943Y978215D01*
G54D12*
X164832Y961549D02*
X162699Y960438D01*
X160032Y960438D01*
X157365Y961549D01*
X156832Y963771D01*
X156832Y967549D01*
X158165Y969771D01*
X160832Y970438D01*
X163499Y969771D01*
X164832Y968215D01*
X164832Y965993D01*
X156832Y965993D01*
G54D12*
X169721Y960438D02*
X169721Y970438D01*
G54D12*
X169721Y968215D02*
X172388Y970438D01*
X175054Y970438D01*
G54D12*
X185099Y960438D02*
X185099Y978215D01*
G54D12*
X185099Y967549D02*
X186432Y969771D01*
X189099Y970438D01*
X191766Y969771D01*
X193099Y967549D01*
X193099Y963104D01*
X191766Y960882D01*
X189099Y960438D01*
X186432Y960882D01*
X185099Y963104D01*
G54D12*
X197988Y970438D02*
X203321Y960438D01*
X208655Y970438D01*
G54D12*
X203321Y960438D02*
X201988Y957104D01*
X200655Y955993D01*
X199321Y955993D01*
G54D12*
X218700Y960438D02*
X218700Y978215D01*
G54D12*
X218700Y965993D02*
X229367Y978215D01*
G54D12*
X222700Y969326D02*
X229367Y960438D01*
G54D12*
X244923Y974882D02*
X244923Y963771D01*
X243589Y961549D01*
X240923Y960438D01*
X238256Y960438D01*
X235589Y961549D01*
X234256Y963771D01*
X234256Y974882D01*
X235589Y977104D01*
X238256Y978215D01*
X240923Y978215D01*
X243589Y977104D01*
X244923Y974882D01*
G54D12*
X259145Y960438D02*
X249812Y960438D01*
X249812Y978215D01*
X259145Y978215D01*
G54D12*
X249812Y969326D02*
X259145Y969326D01*
G54D12*
X31750Y946465D02*
X31750Y928688D01*
X41083Y928688D01*
G54D12*
X45972Y928688D02*
X45972Y938688D01*
G54D12*
X45972Y942021D02*
X45972Y942021D01*
G54D12*
X50861Y928688D02*
X50861Y946465D01*
G54D12*
X50861Y935799D02*
X52194Y938021D01*
X54861Y938688D01*
X57528Y938021D01*
X58861Y935799D01*
X58861Y931354D01*
X57528Y929132D01*
X54861Y928688D01*
X52194Y929132D01*
X50861Y931354D01*
G54D12*
X71750Y929799D02*
X69617Y928688D01*
X66950Y928688D01*
X64283Y929799D01*
X63750Y932021D01*
X63750Y935799D01*
X65083Y938021D01*
X67750Y938688D01*
X70417Y938021D01*
X71750Y936465D01*
X71750Y934243D01*
X63750Y934243D01*
G54D12*
X76639Y928688D02*
X76639Y938688D01*
G54D12*
X76639Y936465D02*
X79306Y938688D01*
X81972Y938688D01*
G54D12*
X86861Y937576D02*
X89528Y938688D01*
X92728Y938688D01*
X94861Y936465D01*
X94861Y928688D01*
G54D12*
X94861Y932021D02*
X93528Y934243D01*
X90861Y934688D01*
X88194Y934243D01*
X86861Y932021D01*
X87394Y929799D01*
X89528Y928688D01*
X90861Y928688D01*
X91394Y928688D01*
X93528Y929799D01*
X94861Y932021D01*
G54D12*
X102417Y946465D02*
X102417Y929799D01*
X103750Y928688D01*
X105083Y929132D01*
G54D12*
X99750Y938688D02*
X105083Y938688D01*
G54D12*
X117972Y929799D02*
X115839Y928688D01*
X113172Y928688D01*
X110505Y929799D01*
X109972Y932021D01*
X109972Y935799D01*
X111305Y938021D01*
X113972Y938688D01*
X116639Y938021D01*
X117972Y936465D01*
X117972Y934243D01*
X109972Y934243D01*
G54D12*
X130861Y928688D02*
X130861Y946465D01*
G54D12*
X130861Y935799D02*
X129528Y938021D01*
X126861Y938688D01*
X124194Y938021D01*
X122861Y935799D01*
X122861Y931354D01*
X124194Y929132D01*
X126861Y928688D01*
X129528Y929132D01*
X130861Y931354D01*
G54D12*
X140906Y928688D02*
X140906Y946465D01*
G54D12*
X140906Y935799D02*
X142239Y938021D01*
X144906Y938688D01*
X147573Y938021D01*
X148906Y935799D01*
X148906Y931354D01*
X147573Y929132D01*
X144906Y928688D01*
X142239Y929132D01*
X140906Y931354D01*
G54D12*
X153795Y938688D02*
X159128Y928688D01*
X164462Y938688D01*
G54D12*
X159128Y928688D02*
X157795Y925354D01*
X156462Y924243D01*
X155128Y924243D01*
G54D12*
X174507Y929799D02*
X177174Y928688D01*
X179840Y928688D01*
X182507Y929799D01*
X182507Y932021D01*
X181174Y933132D01*
X175840Y934243D01*
X174507Y935354D01*
X174507Y937576D01*
X177174Y938688D01*
X179840Y938688D01*
X182507Y937576D01*
G54D12*
X187396Y928688D02*
X187396Y946465D01*
G54D12*
X187396Y935799D02*
X188729Y938021D01*
X191396Y938688D01*
X194063Y938021D01*
X195396Y935799D01*
X195396Y928688D01*
G54D12*
X208285Y931354D02*
X208285Y935799D01*
X206952Y938021D01*
X204285Y938688D01*
X201618Y938021D01*
X200285Y935799D01*
X200285Y931354D01*
X201618Y929132D01*
X204285Y928688D01*
X206952Y929132D01*
X208285Y931354D01*
G54D12*
X219841Y938021D02*
X217174Y938688D01*
X214507Y938021D01*
X213174Y935799D01*
X213174Y931354D01*
X214507Y929132D01*
X217174Y928688D01*
X219841Y929132D01*
G54D12*
X224730Y928688D02*
X224730Y946465D01*
G54D12*
X228730Y935354D02*
X232730Y928688D01*
G54D12*
X224730Y933132D02*
X232730Y938688D01*
G54D12*
X237619Y928688D02*
X250952Y928688D01*
G54D12*
X255841Y928688D02*
X269174Y928688D01*
X285750Y133350D02*
G54D13*
D03*
X260350Y133350D02*
G54D13*
D03*
X234950Y133350D02*
G54D13*
D03*
X209550Y133350D02*
G54D13*
D03*
X184150Y133350D02*
G54D13*
D03*
X158750Y133350D02*
G54D13*
D03*
X133350Y133350D02*
G54D13*
D03*
X107950Y133350D02*
G54D13*
D03*
X311150Y133350D02*
G54D13*
D03*
X336550Y133350D02*
G54D13*
D03*
X361950Y133350D02*
G54D13*
D03*
X387350Y133350D02*
G54D13*
D03*
X412750Y133350D02*
G54D13*
D03*
X438150Y133350D02*
G54D13*
D03*
X463550Y133350D02*
G54D13*
D03*
X488950Y133350D02*
G54D13*
D03*
X514350Y133350D02*
G54D13*
D03*
X539750Y133350D02*
G54D13*
D03*
X565150Y133350D02*
G54D13*
D03*
X590550Y133350D02*
G54D13*
D03*
X615950Y133350D02*
G54D13*
D03*
X641350Y133350D02*
G54D13*
D03*
X666750Y133350D02*
G54D13*
D03*
X692150Y133350D02*
G54D13*
D03*
X717550Y133350D02*
G54D13*
D03*
X742950Y133350D02*
G54D13*
D03*
X768350Y133350D02*
G54D13*
D03*
X793750Y133350D02*
G54D13*
D03*
X819150Y133350D02*
G54D13*
D03*
X844550Y133350D02*
G54D13*
D03*
X869950Y133350D02*
G54D13*
D03*
X1077912Y555625D02*
G54D14*
D03*
X1084262Y628650D02*
G54D14*
D03*
X1077912Y701675D02*
G54D14*
D03*
X1077912Y739775D02*
G54D14*
D03*
X1077912Y885825D02*
G54D14*
D03*
X1084262Y812800D02*
G54D14*
D03*
G54D12*
X1088516Y272204D02*
X1070739Y272204D01*
X1070739Y276649D01*
X1071850Y278427D01*
X1074072Y279316D01*
X1085183Y279316D01*
X1087405Y278427D01*
X1088516Y276649D01*
X1088516Y272204D01*
G54D12*
X1087405Y289538D02*
X1088516Y288116D01*
X1088516Y286338D01*
X1087405Y284560D01*
X1085183Y284204D01*
X1081405Y284204D01*
X1079183Y285093D01*
X1078516Y286871D01*
X1079183Y288649D01*
X1080739Y289538D01*
X1082961Y289538D01*
X1082961Y284204D01*
G54D12*
X1079628Y294426D02*
X1078516Y296204D01*
X1078516Y298338D01*
X1080739Y299760D01*
X1088516Y299760D01*
G54D12*
X1085183Y299760D02*
X1082961Y298871D01*
X1082516Y297093D01*
X1082961Y295315D01*
X1085183Y294426D01*
X1087405Y294782D01*
X1088516Y296204D01*
X1088516Y297093D01*
X1088516Y297449D01*
X1087405Y298871D01*
X1085183Y299760D01*
G54D12*
X1070739Y306426D02*
X1087405Y306426D01*
X1088516Y307315D01*
X1088072Y308204D01*
G54D12*
X1078516Y304648D02*
X1078516Y308204D01*
G54D12*
X1088516Y313094D02*
X1070739Y313094D01*
G54D12*
X1081405Y313094D02*
X1079183Y313982D01*
X1078516Y315760D01*
X1079183Y317538D01*
X1081405Y318427D01*
X1088516Y318427D01*
G54D12*
X1070739Y330160D02*
X1087405Y330160D01*
X1088516Y331049D01*
X1088072Y331938D01*
G54D12*
X1078516Y328382D02*
X1078516Y331938D01*
G54D12*
X1085850Y342161D02*
X1081405Y342161D01*
X1079183Y341272D01*
X1078516Y339494D01*
X1079183Y337716D01*
X1081405Y336828D01*
X1085850Y336828D01*
X1088072Y337716D01*
X1088516Y339494D01*
X1088072Y341272D01*
X1085850Y342161D01*
G54D12*
X1079628Y352116D02*
X1078516Y353894D01*
X1078516Y356028D01*
X1080739Y357450D01*
X1088516Y357450D01*
G54D12*
X1085183Y357450D02*
X1082961Y356561D01*
X1082516Y354783D01*
X1082961Y353005D01*
X1085183Y352116D01*
X1087405Y352472D01*
X1088516Y353894D01*
X1088516Y354783D01*
X1088516Y355139D01*
X1087405Y356561D01*
X1085183Y357450D01*
G54D12*
X1088516Y362338D02*
X1070739Y362338D01*
G54D12*
X1088516Y367228D02*
X1070739Y367228D01*
G54D12*
X1088516Y378961D02*
X1071850Y378961D01*
X1070739Y379850D01*
X1071405Y380739D01*
G54D12*
X1078516Y377184D02*
X1078516Y380739D01*
G54D12*
X1079628Y385628D02*
X1078516Y387406D01*
X1078516Y389540D01*
X1080739Y390962D01*
X1088516Y390962D01*
G54D12*
X1085183Y390962D02*
X1082961Y390073D01*
X1082516Y388295D01*
X1082961Y386517D01*
X1085183Y385628D01*
X1087405Y385984D01*
X1088516Y387406D01*
X1088516Y388295D01*
X1088516Y388651D01*
X1087405Y390073D01*
X1085183Y390962D01*
G54D12*
X1087405Y395850D02*
X1088516Y397628D01*
X1088516Y399406D01*
X1087405Y401184D01*
X1085183Y401184D01*
X1084072Y400295D01*
X1082961Y396739D01*
X1081850Y395850D01*
X1079628Y395850D01*
X1078516Y397628D01*
X1078516Y399406D01*
X1079628Y401184D01*
G54D12*
X1079183Y410517D02*
X1078516Y408739D01*
X1079183Y406961D01*
X1081405Y406072D01*
X1085850Y406072D01*
X1088072Y406961D01*
X1088516Y408739D01*
X1088072Y410517D01*
G54D12*
X1088516Y415406D02*
X1078516Y415406D01*
G54D12*
X1075183Y415406D02*
X1075183Y415406D01*
G54D12*
X1087405Y420294D02*
X1088516Y422072D01*
X1088516Y423850D01*
X1087405Y425628D01*
X1085183Y425628D01*
X1084072Y424739D01*
X1082961Y421183D01*
X1081850Y420294D01*
X1079628Y420294D01*
X1078516Y422072D01*
X1078516Y423850D01*
X1079628Y425628D01*
G54D12*
X1070739Y432294D02*
X1087405Y432294D01*
X1088516Y433183D01*
X1088072Y434072D01*
G54D12*
X1078516Y430516D02*
X1078516Y434072D01*
G54D12*
X1087405Y438962D02*
X1088516Y440739D01*
X1088516Y442517D01*
X1087405Y444295D01*
X1085183Y444295D01*
X1084072Y443406D01*
X1082961Y439850D01*
X1081850Y438962D01*
X1079628Y438962D01*
X1078516Y440739D01*
X1078516Y442517D01*
X1079628Y444295D01*
G54D12*
X1070739Y449184D02*
X1084072Y449184D01*
G54D12*
X1088516Y449184D02*
X1088516Y449184D01*
X918596Y454351D02*
G54D15*
D03*
X918596Y429351D02*
G54D15*
D03*
X918596Y404351D02*
G54D15*
D03*
X918596Y379351D02*
G54D15*
D03*
X918596Y354351D02*
G54D15*
D03*
X918596Y329351D02*
G54D15*
D03*
X918596Y304351D02*
G54D15*
D03*
X918596Y279351D02*
G54D15*
D03*
X1082596Y497101D02*
G54D16*
D03*
X1082596Y224101D02*
G54D16*
D03*
X936596Y224101D02*
G54D16*
D03*
X936596Y473101D02*
G54D16*
D03*
X918596Y238351D02*
G54D17*
D03*
X918596Y250351D02*
G54D17*
D03*
X918596Y263351D02*
G54D15*
D03*
X346074Y200025D02*
G54D10*
D03*
X371474Y200025D02*
G54D10*
D03*
X295275Y203200D02*
G54D18*
D03*
X314325Y203200D02*
G54D18*
D03*
X403225Y201499D02*
G54D18*
D03*
X422275Y201612D02*
G54D18*
D03*
M02*
