; Drill file
; Format: 2.4 (00.0000)
M48
INCH
T01C0.0236
T02C0.0315
T03C0.0394
T04C0.0433
T05C0.063
T06C0.0866
T07C0.1772
%
G05
G90
T01
X003810Y008440
X005060Y008190
X005060Y007560
X005690Y007380
X006250Y007130
X007620Y007190
X008440Y007310
X008440Y008380
X010060Y008810
X010870Y008000
X011500Y008630
X011630Y007380
X012440Y007190
X013190Y007130
X013870Y007000
X014880Y007000
X015120Y008630
X015750Y008630
X018060Y008120
X019060Y009380
X019130Y010500
X018870Y011500
X019620Y012000
X019880Y012750
X020130Y013560
X019130Y013560
X018750Y014620
X018810Y015190
X020060Y016250
X020060Y017190
X019880Y018000
X018810Y017440
X018630Y019190
X019810Y019560
X020440Y019560
X021690Y019380
X022810Y019060
X024560Y019380
X024250Y020440
X023560Y021000
X022250Y021630
X020870Y021630
X020870Y022370
X020870Y020870
X019250Y022750
X020060Y024190
X021060Y024380
X022880Y024440
X022440Y023190
X024060Y023370
X025440Y022880
X026120Y020810
X028500Y021190
X028500Y023190
X031250Y023250
X032690Y020380
X032250Y019000
X033060Y017000
X033060Y015810
X032690Y014750
X030810Y012880
X028560Y011810
X027310Y011630
X025250Y012000
X024870Y015000
X024870Y015940
X025620Y016370
X027250Y016060
X029500Y015750
X032250Y010750
X033060Y009560
X034560Y012000
X037500Y010690
X037630Y014440
X038380Y017870
X037940Y018870
X039810Y021630
X035500Y022250
X034440Y019000
X035870Y025810
X028810Y026120
X027630Y026690
X024440Y027370
X024190Y026060
X022250Y028620
X022250Y029810
X023250Y030190
X023880Y029500
X020620Y029560
X017750Y029380
X017250Y029000
X017060Y029560
X014880Y028000
X015690Y025620
X017250Y025190
X017880Y025560
X018870Y025380
X013250Y024000
X012440Y022370
X011250Y022810
X011250Y023750
X011440Y024380
X010250Y026380
X009310Y027000
X007690Y027000
X006440Y026380
X008250Y025380
X007250Y022810
X005940Y022370
X005440Y023810
X003880Y023560
X003000Y024310
X001440Y024060
X001250Y023060
X003690Y022370
X003620Y019690
X003880Y018370
X004630Y015000
X005250Y014000
X004060Y013690
X003690Y012810
X002250Y012380
X004630Y011000
X003690Y010000
X001440Y009560
X008060Y012440
X009500Y011940
X011440Y011560
X012620Y012000
X011940Y012940
X011940Y013690
X011630Y015380
X011880Y016560
X012190Y017190
X011250Y018870
X011000Y019440
X010190Y022370
X014000Y022120
X015870Y018120
X016000Y017380
X016060Y016370
X015690Y015870
X015690Y014560
X016060Y012500
X020310Y009380
X020060Y008500
X020440Y007560
X022880Y008190
X022440Y009380
X022690Y010380
X021880Y010750
X022440Y013190
X022440Y014000
X025940Y007750
X024750Y007060
X027250Y008190
X028250Y008380
X029060Y008810
X029810Y008810
X029810Y007560
X029060Y007190
X028060Y007380
X027500Y007130
X010750Y007000
X008250Y014000
X008630Y015190
X011440Y026810
X013370Y032060
X010870Y032810
X009880Y032190
X009190Y033310
X008310Y033000
X005500Y033620
X005370Y031500
X005500Y030000
X004500Y030000
X004870Y029000
X001690Y029620
X013870Y036380
X018560Y033620
X019750Y033190
X021250Y033190
X025750Y033000
X028250Y033190
X026560Y036000
X028250Y037190
X030250Y035810
X033250Y033620
X034620Y033190
T02
X006500Y010000
X007500Y011000
X006500Y012000
X009750Y007120
X014500Y011000
X016500Y011000
X017750Y007250
X022250Y016250
X021750Y020500
X022500Y025630
X030750Y024000
X033000Y024130
X034000Y023250
X035870Y023250
X036000Y020000
X035870Y018630
X033500Y018500
X036870Y014940
X036870Y011970
X038030Y008810
X033310Y007190
X031500Y007250
X015690Y018810
X016000Y019500
X014500Y019500
X009500Y020000
X007500Y020000
X033750Y027500
X033750Y030000
X032880Y030750
X035870Y030750
X036750Y028750
X039750Y028750
X039130Y030750
T03
X002870Y010500
X002870Y011500
X004380Y012380
X006000Y012500
X007000Y012500
X007000Y011500
X006000Y011500
X006000Y010500
X007000Y010500
X008000Y010500
X008000Y009500
X007000Y009500
X009000Y009500
X009000Y010500
X010000Y010500
X010000Y009500
X011000Y009500
X012000Y009500
X012000Y010500
X011000Y010500
X013000Y010500
X013000Y009500
X014000Y009500
X014000Y010500
X015000Y010500
X015000Y009500
X016000Y009500
X016000Y010500
X017000Y010500
X017000Y009500
X018000Y010500
X018000Y011500
X017000Y011500
X017000Y012500
X018000Y012500
X018000Y013500
X017000Y013500
X017000Y014500
X018000Y014500
X018000Y015500
X017000Y015500
X017000Y016500
X018000Y016500
X018000Y017500
X017000Y017500
X017000Y018500
X018000Y018500
X018000Y019500
X017000Y019500
X017000Y020500
X018000Y020500
X017000Y021500
X016000Y021500
X016000Y020500
X015000Y020500
X015000Y021500
X014000Y021500
X014000Y020500
X013000Y020500
X013000Y021500
X012000Y021500
X012000Y020500
X011000Y020500
X010000Y020500
X009000Y020500
X008000Y020500
X007000Y020500
X007000Y019500
X007000Y018500
X007000Y017500
X007000Y016500
X007000Y015500
X007000Y014500
X007000Y013500
X006000Y013500
X006000Y014500
X006000Y015500
X006000Y016500
X006000Y017500
X006000Y018500
X006000Y019500
X006000Y020500
X007000Y021500
X008000Y021500
X009000Y021500
X010000Y021500
X011000Y021500
X009750Y023500
X009750Y024500
X009750Y025500
X011250Y027750
X012750Y027250
X013750Y027250
X014750Y027250
X015750Y027250
X016750Y027250
X017750Y027250
X018750Y027250
X019750Y027250
X020750Y027250
X021750Y027250
X021750Y026250
X020750Y026250
X019750Y026250
X018750Y026250
X017750Y026250
X016750Y026250
X015750Y026250
X014750Y026250
X013750Y026250
X012750Y026250
X012750Y023250
X013750Y023250
X014750Y023250
X015750Y023250
X016750Y023250
X017750Y023250
X018750Y023250
X019750Y023250
X020750Y023250
X021750Y023250
X023500Y024620
X024500Y024870
X025750Y024870
X026750Y024620
X026750Y025620
X026750Y026630
X026750Y027630
X026750Y028620
X026750Y029620
X025750Y029750
X024750Y029750
X023500Y028880
X023500Y026880
X024750Y026380
X025750Y026380
X026750Y023620
X026750Y022630
X026750Y021630
X025750Y021500
X024500Y021500
X023500Y021880
X027500Y020380
X027630Y018870
X028620Y018870
X029620Y018870
X029620Y017880
X030620Y017880
X031630Y017500
X031630Y016500
X031630Y015500
X030620Y014500
X030750Y013630
X031630Y012750
X031630Y011370
X031630Y010250
X030750Y010250
X031500Y009250
X032500Y009000
X033500Y009000
X034500Y009000
X034250Y007750
X035500Y007750
X035000Y010250
X035000Y011370
X035000Y012750
X034500Y014000
X035000Y015500
X035000Y016500
X035000Y017500
X034870Y018500
X035000Y021750
X036000Y021750
X037000Y021750
X038000Y021750
X039250Y023880
X039250Y025000
X040500Y026250
X041500Y026250
X041500Y025250
X041500Y024250
X041500Y023250
X040500Y023250
X037500Y026750
X037500Y027750
X037500Y028750
X037500Y029750
X037500Y030750
X035870Y032500
X035870Y033500
X035870Y034620
X035000Y034870
X033750Y034500
X032750Y034500
X031750Y034500
X030750Y034500
X029750Y034500
X028750Y034500
X027750Y034500
X026750Y034500
X025750Y034500
X024750Y034500
X023500Y034000
X021750Y034500
X020750Y034500
X019750Y034500
X018750Y034500
X017750Y034500
X016750Y034500
X015750Y034500
X014750Y034500
X013750Y034500
X012750Y034500
X011250Y033750
X009500Y034620
X009500Y035620
X011750Y036750
X011750Y037750
X014750Y037750
X015750Y037750
X015750Y036750
X016750Y036750
X016750Y037750
X017750Y037750
X017750Y036750
X018750Y036750
X018750Y037750
X019750Y037750
X019750Y036750
X020750Y036750
X020750Y037750
X021750Y037750
X021750Y036750
X022750Y036750
X022750Y037750
X023750Y037750
X023750Y036750
X024750Y036750
X024750Y037750
X025750Y037750
X025750Y036750
X026750Y036750
X026750Y037750
X027750Y037750
X027750Y036750
X028750Y036750
X028750Y037750
X029750Y037750
X029750Y036750
X030750Y036750
X030750Y037750
X031750Y037750
X031750Y036750
X032750Y036750
X032750Y037750
X033750Y037750
X033750Y036750
X036380Y035750
X037500Y037000
X038500Y037000
X039750Y035750
X039250Y034620
X039250Y033500
X039250Y032500
X040500Y033500
X041500Y033500
X041500Y032500
X041500Y031500
X041500Y030500
X040500Y030500
X035000Y031500
X033750Y031500
X032750Y031500
X031750Y031500
X030750Y031500
X029750Y031500
X028750Y031500
X027750Y031500
X026750Y031500
X025750Y031500
X024750Y031500
X023500Y032000
X021750Y031500
X020750Y031500
X019750Y031500
X018750Y031500
X017750Y031500
X016750Y031500
X015750Y031500
X014750Y031500
X013750Y031500
X012750Y031500
X012750Y030250
X013750Y030250
X014750Y030250
X015750Y030250
X016750Y030250
X017750Y030250
X018750Y030250
X019750Y030250
X020750Y030250
X021750Y030250
X027500Y030500
X029750Y029620
X029750Y028620
X029750Y027630
X029750Y026630
X029750Y025620
X029750Y024620
X029750Y023620
X029750Y022630
X030750Y022630
X029750Y021630
X029500Y020380
X031500Y018500
X028370Y016880
X028370Y015870
X028370Y014880
X027370Y014130
X027000Y013250
X026000Y013250
X026250Y014130
X025130Y014130
X025000Y013250
X024000Y013500
X024000Y014500
X024000Y015500
X023500Y017500
X025130Y017500
X026250Y017500
X027370Y017500
X029620Y014500
X029500Y012750
X029500Y011750
X029500Y010750
X028250Y010750
X028120Y009250
X027000Y008870
X026500Y008120
X026000Y008870
X026000Y009880
X027000Y009880
X025000Y009880
X024000Y009500
X024000Y010500
X024000Y011500
X024000Y012500
X021000Y012500
X021000Y011500
X021000Y010500
X021000Y009500
X021500Y008250
X023500Y008250
X021000Y013500
X021000Y014500
X021000Y015500
X021500Y017500
X028250Y012750
X032500Y014000
X032250Y007750
X038880Y007750
X040250Y007750
X041250Y007750
X034000Y021750
X034750Y024000
X034750Y025000
X034750Y026000
X034750Y027000
X034750Y028000
X034750Y029000
X034750Y030000
X031750Y030000
X031750Y029000
X031750Y028000
X031750Y027000
X031750Y026000
X031750Y025000
X031750Y024000
X030750Y026000
X030750Y027120
X030750Y028120
X030750Y029000
X030870Y030500
X035870Y025000
X035870Y023880
X036380Y038250
X039750Y038250
X042440Y037000
X014750Y036750
X011250Y031690
X011250Y029750
X008250Y030000
X008250Y029000
X008250Y028000
X007250Y028000
X007250Y029000
X007250Y030000
X007250Y031000
X008250Y031000
X008250Y032000
X007250Y032000
X006130Y034620
X006130Y035620
X003250Y034000
X003250Y033000
X002250Y033000
X002250Y032000
X003250Y032000
X003250Y031000
X002250Y031000
X002250Y030000
X003250Y030000
X003250Y029000
X002250Y029000
X002250Y028000
X003250Y028000
X003250Y027000
X002250Y027000
X002250Y026000
X003250Y026000
X003250Y025000
X002250Y025000
X002500Y021380
X002500Y020380
X002500Y019380
X002500Y018370
X002500Y017380
X002500Y016370
X002500Y015380
X002500Y014380
X002500Y013370
X004380Y014380
X006370Y023500
X006370Y024500
X006370Y025500
X002250Y034000
X013620Y007870
X014620Y007870
T04
X037270Y009620
T05
X037270Y017890
T06
X042440Y021880
X042690Y024750
X042440Y027630
X042440Y029130
X042690Y032000
X042440Y034870
T07
X010000Y013500
X014000Y013500
X014000Y017500
X010000Y017500
M30
