%FSLAX34Y34*%
%MOMM*%
%LNSOLDERMASK_BOTTOM*%
G71*
G01*
%ADD10C, 1.80*%
%ADD11R, 1.70X6.70*%
%ADD12C, 3.70*%
%ADD13C, 0.40*%
%ADD14C, 0.36*%
%ADD15R, 1.20X1.30*%
%ADD16R, 1.50X1.70*%
%LPD*%
X82550Y838200D02*
G54D10*
D03*
X82550Y863600D02*
G54D10*
D03*
X57150Y838200D02*
G54D10*
D03*
X57150Y812800D02*
G54D10*
D03*
X82550Y812800D02*
G54D10*
D03*
X82550Y787400D02*
G54D10*
D03*
X57150Y787400D02*
G54D10*
D03*
X57150Y762000D02*
G54D10*
D03*
X82550Y762000D02*
G54D10*
D03*
X82550Y736600D02*
G54D10*
D03*
X57150Y736600D02*
G54D10*
D03*
X57150Y711200D02*
G54D10*
D03*
X82550Y711200D02*
G54D10*
D03*
X82550Y685800D02*
G54D10*
D03*
X57150Y685800D02*
G54D10*
D03*
X57150Y660400D02*
G54D10*
D03*
X82550Y660400D02*
G54D10*
D03*
X82550Y635000D02*
G54D10*
D03*
X57150Y635000D02*
G54D10*
D03*
X184150Y711200D02*
G54D10*
D03*
X209550Y711200D02*
G54D10*
D03*
X209550Y736600D02*
G54D10*
D03*
X184150Y736600D02*
G54D10*
D03*
X184150Y762000D02*
G54D10*
D03*
X209550Y762000D02*
G54D10*
D03*
X209550Y787400D02*
G54D10*
D03*
X184150Y787400D02*
G54D10*
D03*
X209550Y812800D02*
G54D10*
D03*
X298450Y933450D02*
G54D10*
D03*
X298450Y958850D02*
G54D10*
D03*
X374650Y958850D02*
G54D10*
D03*
X400050Y958850D02*
G54D10*
D03*
X400050Y933450D02*
G54D10*
D03*
X425450Y933450D02*
G54D10*
D03*
X425450Y958850D02*
G54D10*
D03*
X450850Y958850D02*
G54D10*
D03*
X450850Y933450D02*
G54D10*
D03*
X476250Y933450D02*
G54D10*
D03*
X476250Y958850D02*
G54D10*
D03*
X501650Y958850D02*
G54D10*
D03*
X501650Y933450D02*
G54D10*
D03*
X527050Y933450D02*
G54D10*
D03*
X527050Y958850D02*
G54D10*
D03*
X552450Y958850D02*
G54D10*
D03*
X552450Y933450D02*
G54D10*
D03*
X577850Y933450D02*
G54D10*
D03*
X577850Y958850D02*
G54D10*
D03*
X603250Y958850D02*
G54D10*
D03*
X603250Y933450D02*
G54D10*
D03*
X628650Y933450D02*
G54D10*
D03*
X628650Y958850D02*
G54D10*
D03*
X654050Y958850D02*
G54D10*
D03*
X654050Y933450D02*
G54D10*
D03*
X679450Y933450D02*
G54D10*
D03*
X679450Y958850D02*
G54D10*
D03*
X704850Y958850D02*
G54D10*
D03*
X704850Y933450D02*
G54D10*
D03*
X730250Y933450D02*
G54D10*
D03*
X730250Y958850D02*
G54D10*
D03*
X755650Y958850D02*
G54D10*
D03*
X755650Y933450D02*
G54D10*
D03*
X781050Y933450D02*
G54D10*
D03*
X781050Y958850D02*
G54D10*
D03*
X806450Y958850D02*
G54D10*
D03*
X806450Y933450D02*
G54D10*
D03*
X831850Y933450D02*
G54D10*
D03*
X831850Y958850D02*
G54D10*
D03*
X857250Y958850D02*
G54D10*
D03*
X857250Y933450D02*
G54D10*
D03*
X323850Y876300D02*
G54D10*
D03*
X349250Y876300D02*
G54D10*
D03*
X374650Y876300D02*
G54D10*
D03*
X400050Y876300D02*
G54D10*
D03*
X425450Y876300D02*
G54D10*
D03*
X450850Y876300D02*
G54D10*
D03*
X476250Y876300D02*
G54D10*
D03*
X501650Y876300D02*
G54D10*
D03*
X527050Y876300D02*
G54D10*
D03*
X552450Y876300D02*
G54D10*
D03*
X552450Y800100D02*
G54D10*
D03*
X527050Y800100D02*
G54D10*
D03*
X501650Y800100D02*
G54D10*
D03*
X476250Y800100D02*
G54D10*
D03*
X450850Y800100D02*
G54D10*
D03*
X425450Y800100D02*
G54D10*
D03*
X400050Y800100D02*
G54D10*
D03*
X374650Y800100D02*
G54D10*
D03*
X349250Y800100D02*
G54D10*
D03*
G36*
X175150Y821800D02*
X193150Y821800D01*
X193150Y803800D01*
X175150Y803800D01*
X175150Y821800D01*
G37*
G36*
X48150Y872600D02*
X66150Y872600D01*
X66150Y854600D01*
X48150Y854600D01*
X48150Y872600D01*
G37*
G36*
X314850Y809100D02*
X332850Y809100D01*
X332850Y791100D01*
X314850Y791100D01*
X314850Y809100D01*
G37*
G36*
X314850Y701150D02*
X332850Y701150D01*
X332850Y683150D01*
X314850Y683150D01*
X314850Y701150D01*
G37*
G36*
X365650Y942450D02*
X383650Y942450D01*
X383650Y924450D01*
X365650Y924450D01*
X365650Y942450D01*
G37*
G36*
X314850Y599550D02*
X332850Y599550D01*
X332850Y581550D01*
X314850Y581550D01*
X314850Y599550D01*
G37*
G36*
X295800Y250300D02*
X313800Y250300D01*
X313800Y232300D01*
X295800Y232300D01*
X295800Y250300D01*
G37*
G36*
X537100Y218550D02*
X555100Y218550D01*
X555100Y200550D01*
X537100Y200550D01*
X537100Y218550D01*
G37*
G36*
X810150Y205850D02*
X828150Y205850D01*
X828150Y187850D01*
X810150Y187850D01*
X810150Y205850D01*
G37*
G36*
X816500Y364600D02*
X834500Y364600D01*
X834500Y346600D01*
X816500Y346600D01*
X816500Y364600D01*
G37*
G36*
X708550Y332850D02*
X726550Y332850D01*
X726550Y314850D01*
X708550Y314850D01*
X708550Y332850D01*
G37*
G36*
X537100Y453500D02*
X555100Y453500D01*
X555100Y435500D01*
X537100Y435500D01*
X537100Y453500D01*
G37*
G36*
X619650Y809100D02*
X637650Y809100D01*
X637650Y791100D01*
X619650Y791100D01*
X619650Y809100D01*
G37*
G36*
X587900Y872600D02*
X605900Y872600D01*
X605900Y854600D01*
X587900Y854600D01*
X587900Y872600D01*
G37*
G36*
X873650Y618600D02*
X891650Y618600D01*
X891650Y600600D01*
X873650Y600600D01*
X873650Y618600D01*
G37*
G36*
X943500Y688450D02*
X961500Y688450D01*
X961500Y670450D01*
X943500Y670450D01*
X943500Y688450D01*
G37*
G36*
X956200Y561450D02*
X974200Y561450D01*
X974200Y543450D01*
X956200Y543450D01*
X956200Y561450D01*
G37*
G36*
X276750Y764650D02*
X294750Y764650D01*
X294750Y746650D01*
X276750Y746650D01*
X276750Y764650D01*
G37*
G36*
X276750Y866250D02*
X294750Y866250D01*
X294750Y848250D01*
X276750Y848250D01*
X276750Y866250D01*
G37*
G36*
X943500Y948800D02*
X961500Y948800D01*
X961500Y930800D01*
X943500Y930800D01*
X943500Y948800D01*
G37*
X323850Y768350D02*
G54D10*
D03*
X349250Y768350D02*
G54D10*
D03*
X374650Y768350D02*
G54D10*
D03*
X400050Y768350D02*
G54D10*
D03*
X425450Y768350D02*
G54D10*
D03*
X450850Y768350D02*
G54D10*
D03*
X476250Y768350D02*
G54D10*
D03*
X501650Y768350D02*
G54D10*
D03*
X527050Y768350D02*
G54D10*
D03*
X552450Y768350D02*
G54D10*
D03*
X552450Y692150D02*
G54D10*
D03*
X527050Y692150D02*
G54D10*
D03*
X501650Y692150D02*
G54D10*
D03*
X476250Y692150D02*
G54D10*
D03*
X450850Y692150D02*
G54D10*
D03*
X425450Y692150D02*
G54D10*
D03*
X400050Y692150D02*
G54D10*
D03*
X374650Y692150D02*
G54D10*
D03*
X349250Y692150D02*
G54D10*
D03*
X323850Y666750D02*
G54D10*
D03*
X349250Y666750D02*
G54D10*
D03*
X374650Y666750D02*
G54D10*
D03*
X400050Y666750D02*
G54D10*
D03*
X425450Y666750D02*
G54D10*
D03*
X450850Y666750D02*
G54D10*
D03*
X476250Y666750D02*
G54D10*
D03*
X501650Y666750D02*
G54D10*
D03*
X527050Y666750D02*
G54D10*
D03*
X552450Y666750D02*
G54D10*
D03*
X552450Y590550D02*
G54D10*
D03*
X527050Y590550D02*
G54D10*
D03*
X501650Y590550D02*
G54D10*
D03*
X476250Y590550D02*
G54D10*
D03*
X450850Y590550D02*
G54D10*
D03*
X425450Y590550D02*
G54D10*
D03*
X400050Y590550D02*
G54D10*
D03*
X374650Y590550D02*
G54D10*
D03*
X349250Y590550D02*
G54D10*
D03*
X654050Y800100D02*
G54D10*
D03*
X679450Y800100D02*
G54D10*
D03*
X704850Y800100D02*
G54D10*
D03*
X730250Y800100D02*
G54D10*
D03*
X755650Y800100D02*
G54D10*
D03*
X781050Y800100D02*
G54D10*
D03*
X806450Y800100D02*
G54D10*
D03*
X831850Y800100D02*
G54D10*
D03*
X857250Y800100D02*
G54D10*
D03*
X857250Y876300D02*
G54D10*
D03*
X831850Y876300D02*
G54D10*
D03*
X806450Y876300D02*
G54D10*
D03*
X781050Y876300D02*
G54D10*
D03*
X755650Y876300D02*
G54D10*
D03*
X730250Y876300D02*
G54D10*
D03*
X704850Y876300D02*
G54D10*
D03*
X679450Y876300D02*
G54D10*
D03*
X654050Y876300D02*
G54D10*
D03*
X628650Y876300D02*
G54D10*
D03*
X1028700Y850900D02*
G54D10*
D03*
X1054100Y850900D02*
G54D10*
D03*
X1054100Y825500D02*
G54D10*
D03*
X1054100Y800100D02*
G54D10*
D03*
X1054100Y774700D02*
G54D10*
D03*
X1028700Y774700D02*
G54D10*
D03*
X1028700Y590550D02*
G54D10*
D03*
X1054100Y590550D02*
G54D10*
D03*
X1054100Y615950D02*
G54D10*
D03*
X1054100Y641350D02*
G54D10*
D03*
X1054100Y666750D02*
G54D10*
D03*
X1028700Y666750D02*
G54D10*
D03*
X939800Y552450D02*
G54D10*
D03*
X914400Y552450D02*
G54D10*
D03*
X889000Y552450D02*
G54D10*
D03*
X863600Y552450D02*
G54D10*
D03*
X952500Y704850D02*
G54D10*
D03*
X952500Y730250D02*
G54D10*
D03*
X952500Y755650D02*
G54D10*
D03*
X952500Y781050D02*
G54D10*
D03*
X882650Y635000D02*
G54D10*
D03*
X882650Y660400D02*
G54D10*
D03*
X882650Y685800D02*
G54D10*
D03*
X882650Y711200D02*
G54D10*
D03*
X882650Y736600D02*
G54D10*
D03*
X882650Y762000D02*
G54D10*
D03*
X806450Y609600D02*
G54D10*
D03*
X806450Y635000D02*
G54D10*
D03*
X806450Y660400D02*
G54D10*
D03*
X806450Y685800D02*
G54D10*
D03*
X806450Y711200D02*
G54D10*
D03*
X806450Y736600D02*
G54D10*
D03*
X806450Y762000D02*
G54D10*
D03*
X241300Y879475D02*
G54D10*
D03*
X241300Y904875D02*
G54D10*
D03*
X155575Y904875D02*
G54D10*
D03*
X155575Y879475D02*
G54D10*
D03*
X247650Y647700D02*
G54D10*
D03*
X247650Y622300D02*
G54D10*
D03*
X247650Y596900D02*
G54D10*
D03*
X161925Y596900D02*
G54D10*
D03*
X161925Y622300D02*
G54D10*
D03*
X161925Y647700D02*
G54D10*
D03*
X285750Y704850D02*
G54D10*
D03*
X285750Y804862D02*
G54D10*
D03*
X152400Y317500D02*
G54D10*
D03*
X177800Y317500D02*
G54D10*
D03*
X177800Y292100D02*
G54D10*
D03*
X152400Y292100D02*
G54D10*
D03*
X152400Y266700D02*
G54D10*
D03*
X177800Y266700D02*
G54D10*
D03*
X203200Y266700D02*
G54D10*
D03*
X203200Y241300D02*
G54D10*
D03*
X177800Y241300D02*
G54D10*
D03*
X228600Y241300D02*
G54D10*
D03*
X228600Y266700D02*
G54D10*
D03*
X254000Y241300D02*
G54D10*
D03*
X254000Y266700D02*
G54D10*
D03*
X279400Y266700D02*
G54D10*
D03*
X279400Y241300D02*
G54D10*
D03*
X304800Y266700D02*
G54D10*
D03*
X330200Y266700D02*
G54D10*
D03*
X330200Y241300D02*
G54D10*
D03*
X355600Y241300D02*
G54D10*
D03*
X355600Y266700D02*
G54D10*
D03*
X381000Y266700D02*
G54D10*
D03*
X381000Y241300D02*
G54D10*
D03*
X406400Y241300D02*
G54D10*
D03*
X406400Y266700D02*
G54D10*
D03*
X431800Y266700D02*
G54D10*
D03*
X431800Y241300D02*
G54D10*
D03*
X457200Y266700D02*
G54D10*
D03*
X457200Y292100D02*
G54D10*
D03*
X431800Y292100D02*
G54D10*
D03*
X457200Y317500D02*
G54D10*
D03*
X431800Y317500D02*
G54D10*
D03*
X431800Y342900D02*
G54D10*
D03*
X457200Y342900D02*
G54D10*
D03*
X457200Y368300D02*
G54D10*
D03*
X431800Y368300D02*
G54D10*
D03*
X431800Y393700D02*
G54D10*
D03*
X457200Y393700D02*
G54D10*
D03*
X457200Y419100D02*
G54D10*
D03*
X431800Y419100D02*
G54D10*
D03*
X457200Y444500D02*
G54D10*
D03*
X431800Y444500D02*
G54D10*
D03*
X431800Y469900D02*
G54D10*
D03*
X457200Y469900D02*
G54D10*
D03*
X431800Y495300D02*
G54D10*
D03*
X457200Y495300D02*
G54D10*
D03*
X457200Y520700D02*
G54D10*
D03*
X431800Y520700D02*
G54D10*
D03*
X431800Y546100D02*
G54D10*
D03*
X406400Y546100D02*
G54D10*
D03*
X406400Y520700D02*
G54D10*
D03*
X381000Y520700D02*
G54D10*
D03*
X381000Y546100D02*
G54D10*
D03*
X355600Y546100D02*
G54D10*
D03*
X355600Y520700D02*
G54D10*
D03*
X330200Y520700D02*
G54D10*
D03*
X330200Y546100D02*
G54D10*
D03*
X304800Y546100D02*
G54D10*
D03*
X304800Y520700D02*
G54D10*
D03*
X596900Y209550D02*
G54D10*
D03*
X533400Y241300D02*
G54D10*
D03*
X533400Y266700D02*
G54D10*
D03*
X533400Y292100D02*
G54D10*
D03*
X533400Y317500D02*
G54D10*
D03*
X533400Y342900D02*
G54D10*
D03*
X533400Y368300D02*
G54D10*
D03*
X533400Y393700D02*
G54D10*
D03*
X609600Y393700D02*
G54D10*
D03*
X609600Y368300D02*
G54D10*
D03*
X609600Y342900D02*
G54D10*
D03*
X609600Y317500D02*
G54D10*
D03*
X609600Y292100D02*
G54D10*
D03*
X609600Y266700D02*
G54D10*
D03*
G36*
X600600Y250300D02*
X618600Y250300D01*
X618600Y232300D01*
X600600Y232300D01*
X600600Y250300D01*
G37*
X177800Y342900D02*
G54D10*
D03*
X152400Y342900D02*
G54D10*
D03*
X152400Y368300D02*
G54D10*
D03*
X177800Y368300D02*
G54D10*
D03*
X177800Y393700D02*
G54D10*
D03*
X152400Y393700D02*
G54D10*
D03*
X152400Y419100D02*
G54D10*
D03*
X177800Y419100D02*
G54D10*
D03*
X177800Y444500D02*
G54D10*
D03*
X152400Y444500D02*
G54D10*
D03*
X152400Y469900D02*
G54D10*
D03*
X177800Y469900D02*
G54D10*
D03*
X177800Y495300D02*
G54D10*
D03*
X203200Y520700D02*
G54D10*
D03*
X228600Y520700D02*
G54D10*
D03*
X254000Y520700D02*
G54D10*
D03*
X279400Y520700D02*
G54D10*
D03*
X177800Y520700D02*
G54D10*
D03*
X152400Y520700D02*
G54D10*
D03*
X152400Y495300D02*
G54D10*
D03*
X177800Y546100D02*
G54D10*
D03*
X203200Y546100D02*
G54D10*
D03*
X228600Y546100D02*
G54D10*
D03*
X254000Y546100D02*
G54D10*
D03*
X279400Y546100D02*
G54D10*
D03*
X654050Y546100D02*
G54D10*
D03*
X622300Y546100D02*
G54D10*
D03*
X654050Y631825D02*
G54D10*
D03*
X622300Y631825D02*
G54D10*
D03*
X596900Y625475D02*
G54D10*
D03*
G36*
X587900Y564625D02*
X605900Y564625D01*
X605900Y546625D01*
X587900Y546625D01*
X587900Y564625D01*
G37*
X596900Y812800D02*
G54D10*
D03*
X876300Y355600D02*
G54D10*
D03*
X1047750Y196850D02*
G54D10*
D03*
G36*
X1013350Y205850D02*
X1031350Y205850D01*
X1031350Y187850D01*
X1013350Y187850D01*
X1013350Y205850D01*
G37*
X901700Y196850D02*
G54D10*
D03*
X850900Y228600D02*
G54D10*
D03*
X825500Y228600D02*
G54D10*
D03*
X876300Y228600D02*
G54D10*
D03*
X889000Y260350D02*
G54D10*
D03*
X889000Y323850D02*
G54D10*
D03*
X889000Y288925D02*
G54D10*
D03*
X803275Y288925D02*
G54D10*
D03*
X803275Y260350D02*
G54D10*
D03*
X803275Y323850D02*
G54D10*
D03*
X781050Y260350D02*
G54D10*
D03*
X781050Y346075D02*
G54D10*
D03*
X749300Y273050D02*
G54D10*
D03*
X749300Y298450D02*
G54D10*
D03*
X749300Y323850D02*
G54D10*
D03*
X717550Y273050D02*
G54D10*
D03*
X673100Y206375D02*
G54D10*
D03*
X685800Y225425D02*
G54D10*
D03*
X660400Y225425D02*
G54D10*
D03*
X685800Y250825D02*
G54D10*
D03*
X660400Y250825D02*
G54D10*
D03*
X635000Y250825D02*
G54D10*
D03*
X685800Y336550D02*
G54D10*
D03*
X660400Y336550D02*
G54D10*
D03*
X635000Y336550D02*
G54D10*
D03*
X638175Y358775D02*
G54D10*
D03*
X666750Y358775D02*
G54D10*
D03*
X695325Y358775D02*
G54D10*
D03*
X777875Y368300D02*
G54D10*
D03*
X752475Y368300D02*
G54D10*
D03*
X803275Y393700D02*
G54D10*
D03*
X889000Y393700D02*
G54D10*
D03*
X889000Y419100D02*
G54D10*
D03*
X803275Y419100D02*
G54D10*
D03*
X803275Y444500D02*
G54D10*
D03*
X889000Y444500D02*
G54D10*
D03*
X885825Y469900D02*
G54D10*
D03*
X800100Y469900D02*
G54D10*
D03*
X777875Y454025D02*
G54D10*
D03*
X752475Y454025D02*
G54D10*
D03*
X752475Y479425D02*
G54D10*
D03*
X727075Y479425D02*
G54D10*
D03*
X701675Y479425D02*
G54D10*
D03*
X695325Y444500D02*
G54D10*
D03*
X666750Y444500D02*
G54D10*
D03*
X638175Y444500D02*
G54D10*
D03*
X720725Y428625D02*
G54D10*
D03*
X720725Y403225D02*
G54D10*
D03*
X720725Y377825D02*
G54D10*
D03*
X596900Y444500D02*
G54D10*
D03*
X987425Y196850D02*
G54D10*
D03*
X869950Y196850D02*
G54D10*
D03*
X800100Y234950D02*
G54D10*
D03*
X714375Y234950D02*
G54D10*
D03*
X996950Y606425D02*
G54D10*
D03*
X996950Y635000D02*
G54D10*
D03*
X911225Y635000D02*
G54D10*
D03*
X911225Y606425D02*
G54D10*
D03*
X781050Y574675D02*
G54D10*
D03*
X781050Y660400D02*
G54D10*
D03*
X749300Y517525D02*
G54D10*
D03*
G36*
X689500Y526525D02*
X707500Y526525D01*
X707500Y508525D01*
X689500Y508525D01*
X689500Y526525D01*
G37*
G36*
X670450Y761475D02*
X688450Y761475D01*
X688450Y743475D01*
X670450Y743475D01*
X670450Y761475D01*
G37*
X679450Y727075D02*
G54D10*
D03*
X679450Y701675D02*
G54D10*
D03*
X679450Y676275D02*
G54D10*
D03*
X679450Y650875D02*
G54D10*
D03*
X679450Y625475D02*
G54D10*
D03*
X679450Y600075D02*
G54D10*
D03*
X679450Y574675D02*
G54D10*
D03*
X679450Y549275D02*
G54D10*
D03*
X755650Y549275D02*
G54D10*
D03*
X755650Y574675D02*
G54D10*
D03*
X755650Y600075D02*
G54D10*
D03*
X755650Y625475D02*
G54D10*
D03*
X755650Y650875D02*
G54D10*
D03*
X755650Y676275D02*
G54D10*
D03*
X755650Y701675D02*
G54D10*
D03*
X755650Y727075D02*
G54D10*
D03*
X755650Y752475D02*
G54D10*
D03*
X781050Y736600D02*
G54D10*
D03*
X781050Y714375D02*
G54D10*
D03*
X781050Y688975D02*
G54D10*
D03*
X654050Y669925D02*
G54D10*
D03*
X628650Y669925D02*
G54D10*
D03*
X628650Y755650D02*
G54D10*
D03*
X654050Y755650D02*
G54D10*
D03*
X698500Y774700D02*
G54D10*
D03*
X784225Y774700D02*
G54D10*
D03*
X911225Y825500D02*
G54D10*
D03*
X911225Y850900D02*
G54D10*
D03*
X889000Y885825D02*
G54D10*
D03*
X889000Y800100D02*
G54D10*
D03*
X996950Y825500D02*
G54D10*
D03*
X996950Y850900D02*
G54D10*
D03*
X996950Y879475D02*
G54D10*
D03*
X911225Y879475D02*
G54D10*
D03*
X923925Y908050D02*
G54D10*
D03*
X1009650Y908050D02*
G54D10*
D03*
X977900Y939800D02*
G54D10*
D03*
X923925Y971550D02*
G54D10*
D03*
X1009650Y971550D02*
G54D10*
D03*
X596900Y682625D02*
G54D10*
D03*
G36*
X587900Y742425D02*
X605900Y742425D01*
X605900Y724425D01*
X587900Y724425D01*
X587900Y742425D01*
G37*
G36*
X64025Y275700D02*
X82025Y275700D01*
X82025Y257700D01*
X64025Y257700D01*
X64025Y275700D01*
G37*
G36*
X102125Y323325D02*
X120125Y323325D01*
X120125Y305325D01*
X102125Y305325D01*
X102125Y323325D01*
G37*
X111125Y365125D02*
G54D10*
D03*
X73025Y292100D02*
G54D10*
D03*
X63500Y339725D02*
G54D10*
D03*
X63500Y365125D02*
G54D10*
D03*
X63500Y390525D02*
G54D10*
D03*
X63500Y415925D02*
G54D10*
D03*
X63500Y441325D02*
G54D10*
D03*
X63500Y466725D02*
G54D10*
D03*
X63500Y492125D02*
G54D10*
D03*
X63500Y517525D02*
G54D10*
D03*
G36*
X54500Y551925D02*
X72500Y551925D01*
X72500Y533925D01*
X54500Y533925D01*
X54500Y551925D01*
G37*
X869950Y133350D02*
G54D11*
D03*
X844550Y133350D02*
G54D11*
D03*
X819150Y133350D02*
G54D11*
D03*
X793750Y133350D02*
G54D11*
D03*
X768350Y133350D02*
G54D11*
D03*
X742950Y133350D02*
G54D11*
D03*
X717550Y133350D02*
G54D11*
D03*
X692150Y133350D02*
G54D11*
D03*
X666750Y133350D02*
G54D11*
D03*
X641350Y133350D02*
G54D11*
D03*
X615950Y133350D02*
G54D11*
D03*
X590550Y133350D02*
G54D11*
D03*
X565150Y133350D02*
G54D11*
D03*
X539750Y133350D02*
G54D11*
D03*
X514350Y133350D02*
G54D11*
D03*
X488950Y133350D02*
G54D11*
D03*
X463550Y133350D02*
G54D11*
D03*
X438150Y133350D02*
G54D11*
D03*
X412750Y133350D02*
G54D11*
D03*
X387350Y133350D02*
G54D11*
D03*
X361950Y133350D02*
G54D11*
D03*
X336550Y133350D02*
G54D11*
D03*
X311150Y133350D02*
G54D11*
D03*
X285750Y133350D02*
G54D11*
D03*
X260350Y133350D02*
G54D11*
D03*
X234950Y133350D02*
G54D11*
D03*
X209550Y133350D02*
G54D11*
D03*
X184150Y133350D02*
G54D11*
D03*
X158750Y133350D02*
G54D11*
D03*
X133350Y133350D02*
G54D11*
D03*
X107950Y133350D02*
G54D11*
D03*
X1077912Y555625D02*
G54D12*
D03*
X1084262Y628650D02*
G54D12*
D03*
X1077912Y701675D02*
G54D12*
D03*
X1077912Y739775D02*
G54D12*
D03*
X1077912Y885825D02*
G54D12*
D03*
X1084262Y812800D02*
G54D12*
D03*
G54D13*
G75*
G01X113114Y908419D02*
G03X71993Y983371I-43302J25000D01*
G01*
G54D13*
G75*
G01X103930Y931929D02*
G03X83019Y964912I-34118J1490D01*
G01*
G54D13*
G75*
G01X69812Y899269D02*
G03X73441Y899462I0J34150D01*
G01*
G54D13*
G75*
G01X69812Y883419D02*
G03X89750Y887566I0J50000D01*
G01*
G54D13*
X72231Y983059D02*
X82947Y965200D01*
G54D13*
X69850Y964803D02*
X85725Y939800D01*
X103584Y931862D01*
G54D13*
X69850Y943372D02*
X80169Y923528D01*
X112712Y908050D01*
G54D13*
X69850Y925116D02*
X89694Y887809D01*
G54D13*
X69850Y908844D02*
X75009Y899716D01*
G54D13*
G75*
G01X67607Y983371D02*
G03X26487Y908419I2181J-49952D01*
G01*
G54D13*
G75*
G01X56582Y964912D02*
G03X35671Y931929I13206J-31493D01*
G01*
G54D13*
G75*
G01X66159Y899462D02*
G03X69788Y899269I3629J33957D01*
G01*
G54D13*
G75*
G01X49851Y887566D02*
G03X69788Y883419I19937J45853D01*
G01*
G54D13*
X67369Y983059D02*
X56653Y965200D01*
G54D13*
X69750Y964803D02*
X53875Y939800D01*
X36016Y931862D01*
G54D13*
X69750Y943372D02*
X59432Y923528D01*
X26888Y908050D01*
G54D13*
X69750Y925116D02*
X49906Y887809D01*
G54D13*
X69750Y908844D02*
X64591Y899716D01*
G36*
X69850Y923925D02*
X69850Y908844D01*
X71438Y908050D01*
X73422Y905272D01*
X73422Y904081D01*
X74612Y902891D01*
X74612Y902097D01*
X75803Y900906D01*
X74216Y899319D01*
X73025Y899319D01*
X72628Y898922D01*
X69850Y898922D01*
X69850Y883841D01*
X73819Y883841D01*
X74612Y884634D01*
X77788Y884634D01*
X78581Y885428D01*
X80962Y885428D01*
X81756Y886222D01*
X84534Y886222D01*
X85328Y887016D01*
X87312Y887016D01*
X88106Y887809D01*
X88106Y889397D01*
X86916Y890588D01*
X86916Y891381D01*
X85725Y892572D01*
X85725Y894159D01*
X84534Y895350D01*
X84534Y896144D01*
X83344Y897334D01*
X83344Y898525D01*
X82153Y899716D01*
X82153Y900509D01*
X80962Y901700D01*
X80962Y903288D01*
X80169Y904081D01*
X80169Y905272D01*
X78978Y906462D01*
X78978Y907256D01*
X77788Y908447D01*
X77788Y908844D01*
X76597Y910034D01*
X76597Y911225D01*
X75803Y912019D01*
X75803Y913209D01*
X74612Y914400D01*
X74612Y915194D01*
X73422Y916384D01*
X73422Y917178D01*
X72231Y918369D01*
X72231Y919559D01*
X71438Y920353D01*
X71438Y921544D01*
X70247Y922734D01*
X69850Y923925D01*
G37*
G54D13*
X69850Y923925D02*
X69850Y908844D01*
X71438Y908050D01*
X73422Y905272D01*
X73422Y904081D01*
X74612Y902891D01*
X74612Y902097D01*
X75803Y900906D01*
X74216Y899319D01*
X73025Y899319D01*
X72628Y898922D01*
X69850Y898922D01*
X69850Y883841D01*
X73819Y883841D01*
X74612Y884634D01*
X77788Y884634D01*
X78581Y885428D01*
X80962Y885428D01*
X81756Y886222D01*
X84534Y886222D01*
X85328Y887016D01*
X87312Y887016D01*
X88106Y887809D01*
X88106Y889397D01*
X86916Y890588D01*
X86916Y891381D01*
X85725Y892572D01*
X85725Y894159D01*
X84534Y895350D01*
X84534Y896144D01*
X83344Y897334D01*
X83344Y898525D01*
X82153Y899716D01*
X82153Y900509D01*
X80962Y901700D01*
X80962Y903288D01*
X80169Y904081D01*
X80169Y905272D01*
X78978Y906462D01*
X78978Y907256D01*
X77788Y908447D01*
X77788Y908844D01*
X76597Y910034D01*
X76597Y911225D01*
X75803Y912019D01*
X75803Y913209D01*
X74612Y914400D01*
X74612Y915194D01*
X73422Y916384D01*
X73422Y917178D01*
X72231Y918369D01*
X72231Y919559D01*
X71438Y920353D01*
X71438Y921544D01*
X70247Y922734D01*
X69850Y923925D01*
G36*
X69850Y963216D02*
X69850Y943769D01*
X70644Y942975D01*
X70644Y942578D01*
X72231Y940991D01*
X72231Y939800D01*
X74216Y937816D01*
X74216Y937022D01*
X75009Y936228D01*
X75009Y935038D01*
X75803Y934244D01*
X75803Y933450D01*
X77391Y931862D01*
X77391Y930672D01*
X78184Y929878D01*
X78184Y929084D01*
X79772Y927497D01*
X79772Y926703D01*
X80566Y925909D01*
X80566Y925512D01*
X81359Y924719D01*
X81756Y924719D01*
X82947Y923528D01*
X84138Y923528D01*
X85328Y922338D01*
X86916Y922338D01*
X88106Y921147D01*
X89297Y921147D01*
X90488Y919956D01*
X91281Y919956D01*
X92472Y918766D01*
X93662Y918766D01*
X94456Y917972D01*
X95250Y917972D01*
X96441Y916781D01*
X98028Y916781D01*
X98822Y915988D01*
X100012Y915988D01*
X101203Y914797D01*
X102791Y914797D01*
X103584Y914003D01*
X104378Y914003D01*
X105569Y912812D01*
X106362Y912812D01*
X107553Y911622D01*
X108744Y911622D01*
X109934Y910431D01*
X111522Y910431D01*
X112316Y909638D01*
X113506Y910828D01*
X113506Y912019D01*
X114300Y912812D01*
X114300Y913606D01*
X115094Y914400D01*
X115094Y915591D01*
X115491Y915988D01*
X115491Y917972D01*
X116681Y919162D01*
X116681Y921544D01*
X117872Y922734D01*
X117872Y925512D01*
X118269Y925909D01*
X118269Y932259D01*
X118666Y932656D01*
X118666Y939800D01*
X118269Y940197D01*
X118269Y942975D01*
X117475Y943769D01*
X117475Y946944D01*
X116681Y947738D01*
X116681Y949722D01*
X115094Y951309D01*
X115094Y953294D01*
X113903Y954484D01*
X113903Y956072D01*
X112316Y957659D01*
X112316Y958850D01*
X110728Y960438D01*
X110728Y961231D01*
X108347Y963612D01*
X108347Y964009D01*
X101203Y971153D01*
X100409Y971153D01*
X97234Y974328D01*
X95250Y974328D01*
X93266Y976312D01*
X92075Y976312D01*
X90488Y977900D01*
X88503Y977900D01*
X86916Y979488D01*
X84931Y979488D01*
X83741Y980678D01*
X80962Y980678D01*
X80566Y981075D01*
X77391Y981075D01*
X76597Y981869D01*
X74216Y981869D01*
X74216Y980678D01*
X76200Y978694D01*
X76200Y977106D01*
X78184Y975122D01*
X78184Y973534D01*
X79375Y972344D01*
X79375Y971947D01*
X80962Y970359D01*
X80962Y969169D01*
X82550Y967581D01*
X82550Y966788D01*
X84138Y965200D01*
X86122Y965200D01*
X87709Y963612D01*
X88503Y963612D01*
X90091Y962025D01*
X90884Y962025D01*
X92472Y960438D01*
X92869Y960438D01*
X94853Y958453D01*
X94853Y958056D01*
X96838Y956072D01*
X96838Y955675D01*
X98822Y953691D01*
X98822Y952897D01*
X100409Y951309D01*
X100409Y950119D01*
X101997Y948531D01*
X101997Y946150D01*
X103188Y944959D01*
X103188Y943372D01*
X104378Y942181D01*
X104378Y931466D01*
X104775Y931069D01*
X102791Y931069D01*
X102394Y931466D01*
X101600Y931466D01*
X100409Y932656D01*
X99219Y932656D01*
X98425Y933450D01*
X97234Y933450D01*
X96044Y934641D01*
X94456Y934641D01*
X93266Y935831D01*
X91678Y935831D01*
X90884Y936625D01*
X89694Y936625D01*
X88503Y937816D01*
X87312Y937816D01*
X86519Y938609D01*
X85328Y938609D01*
X84534Y939403D01*
X84534Y940197D01*
X82947Y941784D01*
X82947Y942975D01*
X81756Y944166D01*
X81756Y945356D01*
X80169Y946944D01*
X80169Y948134D01*
X78581Y949722D01*
X78581Y950516D01*
X77391Y951706D01*
X77391Y952103D01*
X75803Y953691D01*
X75803Y954088D01*
X74216Y955675D01*
X74216Y956469D01*
X73025Y957659D01*
X73025Y958850D01*
X71834Y960041D01*
X71834Y960834D01*
X70247Y962422D01*
X69850Y963216D01*
G37*
G54D13*
X69850Y963216D02*
X69850Y943769D01*
X70644Y942975D01*
X70644Y942578D01*
X72231Y940991D01*
X72231Y939800D01*
X74216Y937816D01*
X74216Y937022D01*
X75009Y936228D01*
X75009Y935038D01*
X75803Y934244D01*
X75803Y933450D01*
X77391Y931862D01*
X77391Y930672D01*
X78184Y929878D01*
X78184Y929084D01*
X79772Y927497D01*
X79772Y926703D01*
X80566Y925909D01*
X80566Y925512D01*
X81359Y924719D01*
X81756Y924719D01*
X82947Y923528D01*
X84138Y923528D01*
X85328Y922338D01*
X86916Y922338D01*
X88106Y921147D01*
X89297Y921147D01*
X90488Y919956D01*
X91281Y919956D01*
X92472Y918766D01*
X93662Y918766D01*
X94456Y917972D01*
X95250Y917972D01*
X96441Y916781D01*
X98028Y916781D01*
X98822Y915988D01*
X100012Y915988D01*
X101203Y914797D01*
X102791Y914797D01*
X103584Y914003D01*
X104378Y914003D01*
X105569Y912812D01*
X106362Y912812D01*
X107553Y911622D01*
X108744Y911622D01*
X109934Y910431D01*
X111522Y910431D01*
X112316Y909638D01*
X113506Y910828D01*
X113506Y912019D01*
X114300Y912812D01*
X114300Y913606D01*
X115094Y914400D01*
X115094Y915591D01*
X115491Y915988D01*
X115491Y917972D01*
X116681Y919162D01*
X116681Y921544D01*
X117872Y922734D01*
X117872Y925512D01*
X118269Y925909D01*
X118269Y932259D01*
X118666Y932656D01*
X118666Y939800D01*
X118269Y940197D01*
X118269Y942975D01*
X117475Y943769D01*
X117475Y946944D01*
X116681Y947738D01*
X116681Y949722D01*
X115094Y951309D01*
X115094Y953294D01*
X113903Y954484D01*
X113903Y956072D01*
X112316Y957659D01*
X112316Y958850D01*
X110728Y960438D01*
X110728Y961231D01*
X108347Y963612D01*
X108347Y964009D01*
X101203Y971153D01*
X100409Y971153D01*
X97234Y974328D01*
X95250Y974328D01*
X93266Y976312D01*
X92075Y976312D01*
X90488Y977900D01*
X88503Y977900D01*
X86916Y979488D01*
X84931Y979488D01*
X83741Y980678D01*
X80962Y980678D01*
X80566Y981075D01*
X77391Y981075D01*
X76597Y981869D01*
X74216Y981869D01*
X74216Y980678D01*
X76200Y978694D01*
X76200Y977106D01*
X78184Y975122D01*
X78184Y973534D01*
X79375Y972344D01*
X79375Y971947D01*
X80962Y970359D01*
X80962Y969169D01*
X82550Y967581D01*
X82550Y966788D01*
X84138Y965200D01*
X86122Y965200D01*
X87709Y963612D01*
X88503Y963612D01*
X90091Y962025D01*
X90884Y962025D01*
X92472Y960438D01*
X92869Y960438D01*
X94853Y958453D01*
X94853Y958056D01*
X96838Y956072D01*
X96838Y955675D01*
X98822Y953691D01*
X98822Y952897D01*
X100409Y951309D01*
X100409Y950119D01*
X101997Y948531D01*
X101997Y946150D01*
X103188Y944959D01*
X103188Y943372D01*
X104378Y942181D01*
X104378Y931466D01*
X104775Y931069D01*
X102791Y931069D01*
X102394Y931466D01*
X101600Y931466D01*
X100409Y932656D01*
X99219Y932656D01*
X98425Y933450D01*
X97234Y933450D01*
X96044Y934641D01*
X94456Y934641D01*
X93266Y935831D01*
X91678Y935831D01*
X90884Y936625D01*
X89694Y936625D01*
X88503Y937816D01*
X87312Y937816D01*
X86519Y938609D01*
X85328Y938609D01*
X84534Y939403D01*
X84534Y940197D01*
X82947Y941784D01*
X82947Y942975D01*
X81756Y944166D01*
X81756Y945356D01*
X80169Y946944D01*
X80169Y948134D01*
X78581Y949722D01*
X78581Y950516D01*
X77391Y951706D01*
X77391Y952103D01*
X75803Y953691D01*
X75803Y954088D01*
X74216Y955675D01*
X74216Y956469D01*
X73025Y957659D01*
X73025Y958850D01*
X71834Y960041D01*
X71834Y960834D01*
X70247Y962422D01*
X69850Y963216D01*
G36*
X69849Y963216D02*
X69849Y943769D01*
X69056Y942975D01*
X69056Y942578D01*
X67468Y940991D01*
X67468Y939800D01*
X65484Y937816D01*
X65484Y937022D01*
X64690Y936228D01*
X64690Y935038D01*
X63896Y934244D01*
X63896Y933450D01*
X62309Y931862D01*
X62309Y930672D01*
X61515Y929878D01*
X61515Y929084D01*
X59928Y927497D01*
X59928Y926703D01*
X59134Y925909D01*
X59134Y925512D01*
X58340Y924719D01*
X57943Y924719D01*
X56752Y923528D01*
X55562Y923528D01*
X54371Y922338D01*
X52784Y922338D01*
X51593Y921147D01*
X50402Y921147D01*
X49212Y919956D01*
X48418Y919956D01*
X47228Y918766D01*
X46037Y918766D01*
X45243Y917972D01*
X44449Y917972D01*
X43259Y916781D01*
X41671Y916781D01*
X40878Y915988D01*
X39687Y915988D01*
X38496Y914797D01*
X36909Y914797D01*
X36115Y914003D01*
X35321Y914003D01*
X34131Y912812D01*
X33337Y912812D01*
X32146Y911622D01*
X30956Y911622D01*
X29765Y910431D01*
X28178Y910431D01*
X27384Y909638D01*
X26193Y910828D01*
X26193Y912019D01*
X25399Y912812D01*
X25399Y913606D01*
X24606Y914400D01*
X24606Y915591D01*
X24209Y915988D01*
X24209Y917972D01*
X23018Y919162D01*
X23018Y921544D01*
X21828Y922734D01*
X21828Y925512D01*
X21431Y925909D01*
X21431Y932259D01*
X21034Y932656D01*
X21034Y939800D01*
X21431Y940197D01*
X21431Y942975D01*
X22224Y943769D01*
X22224Y946944D01*
X23018Y947738D01*
X23018Y949722D01*
X24606Y951309D01*
X24606Y953294D01*
X25796Y954484D01*
X25796Y956072D01*
X27384Y957659D01*
X27384Y958850D01*
X28971Y960438D01*
X28971Y961231D01*
X31352Y963612D01*
X31352Y964009D01*
X38496Y971153D01*
X39290Y971153D01*
X42465Y974328D01*
X44449Y974328D01*
X46434Y976312D01*
X47624Y976312D01*
X49212Y977900D01*
X51196Y977900D01*
X52784Y979488D01*
X54768Y979488D01*
X55959Y980678D01*
X58737Y980678D01*
X59134Y981075D01*
X62309Y981075D01*
X63102Y981869D01*
X65484Y981869D01*
X65484Y980678D01*
X63499Y978694D01*
X63499Y977106D01*
X61515Y975122D01*
X61515Y973534D01*
X60324Y972344D01*
X60324Y971947D01*
X58737Y970359D01*
X58737Y969169D01*
X57149Y967581D01*
X57149Y966788D01*
X55562Y965200D01*
X53578Y965200D01*
X51990Y963612D01*
X51196Y963612D01*
X49609Y962025D01*
X48815Y962025D01*
X47228Y960438D01*
X46831Y960438D01*
X44846Y958453D01*
X44846Y958056D01*
X42862Y956072D01*
X42862Y955675D01*
X40878Y953691D01*
X40878Y952897D01*
X39290Y951309D01*
X39290Y950119D01*
X37702Y948531D01*
X37702Y946150D01*
X36512Y944959D01*
X36512Y943372D01*
X35321Y942181D01*
X35321Y931466D01*
X34924Y931069D01*
X36909Y931069D01*
X37306Y931466D01*
X38099Y931466D01*
X39290Y932656D01*
X40481Y932656D01*
X41274Y933450D01*
X42465Y933450D01*
X43656Y934641D01*
X45243Y934641D01*
X46434Y935831D01*
X48021Y935831D01*
X48815Y936625D01*
X50006Y936625D01*
X51196Y937816D01*
X52387Y937816D01*
X53181Y938609D01*
X54371Y938609D01*
X55165Y939403D01*
X55165Y940197D01*
X56752Y941784D01*
X56752Y942975D01*
X57943Y944166D01*
X57943Y945356D01*
X59531Y946944D01*
X59531Y948134D01*
X61118Y949722D01*
X61118Y950516D01*
X62309Y951706D01*
X62309Y952103D01*
X63896Y953691D01*
X63896Y954088D01*
X65484Y955675D01*
X65484Y956469D01*
X66674Y957659D01*
X66674Y958850D01*
X67865Y960041D01*
X67865Y960834D01*
X69452Y962422D01*
X69849Y963216D01*
G37*
G54D13*
X69849Y963216D02*
X69849Y943769D01*
X69056Y942975D01*
X69056Y942578D01*
X67468Y940991D01*
X67468Y939800D01*
X65484Y937816D01*
X65484Y937022D01*
X64690Y936228D01*
X64690Y935038D01*
X63896Y934244D01*
X63896Y933450D01*
X62309Y931862D01*
X62309Y930672D01*
X61515Y929878D01*
X61515Y929084D01*
X59928Y927497D01*
X59928Y926703D01*
X59134Y925909D01*
X59134Y925512D01*
X58340Y924719D01*
X57943Y924719D01*
X56752Y923528D01*
X55562Y923528D01*
X54371Y922338D01*
X52784Y922338D01*
X51593Y921147D01*
X50402Y921147D01*
X49212Y919956D01*
X48418Y919956D01*
X47228Y918766D01*
X46037Y918766D01*
X45243Y917972D01*
X44449Y917972D01*
X43259Y916781D01*
X41671Y916781D01*
X40878Y915988D01*
X39687Y915988D01*
X38496Y914797D01*
X36909Y914797D01*
X36115Y914003D01*
X35321Y914003D01*
X34131Y912812D01*
X33337Y912812D01*
X32146Y911622D01*
X30956Y911622D01*
X29765Y910431D01*
X28178Y910431D01*
X27384Y909638D01*
X26193Y910828D01*
X26193Y912019D01*
X25399Y912812D01*
X25399Y913606D01*
X24606Y914400D01*
X24606Y915591D01*
X24209Y915988D01*
X24209Y917972D01*
X23018Y919162D01*
X23018Y921544D01*
X21828Y922734D01*
X21828Y925512D01*
X21431Y925909D01*
X21431Y932259D01*
X21034Y932656D01*
X21034Y939800D01*
X21431Y940197D01*
X21431Y942975D01*
X22224Y943769D01*
X22224Y946944D01*
X23018Y947738D01*
X23018Y949722D01*
X24606Y951309D01*
X24606Y953294D01*
X25796Y954484D01*
X25796Y956072D01*
X27384Y957659D01*
X27384Y958850D01*
X28971Y960438D01*
X28971Y961231D01*
X31352Y963612D01*
X31352Y964009D01*
X38496Y971153D01*
X39290Y971153D01*
X42465Y974328D01*
X44449Y974328D01*
X46434Y976312D01*
X47624Y976312D01*
X49212Y977900D01*
X51196Y977900D01*
X52784Y979488D01*
X54768Y979488D01*
X55959Y980678D01*
X58737Y980678D01*
X59134Y981075D01*
X62309Y981075D01*
X63102Y981869D01*
X65484Y981869D01*
X65484Y980678D01*
X63499Y978694D01*
X63499Y977106D01*
X61515Y975122D01*
X61515Y973534D01*
X60324Y972344D01*
X60324Y971947D01*
X58737Y970359D01*
X58737Y969169D01*
X57149Y967581D01*
X57149Y966788D01*
X55562Y965200D01*
X53578Y965200D01*
X51990Y963612D01*
X51196Y963612D01*
X49609Y962025D01*
X48815Y962025D01*
X47228Y960438D01*
X46831Y960438D01*
X44846Y958453D01*
X44846Y958056D01*
X42862Y956072D01*
X42862Y955675D01*
X40878Y953691D01*
X40878Y952897D01*
X39290Y951309D01*
X39290Y950119D01*
X37702Y948531D01*
X37702Y946150D01*
X36512Y944959D01*
X36512Y943372D01*
X35321Y942181D01*
X35321Y931466D01*
X34924Y931069D01*
X36909Y931069D01*
X37306Y931466D01*
X38099Y931466D01*
X39290Y932656D01*
X40481Y932656D01*
X41274Y933450D01*
X42465Y933450D01*
X43656Y934641D01*
X45243Y934641D01*
X46434Y935831D01*
X48021Y935831D01*
X48815Y936625D01*
X50006Y936625D01*
X51196Y937816D01*
X52387Y937816D01*
X53181Y938609D01*
X54371Y938609D01*
X55165Y939403D01*
X55165Y940197D01*
X56752Y941784D01*
X56752Y942975D01*
X57943Y944166D01*
X57943Y945356D01*
X59531Y946944D01*
X59531Y948134D01*
X61118Y949722D01*
X61118Y950516D01*
X62309Y951706D01*
X62309Y952103D01*
X63896Y953691D01*
X63896Y954088D01*
X65484Y955675D01*
X65484Y956469D01*
X66674Y957659D01*
X66674Y958850D01*
X67865Y960041D01*
X67865Y960834D01*
X69452Y962422D01*
X69849Y963216D01*
G36*
X69851Y923925D02*
X69851Y908844D01*
X68262Y908050D01*
X66279Y905272D01*
X66279Y904081D01*
X65088Y902891D01*
X65088Y902097D01*
X63898Y900906D01*
X65485Y899319D01*
X66676Y899319D01*
X67073Y898922D01*
X69851Y898922D01*
X69851Y883841D01*
X65882Y883841D01*
X65088Y884634D01*
X61913Y884634D01*
X61120Y885428D01*
X58738Y885428D01*
X57944Y886222D01*
X55166Y886222D01*
X54373Y887016D01*
X52388Y887016D01*
X51594Y887809D01*
X51594Y889397D01*
X52785Y890588D01*
X52785Y891381D01*
X53976Y892572D01*
X53976Y894159D01*
X55166Y895350D01*
X55166Y896144D01*
X56357Y897334D01*
X56357Y898525D01*
X57548Y899716D01*
X57548Y900509D01*
X58738Y901700D01*
X58738Y903288D01*
X59532Y904081D01*
X59532Y905272D01*
X60723Y906462D01*
X60723Y907256D01*
X61913Y908447D01*
X61913Y908844D01*
X63104Y910034D01*
X63104Y911225D01*
X63898Y912019D01*
X63898Y913209D01*
X65088Y914400D01*
X65088Y915194D01*
X66279Y916384D01*
X66279Y917178D01*
X67470Y918369D01*
X67470Y919559D01*
X68263Y920353D01*
X68263Y921544D01*
X69454Y922734D01*
X69851Y923925D01*
G37*
G54D13*
X69851Y923925D02*
X69851Y908844D01*
X68262Y908050D01*
X66279Y905272D01*
X66279Y904081D01*
X65088Y902891D01*
X65088Y902097D01*
X63898Y900906D01*
X65485Y899319D01*
X66676Y899319D01*
X67073Y898922D01*
X69851Y898922D01*
X69851Y883841D01*
X65882Y883841D01*
X65088Y884634D01*
X61913Y884634D01*
X61120Y885428D01*
X58738Y885428D01*
X57944Y886222D01*
X55166Y886222D01*
X54373Y887016D01*
X52388Y887016D01*
X51594Y887809D01*
X51594Y889397D01*
X52785Y890588D01*
X52785Y891381D01*
X53976Y892572D01*
X53976Y894159D01*
X55166Y895350D01*
X55166Y896144D01*
X56357Y897334D01*
X56357Y898525D01*
X57548Y899716D01*
X57548Y900509D01*
X58738Y901700D01*
X58738Y903288D01*
X59532Y904081D01*
X59532Y905272D01*
X60723Y906462D01*
X60723Y907256D01*
X61913Y908447D01*
X61913Y908844D01*
X63104Y910034D01*
X63104Y911225D01*
X63898Y912019D01*
X63898Y913209D01*
X65088Y914400D01*
X65088Y915194D01*
X66279Y916384D01*
X66279Y917178D01*
X67470Y918369D01*
X67470Y919559D01*
X68263Y920353D01*
X68263Y921544D01*
X69454Y922734D01*
X69851Y923925D01*
G54D13*
X1003845Y329608D02*
X1048746Y284707D01*
X1021805Y257766D01*
X976904Y302668D01*
X1003845Y329608D01*
G54D13*
X990374Y325118D02*
X997110Y318383D01*
G54D13*
X992619Y313893D02*
X985884Y320628D01*
G54D13*
X981394Y316138D02*
X988129Y309403D01*
G54D13*
X1035276Y262257D02*
X1028540Y268992D01*
G54D13*
X1033030Y273482D02*
X1039766Y266747D01*
G54D13*
X1044256Y271237D02*
X1037521Y277972D01*
G54D13*
X1017315Y325118D02*
X1010580Y318383D01*
G54D13*
X1015070Y313893D02*
X1021805Y320628D01*
G54D13*
X1026295Y316138D02*
X1019560Y309403D01*
G54D13*
X1024050Y304913D02*
X1030785Y311648D01*
G54D13*
X1035276Y307158D02*
X1028540Y300423D01*
G54D13*
X1033030Y295933D02*
X1039766Y302668D01*
G54D13*
X1044256Y298178D02*
X1037521Y291442D01*
G54D13*
X1008335Y262257D02*
X1015070Y268992D01*
G54D13*
X1010580Y273482D02*
X1003845Y266747D01*
G54D13*
X999355Y271237D02*
X1006090Y277972D01*
G54D13*
X1001600Y282462D02*
X994864Y275727D01*
G54D13*
X990374Y280217D02*
X997110Y286952D01*
G54D13*
X992619Y291442D02*
X985884Y284707D01*
G54D13*
X981394Y289197D02*
X988129Y295933D01*
G54D14*
X1026925Y284076D02*
X1033211Y290362D01*
G54D14*
X1034468Y289105D02*
X1031954Y291619D01*
G54D14*
X1023468Y287534D02*
X1029754Y293819D01*
G54D14*
X1025982Y290048D02*
X1026454Y291148D01*
X1026061Y292012D01*
X1025197Y292405D01*
X1024097Y291933D01*
X1021582Y289419D01*
G54D14*
X1019382Y291619D02*
X1022918Y295155D01*
G54D14*
X1024096Y296333D02*
X1024096Y296333D01*
G54D14*
X1017575Y294212D02*
X1016554Y294448D01*
X1015926Y295076D01*
X1015690Y296098D01*
X1016476Y296883D01*
X1017183Y296962D01*
X1018832Y296097D01*
X1019540Y296176D01*
X1020325Y296962D01*
X1020090Y297983D01*
X1019461Y298612D01*
X1018440Y298847D01*
G54D14*
X1010834Y300167D02*
X1014370Y303703D01*
G54D14*
X1015548Y304882D02*
X1015548Y304882D01*
G54D14*
X1009027Y302760D02*
X1008006Y302996D01*
X1007377Y303624D01*
X1007142Y304646D01*
X1007927Y305431D01*
X1008634Y305510D01*
X1010284Y304646D01*
X1010991Y304724D01*
X1011777Y305510D01*
X1011541Y306531D01*
X1010913Y307160D01*
X1009891Y307396D01*
G54D14*
X1005429Y311858D02*
X1005193Y312880D01*
X1004439Y313634D01*
X1003150Y313351D01*
X1000400Y310601D01*
G54D14*
X1001579Y311780D02*
X1002679Y312251D01*
X1003464Y311780D01*
X1003936Y310994D01*
X1003464Y309894D01*
X1002553Y309234D01*
X1001658Y309344D01*
X1001343Y309658D01*
X1001218Y309784D01*
X1001108Y310680D01*
X1001579Y311780D01*
G54D14*
X1023916Y269115D02*
X1030201Y275400D01*
X1028630Y276972D01*
X1027608Y277207D01*
X1026509Y276736D01*
X1025723Y275950D01*
X1025251Y274850D01*
X1025487Y273829D01*
X1027058Y272258D01*
G54D14*
X1017866Y277522D02*
X1017394Y276422D01*
X1017630Y275400D01*
X1018259Y274772D01*
X1019280Y274536D01*
X1020380Y275008D01*
X1024308Y278936D01*
X1024780Y280036D01*
X1024544Y281057D01*
X1023916Y281686D01*
X1022894Y281922D01*
X1021794Y281450D01*
G54D14*
X1014487Y278543D02*
X1020772Y284829D01*
X1019201Y286400D01*
X1018180Y286636D01*
X1017080Y286165D01*
X1016294Y285379D01*
X1015823Y284279D01*
X1016058Y283258D01*
X1015037Y283493D01*
X1013937Y283022D01*
X1013152Y282236D01*
X1012680Y281136D01*
X1012916Y280115D01*
X1014487Y278543D01*
G54D14*
X1017630Y281686D02*
X1016058Y283258D01*
G54D14*
X1011046Y289056D02*
X1005939Y283949D01*
G54D14*
X1008689Y286699D02*
X1007353Y285992D01*
X1006567Y286463D01*
X1006096Y287249D01*
X1006567Y288349D01*
X1008139Y289920D01*
X1009239Y290392D01*
X1010103Y289999D01*
X1010496Y289135D01*
X1009867Y287877D01*
G54D14*
X1006567Y292749D02*
X1006332Y293770D01*
X1005577Y294524D01*
X1004289Y294242D01*
X1001539Y291492D01*
G54D14*
X1002717Y292670D02*
X1003817Y293142D01*
X1004603Y292670D01*
X1005074Y291885D01*
X1004603Y290785D01*
X1003692Y290125D01*
X1002796Y290235D01*
X1002482Y290549D01*
X1002356Y290675D01*
X1002246Y291570D01*
X1002717Y292670D01*
G54D14*
X1004996Y300606D02*
X999103Y294713D01*
X998396Y294635D01*
X998239Y295106D01*
G54D14*
X1002874Y297227D02*
X1001617Y298484D01*
G54D14*
X997610Y302020D02*
X998475Y301627D01*
X998867Y300763D01*
X998396Y299663D01*
X996825Y298092D01*
X995725Y297620D01*
X994939Y298092D01*
X994468Y298877D01*
G54D14*
X992111Y300920D02*
X998396Y307205D01*
G54D14*
X994625Y303434D02*
X995096Y304534D01*
X994704Y305398D01*
X993839Y305791D01*
X992739Y305320D01*
X990225Y302805D01*
G54D14*
X994310Y311291D02*
X989596Y306577D01*
G54D14*
X988025Y305006D02*
X988025Y305006D01*
X946150Y422275D02*
G54D15*
D03*
X946150Y403225D02*
G54D15*
D03*
X965200Y403225D02*
G54D15*
D03*
X965200Y422275D02*
G54D15*
D03*
X346074Y200025D02*
G54D10*
D03*
X371474Y200025D02*
G54D10*
D03*
X488950Y527050D02*
G54D16*
D03*
X508000Y527050D02*
G54D16*
D03*
X241300Y946150D02*
G54D16*
D03*
X260350Y946150D02*
G54D16*
D03*
M02*
