%
M48
M72
T01C0.0197
T02C0.0320
T03C0.0400
%
T01
X19350Y4475
X20475Y4850
X24100Y7600
X27600Y7600
X27725Y8100
X27725Y9100
X32600Y7225
X32475Y2975
X27600Y2600
X26100Y1600
T02
X18100Y6600
X20100Y6600
X21600Y6100
X21600Y5100
X21600Y4100
X21600Y3100
X21600Y2100
X21600Y1100
X24600Y1100
X25600Y1100
X26600Y1100
X28600Y1100
X29600Y1100
X30600Y1100
X30600Y2100
X29600Y2100
X28600Y2100
X26600Y2100
X25600Y2100
X24600Y2100
X24600Y3100
X25600Y3100
X26600Y3100
X28600Y3100
X29600Y3100
X30600Y3475
X31600Y3475
X33600Y3475
X34600Y3475
X34600Y4475
X33600Y4475
X31600Y4475
X30600Y4475
X29600Y4100
X28600Y4100
X26600Y4100
X25600Y4100
X24600Y4100
X24600Y5100
X25600Y5100
X26600Y5100
X28600Y5100
X29600Y5100
X30600Y5475
X31600Y5475
X33600Y5475
X34600Y5475
X34600Y6475
X33600Y6475
X31600Y6475
X30600Y6475
X29600Y6100
X28600Y6100
X26600Y6100
X25600Y6100
X24600Y6100
X24600Y7100
X25600Y7100
X26600Y7100
X28600Y7100
X29600Y7100
X30600Y7475
X31600Y7475
X33600Y7475
X34600Y7475
X34600Y8475
X33600Y8475
X31600Y8475
X30600Y8475
X29600Y8100
X28600Y8100
X26600Y8100
X25600Y8100
X24600Y8100
X24600Y9100
X25600Y9100
X26600Y9100
X28600Y9100
X29600Y9100
X30600Y9475
X31600Y9475
X33600Y9475
X34600Y9475
X21600Y9100
X21600Y8100
X20100Y7600
X21600Y7100
X18100Y7600
X33600Y2100
X33600Y1100
T03
X2100Y9475
X1100Y9475
X1100Y10475
X2100Y10475
X2100Y11475
X1100Y11475
X1100Y12475
X2100Y12475
M30
