G75*
G70*
%OFA0B0*%
%FSLAX24Y24*%
%IPPOS*%
%LPD*%
%AMOC8*
5,1,8,0,0,1.08239X$1,22.5*
%
%ADD10R,0.0520X0.0520*%
%ADD11C,0.0520*%
%ADD12OC8,0.0520*%
%ADD13R,0.0512X0.0630*%
%ADD14OC8,0.0600*%
%ADD15C,0.0160*%
%ADD16C,0.0357*%
%ADD17C,0.0100*%
D10*
X021600Y009100D03*
X025600Y009100D03*
X026600Y009100D03*
X033600Y003475D03*
X034600Y003475D03*
D11*
X034600Y004475D03*
X033600Y004475D03*
X031600Y004475D03*
X030600Y004475D03*
X029600Y004100D03*
X028600Y004100D03*
X026600Y004100D03*
X025600Y004100D03*
X024600Y004100D03*
X024600Y005100D03*
X025600Y005100D03*
X026600Y005100D03*
X028600Y005100D03*
X029600Y005100D03*
X030600Y005475D03*
X031600Y005475D03*
X033600Y005475D03*
X034600Y005475D03*
X034600Y006475D03*
X033600Y006475D03*
X031600Y006475D03*
X030600Y006475D03*
X029600Y006100D03*
X028600Y006100D03*
X026600Y006100D03*
X025600Y006100D03*
X024600Y006100D03*
X024600Y007100D03*
X025600Y007100D03*
X026600Y007100D03*
X028600Y007100D03*
X029600Y007100D03*
X030600Y007475D03*
X031600Y007475D03*
X033600Y007475D03*
X034600Y007475D03*
X034600Y008475D03*
X033600Y008475D03*
X031600Y008475D03*
X030600Y008475D03*
X029600Y008100D03*
X028600Y008100D03*
X026600Y008100D03*
X025600Y008100D03*
X024600Y008100D03*
X024600Y009100D03*
X021600Y008100D03*
X021600Y007100D03*
X021600Y006100D03*
X021600Y005100D03*
X021600Y004100D03*
X021600Y003100D03*
X021600Y002100D03*
X021600Y001100D03*
X024600Y001100D03*
X025600Y001100D03*
X026600Y001100D03*
X028600Y001100D03*
X029600Y001100D03*
X029600Y002100D03*
X028600Y002100D03*
X026600Y002100D03*
X025600Y002100D03*
X024600Y002100D03*
X024600Y003100D03*
X025600Y003100D03*
X026600Y003100D03*
X028600Y003100D03*
X029600Y003100D03*
X030600Y003475D03*
X031600Y003475D03*
X029600Y009100D03*
X028600Y009100D03*
X030600Y009475D03*
X031600Y009475D03*
X033600Y009475D03*
X034600Y009475D03*
D12*
X020100Y007600D03*
X018100Y007600D03*
X018100Y006600D03*
X020100Y006600D03*
X030600Y002100D03*
X030600Y001100D03*
X033600Y001100D03*
X033600Y002100D03*
D13*
X020494Y008600D03*
X019706Y008600D03*
X019706Y009475D03*
X020494Y009475D03*
D14*
X002100Y009475D03*
X001100Y009475D03*
X001100Y010475D03*
X002100Y010475D03*
X002100Y011475D03*
X001100Y011475D03*
X001100Y012475D03*
X002100Y012475D03*
D15*
X018100Y009225D02*
X018100Y007600D01*
X019706Y007994D02*
X020100Y007600D01*
X019706Y007994D02*
X019706Y008600D01*
X020494Y008600D02*
X029975Y008600D01*
X030350Y008975D01*
X034100Y008975D01*
X034600Y008475D01*
X034600Y007475D02*
X034600Y006475D01*
X033600Y006475D02*
X033600Y005475D01*
X034100Y004975D02*
X034600Y005475D01*
X034100Y004975D02*
X033350Y004975D01*
X033100Y004725D01*
X033100Y003975D01*
X033600Y003475D01*
X032600Y004475D02*
X032100Y003975D01*
X031600Y003475D01*
X030600Y003475D02*
X030100Y003975D01*
X030100Y004600D01*
X029600Y005100D01*
X031600Y005475D02*
X031600Y006475D01*
X032600Y007225D02*
X032600Y004475D01*
X027600Y002600D02*
X027600Y007600D01*
X027725Y008100D02*
X028225Y007600D01*
X029850Y007600D01*
X030225Y007975D01*
X031100Y007975D01*
X031600Y007475D01*
X027725Y009100D02*
X027225Y009600D01*
X021100Y009600D01*
X020975Y009475D01*
X020494Y009475D01*
X019706Y009475D02*
X018350Y009475D01*
X018100Y009225D01*
X024100Y007600D02*
X024350Y007600D01*
X025850Y007600D01*
X026100Y007350D01*
X026100Y001600D01*
X024600Y005100D02*
X023100Y006600D01*
X021100Y006600D01*
X020600Y006600D01*
X020100Y006600D01*
X018100Y006600D01*
D16*
X020475Y004850D03*
X019350Y004475D03*
X026100Y001600D03*
X027600Y002600D03*
X032475Y002975D03*
X032600Y007225D03*
X027725Y008100D03*
X027600Y007600D03*
X024100Y007600D03*
X027725Y009100D03*
D17*
X001475Y003975D02*
X001350Y004100D01*
X001350Y008475D01*
X000600Y009225D01*
X000600Y009975D01*
X001100Y010475D01*
X001600Y010975D02*
X001100Y011475D01*
X002100Y011475D02*
X002600Y010975D01*
X002600Y009225D01*
X001850Y008475D01*
X001850Y004600D01*
X001975Y004475D01*
X003350Y004475D01*
X018475Y004475D01*
X019475Y005475D01*
X020975Y005475D01*
X021100Y005600D01*
X021350Y005600D01*
X021975Y005600D01*
X022475Y005100D01*
X022475Y001975D01*
X021600Y001100D01*
X021100Y000725D02*
X021100Y003725D01*
X020850Y003975D01*
X002600Y003975D01*
X001475Y003975D01*
X001725Y004225D02*
X001600Y004350D01*
X001600Y010975D01*
X001725Y004225D02*
X003225Y004225D01*
X018600Y004225D01*
X018975Y004600D01*
X019600Y005225D01*
X020600Y005225D01*
X021225Y004600D01*
X021850Y004600D01*
X022100Y004350D01*
X022100Y002600D01*
X021600Y002100D01*
X024100Y000600D02*
X024600Y001100D01*
X024100Y000600D02*
X021225Y000600D01*
X021100Y000725D01*
X019350Y004475D02*
X019725Y004850D01*
X020475Y004850D01*
X032475Y002975D02*
X033975Y002975D01*
X034100Y003100D01*
X034100Y003975D01*
X034600Y004475D01*
M02*
