G75*
G70*
%OFA0B0*%
%FSLAX24Y24*%
%IPPOS*%
%LPD*%
%AMOC8*
5,1,8,0,0,1.08239X$1,22.5*
%
%ADD10C,0.0160*%
%ADD11R,0.0520X0.0520*%
%ADD12C,0.0520*%
%ADD13OC8,0.0520*%
%ADD14R,0.0512X0.0591*%
%ADD15R,0.0591X0.0512*%
%ADD16OC8,0.0600*%
%ADD17C,0.0357*%
%ADD18C,0.0100*%
D10*
X021600Y005100D02*
X021975Y005100D01*
X022100Y004975D01*
X022726Y004975D01*
X023474Y004975D02*
X024100Y004975D01*
X024225Y005100D01*
X024600Y005100D01*
X025100Y004600D01*
X028100Y004600D01*
X028600Y005100D01*
X029600Y005100D01*
X031100Y004225D02*
X031350Y003975D01*
X032600Y003975D01*
X032975Y003600D01*
X032975Y001725D01*
X033600Y001100D01*
X033600Y002100D02*
X033600Y003475D01*
X034100Y003975D02*
X034600Y003475D01*
X034100Y003975D02*
X034100Y004225D01*
X034100Y005725D01*
X033850Y005975D01*
X032975Y005975D01*
X031975Y006975D01*
X030350Y006975D01*
X030100Y007225D01*
X030100Y009350D01*
X029850Y009600D01*
X024100Y009600D01*
X023600Y009100D01*
X022475Y009100D01*
X021600Y009100D01*
X021600Y008100D02*
X023350Y008100D01*
X023475Y008100D01*
X023850Y008100D01*
X024350Y008600D01*
X026850Y008600D01*
X027225Y008225D01*
X027225Y007850D01*
X027475Y007600D01*
X027600Y007600D01*
X027350Y007100D02*
X026850Y007600D01*
X025100Y007600D01*
X024600Y007100D01*
X024100Y007600D02*
X023600Y007100D01*
X021600Y007100D01*
X021600Y006100D02*
X023850Y006100D01*
X024350Y006600D01*
X025100Y006600D01*
X025600Y006100D01*
X026600Y006100D01*
X025600Y005100D02*
X024975Y005600D01*
X024225Y005600D01*
X024100Y005600D01*
X022100Y005600D01*
X021600Y005100D01*
X025600Y005100D02*
X026600Y005100D01*
X026600Y004100D02*
X025600Y004100D01*
X023100Y003350D02*
X023600Y000975D01*
X022600Y000975D02*
X023100Y003350D01*
X025600Y003100D02*
X026600Y003100D01*
X027600Y002600D02*
X030100Y002600D01*
X030600Y002100D01*
X029600Y002100D02*
X028600Y002100D01*
X030100Y001600D02*
X030600Y001100D01*
X030100Y001600D02*
X026100Y001600D01*
X026600Y001100D02*
X025600Y001100D01*
X024100Y001850D02*
X022100Y002100D01*
X022393Y002100D02*
X022395Y002153D01*
X022401Y002205D01*
X022411Y002257D01*
X022424Y002308D01*
X022442Y002358D01*
X022463Y002407D01*
X022488Y002454D01*
X022516Y002498D01*
X022547Y002541D01*
X022582Y002581D01*
X022619Y002618D01*
X022659Y002653D01*
X022702Y002684D01*
X022747Y002712D01*
X022793Y002737D01*
X022842Y002758D01*
X022892Y002776D01*
X022943Y002789D01*
X022995Y002799D01*
X023047Y002805D01*
X023100Y002807D01*
X023153Y002805D01*
X023205Y002799D01*
X023257Y002789D01*
X023308Y002776D01*
X023358Y002758D01*
X023407Y002737D01*
X023454Y002712D01*
X023498Y002684D01*
X023541Y002653D01*
X023581Y002618D01*
X023618Y002581D01*
X023653Y002541D01*
X023684Y002498D01*
X023712Y002453D01*
X023737Y002407D01*
X023758Y002358D01*
X023776Y002308D01*
X023789Y002257D01*
X023799Y002205D01*
X023805Y002153D01*
X023807Y002100D01*
X023805Y002047D01*
X023799Y001995D01*
X023789Y001943D01*
X023776Y001892D01*
X023758Y001842D01*
X023737Y001793D01*
X023712Y001746D01*
X023684Y001702D01*
X023653Y001659D01*
X023618Y001619D01*
X023581Y001582D01*
X023541Y001547D01*
X023498Y001516D01*
X023453Y001488D01*
X023407Y001463D01*
X023358Y001442D01*
X023308Y001424D01*
X023257Y001411D01*
X023205Y001401D01*
X023153Y001395D01*
X023100Y001393D01*
X023047Y001395D01*
X022995Y001401D01*
X022943Y001411D01*
X022892Y001424D01*
X022842Y001442D01*
X022793Y001463D01*
X022746Y001488D01*
X022702Y001516D01*
X022659Y001547D01*
X022619Y001582D01*
X022582Y001619D01*
X022547Y001659D01*
X022516Y001702D01*
X022488Y001747D01*
X022463Y001793D01*
X022442Y001842D01*
X022424Y001892D01*
X022411Y001943D01*
X022401Y001995D01*
X022395Y002047D01*
X022393Y002100D01*
X025600Y002100D02*
X026600Y002100D01*
X028600Y001100D02*
X029600Y001100D01*
X029600Y003100D02*
X028600Y003100D01*
X030600Y003475D02*
X031600Y003475D01*
X031100Y004225D02*
X031100Y005975D01*
X030600Y006475D01*
X029600Y006100D02*
X028600Y006100D01*
X028600Y007100D02*
X027350Y007100D01*
X026600Y007100D02*
X025600Y007100D01*
X025600Y008100D02*
X026600Y008100D01*
X027725Y008100D02*
X027725Y009100D01*
X028600Y009100D02*
X029600Y009100D01*
X030600Y009475D02*
X030600Y008475D01*
X032600Y008849D02*
X032600Y009225D01*
X032850Y009475D01*
X033600Y009475D01*
X034600Y009475D01*
X032600Y008101D02*
X032600Y007225D01*
X029600Y007100D02*
X028600Y007100D01*
X031600Y004475D02*
X032600Y005475D01*
X033600Y005475D01*
X029600Y004100D02*
X028600Y004100D01*
X026600Y009100D02*
X025600Y009100D01*
D11*
X025600Y009100D03*
X026600Y009100D03*
X021600Y009100D03*
X033600Y003475D03*
X034600Y003475D03*
D12*
X034600Y004475D03*
X033600Y004475D03*
X031600Y004475D03*
X030600Y004475D03*
X029600Y004100D03*
X028600Y004100D03*
X026600Y004100D03*
X025600Y004100D03*
X024600Y004100D03*
X024600Y005100D03*
X025600Y005100D03*
X026600Y005100D03*
X028600Y005100D03*
X029600Y005100D03*
X030600Y005475D03*
X031600Y005475D03*
X033600Y005475D03*
X034600Y005475D03*
X034600Y006475D03*
X033600Y006475D03*
X031600Y006475D03*
X030600Y006475D03*
X029600Y006100D03*
X028600Y006100D03*
X026600Y006100D03*
X025600Y006100D03*
X024600Y006100D03*
X024600Y007100D03*
X025600Y007100D03*
X026600Y007100D03*
X028600Y007100D03*
X029600Y007100D03*
X030600Y007475D03*
X031600Y007475D03*
X033600Y007475D03*
X034600Y007475D03*
X034600Y008475D03*
X033600Y008475D03*
X031600Y008475D03*
X030600Y008475D03*
X029600Y008100D03*
X028600Y008100D03*
X026600Y008100D03*
X025600Y008100D03*
X024600Y008100D03*
X024600Y009100D03*
X021600Y008100D03*
X021600Y007100D03*
X021600Y006100D03*
X021600Y005100D03*
X021600Y004100D03*
X021600Y003100D03*
X021600Y002100D03*
X021600Y001100D03*
X024600Y001100D03*
X025600Y001100D03*
X026600Y001100D03*
X028600Y001100D03*
X029600Y001100D03*
X029600Y002100D03*
X028600Y002100D03*
X026600Y002100D03*
X025600Y002100D03*
X024600Y002100D03*
X024600Y003100D03*
X025600Y003100D03*
X026600Y003100D03*
X028600Y003100D03*
X029600Y003100D03*
X030600Y003475D03*
X031600Y003475D03*
X029600Y009100D03*
X028600Y009100D03*
X030600Y009475D03*
X031600Y009475D03*
X033600Y009475D03*
X034600Y009475D03*
D13*
X020100Y007600D03*
X018100Y007600D03*
X018100Y006600D03*
X020100Y006600D03*
X030600Y002100D03*
X030600Y001100D03*
X033600Y001100D03*
X033600Y002100D03*
D14*
X023474Y004975D03*
X022726Y004975D03*
D15*
X032600Y008101D03*
X032600Y008849D03*
D16*
X002100Y009475D03*
X001100Y009475D03*
X001100Y010475D03*
X002100Y010475D03*
X002100Y011475D03*
X001100Y011475D03*
X001100Y012475D03*
X002100Y012475D03*
D17*
X020475Y004850D03*
X019350Y004475D03*
X026100Y001600D03*
X027600Y002600D03*
X032475Y002975D03*
X032600Y007225D03*
X027725Y008100D03*
X027600Y007600D03*
X024100Y007600D03*
X027725Y009100D03*
D18*
X001350Y003850D02*
X001225Y003975D01*
X001225Y008600D01*
X000600Y009225D01*
X000600Y012725D01*
X000850Y012975D01*
X001600Y012975D01*
X002100Y012475D01*
X001600Y011975D02*
X001100Y012475D01*
X001600Y011975D02*
X001600Y008975D01*
X001725Y008850D01*
X001725Y004475D01*
X001850Y004350D01*
X003225Y004350D01*
X018725Y004350D01*
X019225Y004850D01*
X019600Y004850D01*
X020225Y004225D01*
X021475Y004225D01*
X021600Y004100D01*
X021100Y004475D02*
X020350Y004475D01*
X020225Y004600D01*
X019725Y005100D01*
X019100Y005100D01*
X018600Y004600D01*
X003225Y004600D01*
X002100Y004600D01*
X001975Y004725D01*
X001975Y008850D01*
X002100Y008975D01*
X002100Y009475D01*
X001475Y008725D02*
X001100Y009100D01*
X001100Y009475D01*
X001475Y008725D02*
X001475Y004225D01*
X001600Y004100D01*
X018975Y004100D01*
X019350Y004475D01*
X020475Y004850D02*
X021100Y005475D01*
X021100Y008350D01*
X021350Y008600D01*
X023725Y008600D01*
X024225Y009100D01*
X024600Y009100D01*
X021975Y004600D02*
X021350Y004600D01*
X021225Y004600D01*
X021100Y004475D01*
X021975Y004600D02*
X022725Y003850D01*
X023475Y003850D01*
X023975Y003850D01*
X024225Y003600D01*
X029850Y003600D01*
X030350Y002975D01*
X032100Y002975D01*
X032475Y002975D01*
X021600Y003100D02*
X021600Y003225D01*
X020975Y003850D01*
X002850Y003850D01*
X002475Y003850D01*
X001350Y003850D01*
M02*
